<?xml version="1.0" encoding="UTF-8"?> <svg xmlns="http://www.w3.org/2000/svg" xmlns:xlink="http://www.w3.org/1999/xlink" id="Capa_2" viewBox="0 0 651 243.64"><defs><style>.cls-1{fill:none;}.cls-2{clip-path:url(#clippath);}.cls-3{fill:#006729;}.cls-4{fill:#0079c8;}.cls-5{fill:#e60018;}.cls-6{fill:#fff;}.cls-7{fill:#6c6f70;}</style><clipPath id="clippath"><rect class="cls-1" x="407.83" width="243.17" height="243.64"></rect></clipPath></defs><g id="Capa_1-2"><g><rect class="cls-6" y=".6" width="308.54" height="242.44"></rect><path class="cls-7" d="M68.35,171.25l2.37-2.82c2.15,1.86,4.33,2.92,7.08,2.92,2.44,0,3.98-1.15,3.98-2.82v-.06c0-1.6-.9-2.47-5.06-3.43-4.77-1.15-7.47-2.56-7.47-6.7v-.06c0-3.85,3.21-6.5,7.66-6.5,3.27,0,5.87,.99,8.14,2.82l-2.12,2.98c-2.02-1.5-4.04-2.31-6.09-2.31-2.31,0-3.65,1.19-3.65,2.66v.06c0,1.73,1.02,2.5,5.35,3.53,4.74,1.15,7.18,2.85,7.18,6.57v.06c0,4.2-3.3,6.7-8.01,6.7-3.43,0-6.67-1.19-9.36-3.59m24.29-19.17h16.63v3.52h-12.69v5.83h11.25v3.52h-11.25v6.02h12.85v3.52h-16.79v-22.43Zm22.28,11.28v-.06c0-6.28,4.81-11.6,11.57-11.6,3.91,0,6.31,1.09,8.62,3.04l-2.5,2.98c-1.73-1.47-3.43-2.4-6.28-2.4-4.13,0-7.27,3.62-7.27,7.92v.06c0,4.62,3.04,8.01,7.63,8.01,2.12,0,4.04-.67,5.42-1.7v-4.2h-5.74v-3.43h9.55v9.42c-2.21,1.89-5.38,3.49-9.36,3.49-7.02,0-11.63-5-11.63-11.54m28.19,1.63v-12.92h3.94v12.75c0,4.17,2.15,6.38,5.67,6.38s5.64-2.08,5.64-6.22v-12.92h3.94v12.72c0,6.7-3.78,10.06-9.65,10.06s-9.55-3.36-9.55-9.87m27.15-12.92h10c2.82,0,5.03,.83,6.47,2.25,1.19,1.22,1.86,2.88,1.86,4.84v.06c0,3.69-2.21,5.9-5.32,6.79l6.06,8.49h-4.68l-5.51-7.82h-4.94v7.82h-3.94v-22.43Zm9.71,11.12c2.82,0,4.62-1.48,4.62-3.75v-.06c0-2.4-1.73-3.72-4.65-3.72h-5.74v7.53h5.77Zm14.35,.16v-.06c0-6.31,4.87-11.6,11.76-11.6s11.7,5.22,11.7,11.54v.06c0,6.31-4.87,11.6-11.76,11.6s-11.7-5.23-11.7-11.54m19.32,0v-.06c0-4.36-3.17-7.98-7.63-7.98s-7.56,3.56-7.56,7.92v.06c0,4.36,3.17,7.95,7.63,7.95s7.56-3.52,7.56-7.88m9.22,7.88l2.37-2.82c2.15,1.86,4.33,2.92,7.08,2.92,2.44,0,3.98-1.15,3.98-2.82v-.06c0-1.6-.9-2.47-5.06-3.43-4.78-1.15-7.47-2.56-7.47-6.7v-.06c0-3.85,3.21-6.5,7.66-6.5,3.27,0,5.87,.99,8.14,2.82l-2.11,2.98c-2.02-1.5-4.04-2.31-6.09-2.31-2.31,0-3.65,1.19-3.65,2.66v.06c0,1.73,1.03,2.5,5.35,3.53,4.74,1.15,7.18,2.85,7.18,6.57v.06c0,4.2-3.3,6.7-8.01,6.7-3.43,0-6.67-1.19-9.36-3.59"></path><path class="cls-3" d="M145.41,136.74h25.24c27.48,0,41.26-14.27,41.26-34.37v-.2c0-20.1-13.49-33.4-40.49-33.4h-26.02v67.96Zm22.72-18.6v-30.75h3.79c10.39,0,17.09,4.63,17.09,15.27v.21c0,10.64-6.7,15.27-17.09,15.27h-3.79Z"></path><rect class="cls-3" x="217.58" y="68.78" width="22.65" height="67.96"></rect><rect class="cls-5" x="91.02" y="91.44" width="22.65" height="22.65"></rect><rect class="cls-3" x="113.69" y="68.78" width="22.65" height="67.96"></rect><rect class="cls-3" x="68.35" y="68.78" width="22.65" height="67.96"></rect><rect x="357.97" y=".62" width="3.03" height="242.4"></rect><g class="cls-2"><path class="cls-4" d="M445.6,44.62h-10.4l1.41-11.51h10.95c4.89,0,7.36,2.1,6.94,5.51l-.02,.13c-.49,3.96-4,5.88-8.89,5.88m9.07,12.38v-.12c.46-3.65-2.18-5.82-8.19-5.82h-12.07l-1.46,11.88h12.63c5.2,0,8.61-2.04,9.09-5.95m65.37,6.87c5.14,0,9.84-4.02,10.63-10.46l.02-.12c.77-6.32-2.99-10.46-8.06-10.46s-10.05,4.21-10.82,10.46v.12c-.78,6.25,3.16,10.46,8.23,10.46m37.82,0c5.01,0,9.98-4.21,10.75-10.46v-.12c.79-6.32-3.15-10.46-8.17-10.46s-9.9,3.96-10.69,10.46l-.02,.12c-.77,6.31,3.05,10.46,8.12,10.46m-59.03,35.51l-.83,6.74h60.35c12.6,0,19.7-6.75,23.36-11.57l7.41,13.67c.67,1.23,2.02,1.92,3.4,1.74,1.38-.18,2.51-1.19,2.84-2.54l15.19-66.47,7.1,80.52c.17,2.02,1.86,3.61,3.93,3.61,1.55,0,2.89-.89,3.53-2.19l11.42-23.68c2.15,3.32,5.48,6.92,10.56,6.92h3.92V243.17h-243.17V0h243.17V99.38h-3.92c-3.05,0-5.39-4.51-6.64-6.93-.64-1.24-1.07-2.06-1.72-2.69-.76-.74-1.83-1.07-2.88-.9-1.05,.17-1.95,.82-2.45,1.77l-9.93,21.23-7.67-84.65c-.21-2.1-1.9-3.74-4-3.88-2.12-.13-4,1.24-4.5,3.29l-16.41,70.7-5.88-10.85c-.45-.83-1.23-1.43-2.15-1.66-.91-.23-1.89-.06-2.68,.46-.75,.5-1.13,1.11-1.77,2.13-2.03,3.28-7.42,11.98-20.06,11.98h-59.52Zm56.43-29.01c5.32,0,9.06-2.72,11.89-6.13l-.67,5.45h7.49l4.01-32.68h-7.49l-.62,5.07c-1.97-3.09-5.05-5.75-10.43-5.75-7.8,0-15.92,6.13-17.25,16.96v.12c-1.35,10.83,5.39,16.96,13.07,16.96m-53.99,9.22h7.49l1.84-14.98c1.92,3.03,4.99,5.76,10.43,5.76,7.74,0,15.92-6.13,17.25-16.96l.02-.12c1.34-10.89-5.41-16.96-13.08-16.96-5.32,0-9.06,2.72-11.89,6.13l.67-5.45h-7.49l-5.23,42.58Zm-76.64-9.9h20.05c9.65,0,16.54-4.15,17.49-11.88v-.12c.74-5.88-2.43-8.79-7.3-10.52,3.42-1.67,6.74-4.46,7.38-9.66v-.12c.37-2.91-.33-5.26-2.01-7.18-2.17-2.48-5.9-3.84-10.85-3.84h-19.44l-5.32,43.33Zm74.69-32.68h-7.55l-2.26,18.45c-.62,5.07-4.02,8.05-8.35,8.05s-6.65-2.85-6.02-7.93l2.28-18.57h-7.49l-2.55,20.8c-.93,7.61,2.73,12.57,10.09,12.57,5.07,0,8.43-2.66,10.92-5.76l-.62,5.07h7.55l4.01-32.68Z"></path><path class="cls-6" d="M651,99.38v6.74h-3.92c-5.08,0-8.42-3.6-10.56-6.91l-11.42,23.68c-.64,1.3-1.98,2.19-3.53,2.19-2.07,0-3.76-1.59-3.93-3.61l-7.1-80.52-15.19,66.47c-.33,1.36-1.46,2.37-2.84,2.54-1.38,.18-2.73-.51-3.4-1.74l-7.41-13.67c-3.66,4.83-10.76,11.57-23.36,11.57h-60.34l.82-6.74h59.52c12.64,0,18.03-8.71,20.06-11.98,.63-1.02,1.01-1.63,1.77-2.13,.79-.52,1.76-.69,2.68-.46,.92,.23,1.7,.83,2.15,1.66l5.88,10.84,16.41-70.7c.5-2.05,2.38-3.42,4.5-3.29,2.1,.15,3.79,1.79,4,3.88l7.67,84.65,9.93-21.23c.49-.94,1.4-1.59,2.45-1.77,1.05-.17,2.12,.16,2.88,.9,.65,.63,1.08,1.45,1.72,2.69,1.26,2.42,3.59,6.93,6.64,6.93h3.92Zm-108.81-45.97v-.12c1.34-10.83,9.46-16.96,17.26-16.96,5.39,0,8.46,2.66,10.43,5.76l.62-5.07h7.49l-4.01,32.68h-7.49l.67-5.45c-2.83,3.4-6.57,6.13-11.89,6.13-7.68,0-14.41-6.13-13.08-16.96m15.67,10.46c5.01,0,9.98-4.21,10.75-10.46v-.12c.79-6.31-3.15-10.46-8.17-10.46s-9.9,3.96-10.69,10.46l-.02,.12c-.78,6.31,3.05,10.46,8.12,10.46m-102.97-16.71c4.86,1.73,8.03,4.64,7.31,10.52v.12c-.97,7.73-7.85,11.88-17.5,11.88h-20.05l5.32-43.33h19.43c4.95,0,8.68,1.36,10.85,3.84,1.68,1.92,2.38,4.27,2.03,7.18v.12c-.65,5.2-3.97,7.99-7.39,9.66m-19.68-2.54h10.4c4.89,0,8.41-1.92,8.89-5.88v-.12c.44-3.4-2.03-5.51-6.92-5.51h-10.95l-1.42,11.51Zm11.28,6.44h-12.07l-1.46,11.88h12.62c5.2,0,8.61-2.04,9.09-5.94v-.13c.46-3.65-2.18-5.82-8.18-5.82m45.29-14.05l-2.26,18.45c-.62,5.07-4.02,8.05-8.35,8.05s-6.65-2.85-6.02-7.92l2.28-18.57h-7.49l-2.56,20.8c-.93,7.61,2.73,12.56,10.09,12.56,5.08,0,8.43-2.66,10.92-5.75l-.62,5.07h7.55l4.01-32.68h-7.55Zm16.99,42.58h-7.49l5.23-42.58h7.49l-.67,5.45c2.83-3.41,6.57-6.13,11.89-6.13,7.68,0,14.42,6.07,13.08,16.96v.12c-1.34,10.83-9.52,16.96-17.26,16.96-5.45,0-8.51-2.72-10.43-5.75l-1.84,14.98Zm11.27-15.72c5.14,0,9.84-4.02,10.63-10.46l.02-.12c.77-6.31-2.99-10.46-8.06-10.46s-10.05,4.21-10.81,10.46v.12c-.78,6.25,3.15,10.46,8.23,10.46"></path></g></g></g></svg> 