<?xml version="1.0" encoding="UTF-8"?>
<svg id="Capa_1" xmlns="http://www.w3.org/2000/svg" xmlns:xlink="http://www.w3.org/1999/xlink" version="1.1" viewBox="0 0 1249.1 801.3">
  <!-- Generator: Adobe Illustrator 29.1.0, SVG Export Plug-In . SVG Version: 2.1.0 Build 142)  -->
  <defs>
    <style>
      .st0 {
        fill: url(#Degradado_sin_nombre_17);
      }

      .st0, .st1, .st2, .st3, .st4, .st5, .st6, .st7 {
        isolation: isolate;
      }

      .st0, .st2, .st3, .st4, .st5, .st6, .st7 {
        opacity: .8;
      }

      .st8 {
        fill: url(#Degradado_sin_nombre_1910);
      }

      .st9 {
        stroke: url(#Degradado_sin_nombre_211);
      }

      .st9, .st10, .st11, .st12 {
        fill: none;
      }

      .st9, .st11, .st12 {
        stroke-linecap: round;
      }

      .st9, .st12 {
        stroke-linejoin: round;
        stroke-width: 9.3px;
      }

      .st10 {
        stroke: #fff;
        stroke-width: .8px;
      }

      .st10, .st11 {
        stroke-miterlimit: 10;
      }

      .st13 {
        fill: #fff;
      }

      .st2 {
        fill: url(#Degradado_sin_nombre_176);
      }

      .st3 {
        fill: url(#Degradado_sin_nombre_173);
      }

      .st4 {
        fill: url(#Degradado_sin_nombre_175);
      }

      .st5 {
        fill: url(#Degradado_sin_nombre_172);
      }

      .st6 {
        fill: url(#Degradado_sin_nombre_174);
      }

      .st7 {
        fill: url(#Degradado_sin_nombre_171);
      }

      .st11 {
        stroke: #008ffc;
        stroke-dasharray: 11.6 11.6;
        stroke-width: 4.6px;
      }

      .st14 {
        fill: url(#Degradado_sin_nombre_191);
      }

      .st15 {
        fill: url(#Degradado_sin_nombre_194);
      }

      .st16 {
        fill: url(#Degradado_sin_nombre_193);
      }

      .st17 {
        fill: url(#Degradado_sin_nombre_196);
      }

      .st18 {
        fill: url(#Degradado_sin_nombre_192);
      }

      .st19 {
        fill: url(#Degradado_sin_nombre_195);
      }

      .st20 {
        fill: url(#Degradado_sin_nombre_198);
      }

      .st21 {
        fill: url(#Degradado_sin_nombre_197);
      }

      .st22 {
        fill: url(#Degradado_sin_nombre_199);
      }

      .st23 {
        fill: url(#Degradado_sin_nombre_19);
      }

      .st12 {
        stroke: url(#Degradado_sin_nombre_21);
      }
    </style>
    <linearGradient id="Degradado_sin_nombre_17" data-name="Degradado sin nombre 17" x1="336.6" y1="612.9" x2="461.4" y2="612.9" gradientTransform="translate(0 801.1) scale(1 -1)" gradientUnits="userSpaceOnUse">
      <stop offset="0" stop-color="#008cf4"/>
      <stop offset="1" stop-color="#00508a"/>
    </linearGradient>
    <linearGradient id="Degradado_sin_nombre_19" data-name="Degradado sin nombre 19" x1="148.2" y1="-630.9" x2="185.4" y2="-556.6" gradientTransform="translate(234 781)" gradientUnits="userSpaceOnUse">
      <stop offset="0" stop-color="#4dcbff"/>
      <stop offset=".7" stop-color="#008efb"/>
    </linearGradient>
    <linearGradient id="Degradado_sin_nombre_171" data-name="Degradado sin nombre 17" x1="281.8" y1="475.3" x2="406.6" y2="475.3" xlink:href="#Degradado_sin_nombre_17"/>
    <linearGradient id="Degradado_sin_nombre_191" data-name="Degradado sin nombre 19" x1="105.9" y1="-442" x2="106.8" y2="-433.6" xlink:href="#Degradado_sin_nombre_19"/>
    <linearGradient id="Degradado_sin_nombre_192" data-name="Degradado sin nombre 19" x1="83.9" y1="-484.5" x2="122.5" y2="-416.9" xlink:href="#Degradado_sin_nombre_19"/>
    <linearGradient id="Degradado_sin_nombre_172" data-name="Degradado sin nombre 17" x1="347.6" y1="339.8" x2="472.4" y2="339.8" xlink:href="#Degradado_sin_nombre_17"/>
    <linearGradient id="Degradado_sin_nombre_193" data-name="Degradado sin nombre 19" x1="153" y1="-346.5" x2="188.5" y2="-286.7" xlink:href="#Degradado_sin_nombre_19"/>
    <linearGradient id="Degradado_sin_nombre_173" data-name="Degradado sin nombre 17" x1="661.7" x2="786.5" xlink:href="#Degradado_sin_nombre_17"/>
    <linearGradient id="Degradado_sin_nombre_194" data-name="Degradado sin nombre 19" x1="471.6" y1="-625.8" x2="501.3" y2="-556.8" xlink:href="#Degradado_sin_nombre_19"/>
    <linearGradient id="Degradado_sin_nombre_195" data-name="Degradado sin nombre 19" x1="472.1" y1="-609.4" x2="482.6" y2="-589.6" xlink:href="#Degradado_sin_nombre_19"/>
    <linearGradient id="Degradado_sin_nombre_174" data-name="Degradado sin nombre 17" x1="714" y1="475.3" x2="838.8" y2="475.3" xlink:href="#Degradado_sin_nombre_17"/>
    <linearGradient id="Degradado_sin_nombre_196" data-name="Degradado sin nombre 19" x1="522.1" y1="-491.2" x2="557.6" y2="-416.9" xlink:href="#Degradado_sin_nombre_19"/>
    <linearGradient id="Degradado_sin_nombre_197" data-name="Degradado sin nombre 19" x1="537.2" y1="-458.8" x2="547.6" y2="-438.9" xlink:href="#Degradado_sin_nombre_19"/>
    <linearGradient id="Degradado_sin_nombre_175" data-name="Degradado sin nombre 17" x1="642.8" y1="338.5" x2="767.5" y2="338.5" xlink:href="#Degradado_sin_nombre_17"/>
    <linearGradient id="Degradado_sin_nombre_198" data-name="Degradado sin nombre 19" x1="455.5" y1="-359.1" x2="496" y2="-274.4" xlink:href="#Degradado_sin_nombre_19"/>
    <linearGradient id="Degradado_sin_nombre_176" data-name="Degradado sin nombre 17" x1="498.9" y1="271.7" x2="623.6" y2="271.7" xlink:href="#Degradado_sin_nombre_17"/>
    <linearGradient id="Degradado_sin_nombre_199" data-name="Degradado sin nombre 19" x1="307.8" y1="-288.7" x2="346.9" y2="-214.4" xlink:href="#Degradado_sin_nombre_19"/>
    <linearGradient id="Degradado_sin_nombre_1910" data-name="Degradado sin nombre 19" x1="315.4" y1="-273.8" x2="339" y2="-229" xlink:href="#Degradado_sin_nombre_19"/>
    <linearGradient id="Degradado_sin_nombre_21" data-name="Degradado sin nombre 21" x1="327.3" y1="-493" x2="327.3" y2="-423.6" gradientTransform="translate(234 781)" gradientUnits="userSpaceOnUse">
      <stop offset="0" stop-color="#008efb"/>
      <stop offset="1" stop-color="#00528e"/>
    </linearGradient>
    <linearGradient id="Degradado_sin_nombre_211" data-name="Degradado sin nombre 21" x1="327.3" y1="-465" x2="327.3" y2="-451.6" xlink:href="#Degradado_sin_nombre_21"/>
  </defs>
  <g>
    <circle class="st0" cx="399" cy="188.1" r="62.4"/>
    <circle class="st13" cx="399" cy="188.1" r="52.3"/>
    <path class="st23" d="M425.2,175.1c-5.6-1.1-10.5,3.2-10.5,8.5s2.4,7,5.8,8.2v7.4c0,6.5-3.9,12.5-10,14.7-10.2,3.8-20-2.7-21.7-11.9,10.7-1.7,18.9-10.9,18.9-22.1v-11.7c0-5-4.1-9-9-9,0-1.7-1.4-3.1-3.2-3-1.7,0-2.9,1.6-2.9,3.2v5.8c0,1.4.8,2.7,2.1,3.1,2.1.6,4.1-.9,4.1-3,1.7,0,3.1,1.4,3.1,3.1v11.9c0,8.1-6.3,15.2-14.4,15.6-8.6.4-15.8-6.5-15.8-15.1v-12.4c0-1.7,1.4-3.1,3.1-3.1,0,2,2,3.6,4.1,3,1.3-.4,2.1-1.7,2.1-3.1v-5.8c0-1.6-1.2-3.2-2.9-3.2-1.6,0-3.1,1.3-3.1,3-5,0-9,4.1-9,9v12.7c0,10.7,8,19.6,18.3,21,1.3,10.1,9.9,18,20.4,18.3,12,.3,21.8-9.8,21.8-21.8v-6.5c3.9-1.4,6.5-5.5,5.7-10-.7-3.4-3.4-6.1-6.8-6.8h0ZM423.6,186.7c-1.7,0-3.1-1.4-3.1-3.1s1.4-3.1,3.1-3.1,3.1,1.4,3.1,3.1-1.4,3.1-3.1,3.1Z"/>
  </g>
  <g class="st1">
    <path class="st13" d="M174.4,159.9c-1.7-.9-3.1-2.2-4.1-3.8-1-1.6-1.5-3.5-1.5-5.5s.5-3.9,1.5-5.5,2.3-2.9,4.1-3.8c1.7-.9,3.7-1.4,5.8-1.4s3.6.3,5.1,1c1.5.7,2.8,1.6,3.8,2.9l-3.7,3.4c-1.3-1.6-3-2.4-4.9-2.4s-2.1.2-3,.7c-.9.5-1.6,1.2-2,2.1-.5.9-.7,1.9-.7,3.1s.2,2.2.7,3.1c.5.9,1.2,1.6,2,2.1.9.5,1.9.7,3,.7,1.9,0,3.5-.8,4.9-2.4l3.7,3.4c-1,1.3-2.3,2.2-3.8,2.9-1.5.7-3.2,1-5.1,1s-4.1-.5-5.8-1.4Z"/>
    <path class="st13" d="M194.4,160.1c-1.4-.7-2.5-1.7-3.2-2.9-.8-1.3-1.2-2.7-1.2-4.3s.4-3,1.2-4.2c.8-1.3,1.8-2.2,3.2-2.9,1.4-.7,2.9-1,4.6-1s3.3.3,4.7,1,2.4,1.7,3.2,2.9,1.2,2.7,1.2,4.3-.4,3-1.2,4.3-1.8,2.2-3.2,2.9-2.9,1.1-4.7,1.1-3.3-.4-4.6-1.1ZM201.4,155.7c.6-.7.9-1.6.9-2.8s-.3-2.1-.9-2.8c-.6-.7-1.4-1-2.4-1s-1.8.3-2.4,1-.9,1.6-.9,2.8.3,2.1.9,2.8c.6.7,1.4,1,2.4,1s1.8-.3,2.4-1Z"/>
    <path class="st13" d="M225.8,146.4c1.2,1.2,1.8,3,1.8,5.3v9.1h-5.6v-8.2c0-2.2-.9-3.3-2.6-3.3s-1.7.3-2.3.9c-.6.6-.9,1.6-.9,2.8v7.7h-5.6v-16h5.3v1.7c.6-.6,1.4-1.1,2.2-1.5.9-.3,1.8-.5,2.8-.5,2,0,3.6.6,4.8,1.8Z"/>
    <path class="st13" d="M233,160.7c-1.3-.3-2.3-.7-3.1-1.2l1.7-3.8c.7.5,1.6.8,2.6,1.1s2,.4,3,.4,1.5,0,1.9-.3.6-.5.6-.8-.2-.6-.7-.8c-.5-.1-1.2-.3-2.2-.4-1.3-.2-2.4-.4-3.3-.6-.9-.3-1.7-.7-2.3-1.4-.6-.7-1-1.7-1-2.9s.3-1.9.9-2.7c.6-.8,1.5-1.4,2.7-1.9,1.2-.5,2.6-.7,4.2-.7s2.3.1,3.5.4,2.1.6,2.9,1l-1.7,3.8c-1.4-.8-3-1.2-4.6-1.2s-1.5.1-1.9.3-.6.5-.6.8.2.6.7.8c.5.1,1.2.3,2.2.5,1.3.2,2.4.4,3.3.7.9.3,1.6.7,2.3,1.4.6.7,1,1.6,1,2.8s-.3,1.9-.9,2.7c-.6.8-1.5,1.4-2.7,1.9-1.2.5-2.6.7-4.3.7s-2.7-.2-4-.5Z"/>
    <path class="st13" d="M264.1,144.9v16h-5.3v-1.7c-.6.6-1.3,1.1-2.1,1.5-.8.3-1.7.5-2.6.5-2.1,0-3.7-.6-4.9-1.8-1.2-1.2-1.8-3-1.8-5.5v-8.9h5.6v8c0,1.2.2,2.1.7,2.6.5.6,1.1.8,2,.8s1.6-.3,2.2-.9c.6-.6.8-1.6.8-2.8v-7.7h5.6Z"/>
    <path class="st13" d="M267.7,139h5.6v21.9h-5.6v-21.9Z"/>
    <path class="st13" d="M289.6,160.2c-.5.3-1,.5-1.7.7s-1.4.2-2.2.2c-2.1,0-3.7-.5-4.8-1.5-1.1-1-1.7-2.5-1.7-4.6v-5.4h-2.3v-4.2h2.3v-4.2h5.6v4.2h3.7v4.2h-3.7v5.3c0,.6.2,1,.5,1.3.3.3.7.5,1.2.5s1.2-.2,1.7-.5l1.4,3.9Z"/>
    <path class="st13" d="M304.6,146.5c1.4,1.2,2.1,3.1,2.1,5.6v8.9h-5.2v-2.1c-.8,1.6-2.4,2.3-4.7,2.3s-2.3-.2-3.2-.6-1.6-1-2.1-1.8c-.5-.7-.7-1.6-.7-2.5,0-1.5.6-2.7,1.7-3.5,1.2-.8,3-1.3,5.4-1.3h3.2c0-1.7-1.2-2.5-3.4-2.5s-1.5.1-2.3.4c-.8.2-1.5.6-2,1l-1.9-3.8c.9-.6,2-1,3.2-1.4s2.5-.5,3.8-.5c2.7,0,4.7.6,6.1,1.8ZM300.1,157.2c.5-.3.8-.8,1.1-1.4v-1.4h-2.4c-1.6,0-2.4.5-2.4,1.6s.2.9.6,1.2c.4.3.9.4,1.5.4s1.2-.2,1.7-.5Z"/>
    <path class="st13" d="M312.1,160.7c-1.3-.3-2.3-.7-3.1-1.2l1.7-3.8c.7.5,1.6.8,2.6,1.1s2,.4,3,.4,1.5,0,1.9-.3.6-.5.6-.8-.2-.6-.7-.8c-.5-.1-1.2-.3-2.2-.4-1.3-.2-2.4-.4-3.3-.6-.9-.3-1.7-.7-2.3-1.4-.6-.7-1-1.7-1-2.9s.3-1.9.9-2.7c.6-.8,1.5-1.4,2.7-1.9,1.2-.5,2.6-.7,4.2-.7s2.3.1,3.5.4,2.1.6,2.9,1l-1.7,3.8c-1.4-.8-3-1.2-4.6-1.2s-1.5.1-1.9.3-.6.5-.6.8.2.6.7.8c.5.1,1.2.3,2.2.5,1.3.2,2.4.4,3.3.7.9.3,1.6.7,2.3,1.4.6.7,1,1.6,1,2.8s-.3,1.9-.9,2.7c-.6.8-1.5,1.4-2.7,1.9-1.2.5-2.6.7-4.3.7s-2.7-.2-4-.5Z"/>
  </g>
  <g class="st1">
    <path class="st13" d="M201.5,196.3v-10.9c0,0-5.4,8.9-5.4,8.9h-2.6l-5.3-8.6v10.7h-5.4v-20.7h4.8l7.3,11.9,7.1-11.9h4.8v20.7c0,0-5.3,0-5.3,0Z"/>
    <path class="st13" d="M227,189.7h-11.6c.2.8.7,1.5,1.4,1.9.7.4,1.5.7,2.6.7s1.4-.1,2-.3c.6-.2,1.1-.6,1.7-1.1l3,3.1c-1.6,1.7-3.8,2.6-6.8,2.6s-3.5-.4-4.9-1.1c-1.4-.7-2.5-1.7-3.3-2.9-.8-1.3-1.2-2.7-1.2-4.3s.4-3,1.1-4.2c.8-1.2,1.8-2.2,3.1-2.9,1.3-.7,2.8-1.1,4.5-1.1s3,.3,4.3,1,2.3,1.6,3.1,2.9c.8,1.2,1.1,2.7,1.1,4.4s0,.5,0,1.4ZM216.4,184.8c-.6.5-.9,1.2-1.1,2h6.5c-.2-.8-.5-1.5-1.1-2s-1.3-.7-2.2-.7-1.6.2-2.2.7Z"/>
    <path class="st13" d="M246.7,174.4v21.9h-5.3v-1.6c-1,1.2-2.6,1.9-4.7,1.9s-2.8-.3-4-1c-1.2-.7-2.1-1.6-2.8-2.9-.7-1.3-1-2.7-1-4.4s.3-3.1,1-4.4c.7-1.2,1.6-2.2,2.8-2.9,1.2-.7,2.5-1,4-1s3.4.6,4.4,1.7v-7.3h5.6ZM240.2,191.1c.6-.7.9-1.6.9-2.8s-.3-2.1-.9-2.8c-.6-.7-1.4-1-2.4-1s-1.8.3-2.4,1-.9,1.6-.9,2.8.3,2.1.9,2.8c.6.7,1.4,1,2.4,1s1.8-.3,2.4-1Z"/>
    <path class="st13" d="M250.6,177.7c-.6-.6-.9-1.3-.9-2.1s.3-1.6.9-2.1c.6-.6,1.5-.9,2.5-.9s1.8.3,2.5.8c.6.5.9,1.2.9,2.1s-.3,1.6-.9,2.2c-.6.6-1.5.9-2.5.9s-1.8-.3-2.5-.9ZM250.3,180.3h5.6v16h-5.6v-16Z"/>
    <path class="st13" d="M262.9,195.5c-1.4-.7-2.5-1.7-3.3-2.9-.8-1.3-1.2-2.7-1.2-4.3s.4-3,1.2-4.3c.8-1.2,1.9-2.2,3.3-2.9s3-1,4.8-1,3.4.4,4.7,1.2,2.3,1.9,2.8,3.2l-4.3,2.2c-.7-1.4-1.8-2.2-3.2-2.2s-1.8.3-2.5,1c-.7.7-1,1.6-1,2.8s.3,2.1,1,2.8c.7.7,1.5,1,2.5,1s2.5-.7,3.2-2.2l4.3,2.2c-.6,1.4-1.5,2.5-2.8,3.2-1.3.8-2.9,1.2-4.7,1.2s-3.4-.4-4.8-1.1Z"/>
    <path class="st13" d="M290.2,181.9c1.4,1.2,2.1,3.1,2.1,5.6v8.9h-5.2v-2.1c-.8,1.6-2.4,2.3-4.7,2.3s-2.3-.2-3.2-.6-1.6-1-2.1-1.8c-.5-.7-.7-1.6-.7-2.5,0-1.5.6-2.7,1.7-3.5,1.2-.8,3-1.3,5.4-1.3h3.2c0-1.7-1.2-2.5-3.4-2.5s-1.5.1-2.3.4c-.8.2-1.5.6-2,1l-1.9-3.8c.9-.6,2-1,3.2-1.4s2.5-.5,3.8-.5c2.7,0,4.7.6,6.1,1.8ZM285.6,192.6c.5-.3.8-.8,1.1-1.4v-1.4h-2.4c-1.6,0-2.4.5-2.4,1.6s.2.9.6,1.2c.4.3.9.4,1.5.4s1.2-.2,1.7-.5Z"/>
    <path class="st13" d="M297.7,196.1c-1.3-.3-2.3-.7-3.1-1.2l1.7-3.8c.7.5,1.6.8,2.6,1.1s2,.4,3,.4,1.5,0,1.9-.3.6-.5.6-.8-.2-.6-.7-.8c-.5-.1-1.2-.3-2.2-.4-1.3-.2-2.4-.4-3.3-.6-.9-.3-1.7-.7-2.3-1.4-.6-.7-1-1.7-1-2.9s.3-1.9.9-2.7c.6-.8,1.5-1.4,2.7-1.9,1.2-.5,2.6-.7,4.2-.7s2.3.1,3.5.4,2.1.6,2.9,1l-1.7,3.8c-1.4-.8-3-1.2-4.6-1.2s-1.5.1-1.9.3-.6.5-.6.8.2.6.7.8c.5.1,1.2.3,2.2.5,1.3.2,2.4.4,3.3.7.9.3,1.6.7,2.3,1.4.6.7,1,1.6,1,2.8s-.3,1.9-.9,2.7c-.6.8-1.5,1.4-2.7,1.9-1.2.5-2.6.7-4.3.7s-2.7-.2-4-.5Z"/>
  </g>
  <g>
    <circle class="st7" cx="344.2" cy="325.8" r="62.4"/>
    <circle class="st13" cx="344.2" cy="325.8" r="52.3"/>
    <g>
      <path class="st14" d="M355,343.2c0,1.6-1.3,2.9-3,2.9h-23.5c-1.6,0-2.9-1.3-2.9-2.9s1.3-2.9,2.9-2.9h23.5c1.6,0,3,1.3,3,2.9Z"/>
      <path class="st18" d="M370.7,350.7h-6.1s7.7-9.7,7.7-16.4c0-12.4-10.2-22.5-23.4-22.5v-2.8c.6-1.5-.7-2.8-2.3-2.8v-5.6c0-3.1-5.7-5.7-5.7-5.7h-5.7s-5.7,2.6-6.1,5.7v5.6c-1.2,0-2.3,2.8-2.3,2.8v11.3c0,4.6,3.9,8.4,8.7,8.4-1.6,0-2.9,1.2-2.9,2.8s1.3,2.8,2.9,2.8h5.8c1.6,0,2.9-1.2,2.9-2.8s-1.3-2.8-2.9-2.8c4.8,0,8.7-3.8,8.7-8.4v-4.5c9.8,0,17.7,7.8,17.7,17.4s-7.9,17.4-17.7,17.4h-32.4c-1.6,0-2.9,1.3-2.9,2.9s1.3,2.9,2.9,2.9h53c1.6,0,3-1.3,3-2.9s-1.3-2.9-3-2.9h0ZM335,300.8h5.8v5.8h-5.8v-5.8ZM344.3,320c0,1.6-1.3,2.9-2.9,2.9h-5.8c-1.6,0-2.9-1.3-2.9-2.9v-8.7h11.6s0,8.7,0,8.7Z"/>
    </g>
  </g>
  <g class="st1">
    <path class="st13" d="M131.8,304.4h-8.7l-1.6,4h-6l9.1-20.7h5.8l9.1,20.7h-6.1l-1.6-4ZM130.1,300.1l-2.7-6.6-2.7,6.6h5.3Z"/>
    <path class="st13" d="M156.1,294c1.2,1.2,1.8,3,1.8,5.3v9.1h-5.6v-8.2c0-2.2-.9-3.3-2.6-3.3s-1.7.3-2.3.9c-.6.6-.9,1.6-.9,2.8v7.7h-5.6v-16h5.3v1.7c.6-.6,1.4-1.1,2.2-1.5.9-.3,1.8-.5,2.8-.5,2,0,3.6.6,4.8,1.8Z"/>
    <path class="st13" d="M174.3,294c1.4,1.2,2.1,3.1,2.1,5.6v8.9h-5.2v-2.1c-.8,1.6-2.4,2.3-4.7,2.3s-2.3-.2-3.2-.6-1.6-1-2.1-1.8c-.5-.7-.7-1.6-.7-2.5,0-1.5.6-2.7,1.7-3.5,1.2-.8,3-1.3,5.4-1.3h3.2c0-1.7-1.2-2.5-3.4-2.5s-1.5.1-2.3.4c-.8.2-1.5.6-2,1l-1.9-3.8c.9-.6,2-1,3.2-1.4,1.3-.3,2.5-.5,3.8-.5,2.7,0,4.7.6,6.1,1.8ZM169.7,304.7c.5-.3.8-.8,1.1-1.4v-1.4h-2.4c-1.6,0-2.4.5-2.4,1.6s.2.9.6,1.2c.4.3.9.4,1.5.4s1.2-.2,1.7-.5ZM169.9,286.1h5.6l-5.5,4.5h-4l4-4.5Z"/>
    <path class="st13" d="M179.9,286.6h5.6v21.9h-5.6v-21.9Z"/>
    <path class="st13" d="M189.5,289.8c-.6-.6-.9-1.3-.9-2.1s.3-1.6.9-2.1,1.5-.9,2.5-.9,1.8.3,2.5.8c.6.5.9,1.2.9,2.1s-.3,1.6-.9,2.2c-.6.6-1.5.9-2.5.9s-1.8-.3-2.5-.9ZM189.2,292.5h5.6v16h-5.6v-16Z"/>
    <path class="st13" d="M200.2,308.3c-1.3-.3-2.3-.7-3.1-1.2l1.7-3.8c.7.5,1.6.8,2.6,1.1s2,.4,3,.4,1.5,0,1.9-.3.6-.5.6-.8-.2-.6-.7-.8c-.5-.1-1.2-.3-2.2-.4-1.3-.2-2.4-.4-3.3-.6-.9-.3-1.7-.7-2.3-1.4-.6-.7-1-1.7-1-2.9s.3-1.9.9-2.7,1.5-1.4,2.7-1.9c1.2-.5,2.6-.7,4.2-.7s2.3.1,3.5.4,2.1.6,2.9,1l-1.7,3.8c-1.4-.8-3-1.2-4.6-1.2s-1.5.1-1.9.3c-.4.2-.6.5-.6.8s.2.6.7.8c.5.1,1.2.3,2.2.5,1.3.2,2.4.4,3.3.7.9.3,1.6.7,2.3,1.4.6.7,1,1.6,1,2.8s-.3,1.9-.9,2.7c-.6.8-1.5,1.4-2.7,1.9-1.2.5-2.6.7-4.3.7s-2.7-.2-4-.5Z"/>
    <path class="st13" d="M214.9,289.8c-.6-.6-.9-1.3-.9-2.1s.3-1.6.9-2.1,1.5-.9,2.5-.9,1.8.3,2.5.8c.6.5.9,1.2.9,2.1s-.3,1.6-.9,2.2c-.6.6-1.5.9-2.5.9s-1.8-.3-2.5-.9ZM214.5,292.5h5.6v16h-5.6v-16Z"/>
    <path class="st13" d="M225.6,308.3c-1.3-.3-2.3-.7-3.1-1.2l1.7-3.8c.7.5,1.6.8,2.6,1.1s2,.4,3,.4,1.5,0,1.9-.3.6-.5.6-.8-.2-.6-.7-.8c-.5-.1-1.2-.3-2.2-.4-1.3-.2-2.4-.4-3.3-.6-.9-.3-1.7-.7-2.3-1.4-.6-.7-1-1.7-1-2.9s.3-1.9.9-2.7,1.5-1.4,2.7-1.9c1.2-.5,2.6-.7,4.2-.7s2.3.1,3.5.4,2.1.6,2.9,1l-1.7,3.8c-1.4-.8-3-1.2-4.6-1.2s-1.5.1-1.9.3c-.4.2-.6.5-.6.8s.2.6.7.8c.5.1,1.2.3,2.2.5,1.3.2,2.4.4,3.3.7.9.3,1.6.7,2.3,1.4.6.7,1,1.6,1,2.8s-.3,1.9-.9,2.7c-.6.8-1.5,1.4-2.7,1.9-1.2.5-2.6.7-4.3.7s-2.7-.2-4-.5Z"/>
    <path class="st13" d="M265.3,292.5l-6.9,16.6c-.8,2-1.8,3.3-3,4.1-1.2.8-2.6,1.2-4.2,1.2s-1.7-.1-2.6-.4-1.5-.6-2.1-1l1.9-3.9c.3.3.7.5,1.1.7s.9.3,1.3.3,1-.1,1.3-.3c.3-.2.6-.6.9-1l-6.8-16.2h5.8l3.9,9.8,4-9.8h5.3Z"/>
  </g>
  <g class="st1">
    <path class="st13" d="M141.4,339.4v4.5h-16.6v-20.7h16.2v4.5h-10.4v3.5h9.2v4.4h-9.2v3.8h10.8Z"/>
    <path class="st13" d="M146.2,343.7c-1.3-.3-2.3-.7-3.1-1.2l1.7-3.8c.7.5,1.6.8,2.6,1.1,1,.3,2,.4,3,.4s1.5,0,1.9-.3c.4-.2.6-.5.6-.8s-.2-.6-.7-.8c-.5-.1-1.2-.3-2.2-.4-1.3-.2-2.4-.4-3.3-.6-.9-.3-1.7-.7-2.3-1.4-.6-.7-1-1.7-1-2.9s.3-1.9.9-2.7c.6-.8,1.5-1.4,2.7-1.9,1.2-.5,2.6-.7,4.2-.7s2.3.1,3.5.4c1.1.2,2.1.6,2.9,1l-1.7,3.8c-1.4-.8-3-1.2-4.6-1.2s-1.5.1-1.9.3-.6.5-.6.8.2.6.7.8c.5.1,1.2.3,2.2.5,1.3.2,2.4.4,3.3.7.9.3,1.6.7,2.3,1.4.6.7,1,1.6,1,2.8s-.3,1.9-.9,2.7c-.6.8-1.5,1.4-2.7,1.9-1.2.5-2.6.7-4.3.7s-2.7-.2-4-.5Z"/>
    <path class="st13" d="M171.5,343.2c-.5.3-1,.5-1.7.7s-1.4.2-2.2.2c-2.1,0-3.7-.5-4.8-1.5-1.1-1-1.7-2.5-1.7-4.6v-5.4h-2.3v-4.2h2.3v-4.2h5.6v4.2h3.7v4.2h-3.7v5.3c0,.6.2,1,.5,1.3.3.3.7.5,1.2.5s1.2-.2,1.7-.5l1.4,3.9Z"/>
    <path class="st13" d="M190.5,327.9v16h-5.3v-1.7c-.6.6-1.3,1.1-2.1,1.5-.8.3-1.7.5-2.6.5-2.1,0-3.7-.6-4.9-1.8-1.2-1.2-1.8-3-1.8-5.5v-8.9h5.6v8c0,1.2.2,2.1.7,2.6.5.6,1.1.8,2,.8s1.6-.3,2.2-.9c.6-.6.8-1.6.8-2.8v-7.7h5.6Z"/>
    <path class="st13" d="M211.1,322v21.9h-5.3v-1.6c-1,1.2-2.6,1.9-4.7,1.9s-2.8-.3-4-1c-1.2-.7-2.1-1.6-2.8-2.9-.7-1.3-1-2.7-1-4.4s.3-3.1,1-4.4c.7-1.2,1.6-2.2,2.8-2.9,1.2-.7,2.5-1,4-1s3.4.6,4.4,1.7v-7.3h5.6ZM204.6,338.7c.6-.7.9-1.6.9-2.8s-.3-2.1-.9-2.8c-.6-.7-1.4-1-2.4-1s-1.8.3-2.4,1c-.6.7-.9,1.6-.9,2.8s.3,2.1.9,2.8,1.4,1,2.4,1,1.8-.3,2.4-1Z"/>
    <path class="st13" d="M215,325.3c-.6-.6-.9-1.3-.9-2.1s.3-1.6.9-2.1c.6-.6,1.5-.9,2.5-.9s1.8.3,2.5.8c.6.5.9,1.2.9,2.1s-.3,1.6-.9,2.2c-.6.6-1.5.9-2.5.9s-1.8-.3-2.5-.9ZM214.7,327.9h5.6v16h-5.6v-16Z"/>
    <path class="st13" d="M227.3,343.1c-1.4-.7-2.5-1.7-3.2-3-.8-1.3-1.2-2.7-1.2-4.3s.4-3,1.2-4.2c.8-1.3,1.8-2.2,3.2-2.9,1.4-.7,2.9-1,4.6-1s3.3.3,4.7,1c1.4.7,2.4,1.7,3.2,2.9.8,1.2,1.2,2.7,1.2,4.3s-.4,3-1.2,4.3-1.8,2.2-3.2,3c-1.4.7-2.9,1.1-4.7,1.1s-3.3-.4-4.6-1.1ZM234.3,338.7c.6-.7.9-1.6.9-2.8s-.3-2.1-.9-2.8c-.6-.7-1.4-1-2.4-1s-1.8.3-2.4,1c-.6.7-.9,1.6-.9,2.8s.3,2.1.9,2.8c.6.7,1.4,1,2.4,1s1.8-.3,2.4-1Z"/>
    <path class="st13" d="M245.4,343.7c-1.3-.3-2.3-.7-3.1-1.2l1.7-3.8c.7.5,1.6.8,2.6,1.1,1,.3,2,.4,3,.4s1.5,0,1.9-.3c.4-.2.6-.5.6-.8s-.2-.6-.7-.8c-.5-.1-1.2-.3-2.2-.4-1.3-.2-2.4-.4-3.3-.6-.9-.3-1.7-.7-2.3-1.4-.6-.7-1-1.7-1-2.9s.3-1.9.9-2.7c.6-.8,1.5-1.4,2.7-1.9,1.2-.5,2.6-.7,4.2-.7s2.3.1,3.5.4c1.1.2,2.1.6,2.9,1l-1.7,3.8c-1.4-.8-3-1.2-4.6-1.2s-1.5.1-1.9.3-.6.5-.6.8.2.6.7.8c.5.1,1.2.3,2.2.5,1.3.2,2.4.4,3.3.7.9.3,1.6.7,2.3,1.4.6.7,1,1.6,1,2.8s-.3,1.9-.9,2.7c-.6.8-1.5,1.4-2.7,1.9-1.2.5-2.6.7-4.3.7s-2.7-.2-4-.5Z"/>
  </g>
  <g>
    <circle class="st5" cx="410" cy="461.3" r="62.4"/>
    <circle class="st13" cx="410" cy="461.3" r="52.3"/>
    <path class="st16" d="M419.9,463.5c3.9-3.1,6.5-7.9,6.5-13.3,0-9.2-7.4-16.7-16.4-16.7s-16.4,7.5-16.4,16.7,2.6,10.2,6.5,13.3c-8.6,3.9-14.7,12.6-14.7,22.8s1.2,2.8,2.7,2.8,2.7-1.2,2.7-2.8c0-10.7,8.6-19.4,19.2-19.4s19.2,8.7,19.2,19.4,1.2,2.8,2.7,2.8,2.7-1.2,2.7-2.8c0-10.2-6.1-19-14.7-22.8h0ZM410,461.6c-6.1,0-11-5-11-11.1s4.9-11.1,11-11.1,11,5,11,11.1-4.9,11.1-11,11.1Z"/>
  </g>
  <g class="st1">
    <path class="st13" d="M205.9,516.2h5.2v8.6c-1.2.8-2.5,1.5-4.1,1.9-1.5.5-3.1.7-4.6.7s-4.1-.5-5.8-1.4-3.1-2.2-4.1-3.8c-1-1.6-1.5-3.5-1.5-5.5s.5-3.9,1.5-5.5c1-1.6,2.4-2.9,4.1-3.8,1.8-.9,3.7-1.4,5.9-1.4s3.7.3,5.2,1c1.5.6,2.8,1.6,3.8,2.8l-3.7,3.4c-1.4-1.5-3.1-2.3-5-2.3s-3.2.5-4.3,1.6c-1.1,1.1-1.6,2.5-1.6,4.3s.2,2.2.7,3.1c.5.9,1.2,1.6,2.1,2.1.9.5,1.9.8,3,.8s2.2-.2,3.2-.7v-5.7Z"/>
    <path class="st13" d="M227.4,512.5c1.4,1.2,2.1,3.1,2.1,5.6v8.9h-5.2v-2.1c-.8,1.6-2.4,2.3-4.7,2.3s-2.3-.2-3.2-.6-1.6-1-2.1-1.8c-.5-.7-.7-1.6-.7-2.5,0-1.5.6-2.7,1.7-3.5,1.2-.8,3-1.3,5.4-1.3h3.2c0-1.7-1.2-2.5-3.4-2.5s-1.5.1-2.3.4c-.8.2-1.5.6-2,1l-1.9-3.8c.9-.6,2-1,3.2-1.4s2.5-.5,3.8-.5c2.7,0,4.7.6,6.1,1.8ZM222.8,523.2c.5-.3.8-.8,1.1-1.4v-1.4h-2.4c-1.6,0-2.4.5-2.4,1.6s.2.9.6,1.2c.4.3.9.4,1.5.4s1.2-.2,1.7-.5Z"/>
    <path class="st13" d="M234.9,526.7c-1.3-.3-2.3-.7-3.1-1.2l1.7-3.8c.7.5,1.6.8,2.6,1.1,1,.3,2,.4,3,.4s1.5,0,1.9-.3.6-.5.6-.8-.2-.6-.7-.8c-.5-.1-1.2-.3-2.2-.4-1.3-.2-2.4-.4-3.3-.6-.9-.3-1.7-.7-2.3-1.4-.6-.7-1-1.7-1-2.9s.3-1.9.9-2.7c.6-.8,1.5-1.4,2.7-1.9,1.2-.5,2.6-.7,4.2-.7s2.3.1,3.5.4,2.1.6,2.9,1l-1.7,3.8c-1.4-.8-3-1.2-4.6-1.2s-1.5.1-1.9.3c-.4.2-.6.5-.6.8s.2.6.7.8c.5.1,1.2.3,2.2.5,1.3.2,2.4.4,3.3.7.9.3,1.6.7,2.3,1.4s1,1.6,1,2.8-.3,1.9-.9,2.7c-.6.8-1.5,1.4-2.7,1.9-1.2.5-2.6.7-4.3.7s-2.7-.2-4-.5Z"/>
    <path class="st13" d="M260.2,526.3c-.5.3-1,.5-1.7.7s-1.4.2-2.2.2c-2.1,0-3.7-.5-4.8-1.5-1.1-1-1.7-2.5-1.7-4.6v-5.4h-2.3v-4.2h2.3v-4.2h5.6v4.2h3.7v4.2h-3.7v5.3c0,.6.2,1,.5,1.3.3.3.7.5,1.2.5s1.2-.2,1.7-.5l1.4,3.9Z"/>
    <path class="st13" d="M265.3,526.1c-1.4-.7-2.5-1.7-3.2-2.9-.8-1.3-1.2-2.7-1.2-4.3s.4-3,1.2-4.2c.8-1.3,1.8-2.2,3.2-2.9,1.4-.7,2.9-1,4.6-1s3.3.4,4.7,1c1.4.7,2.4,1.7,3.2,2.9s1.2,2.7,1.2,4.3-.4,3-1.2,4.3c-.8,1.3-1.8,2.2-3.2,2.9s-2.9,1.1-4.7,1.1-3.3-.4-4.6-1.1ZM272.3,521.7c.6-.7.9-1.6.9-2.8s-.3-2.1-.9-2.8c-.6-.7-1.4-1-2.4-1s-1.8.3-2.4,1-.9,1.6-.9,2.8.3,2.1.9,2.8c.6.7,1.4,1,2.4,1s1.8-.3,2.4-1Z"/>
    <path class="st13" d="M283.4,526.7c-1.3-.3-2.3-.7-3.1-1.2l1.7-3.8c.7.5,1.6.8,2.6,1.1,1,.3,2,.4,3,.4s1.5,0,1.9-.3.6-.5.6-.8-.2-.6-.7-.8c-.5-.1-1.2-.3-2.2-.4-1.3-.2-2.4-.4-3.3-.6-.9-.3-1.7-.7-2.3-1.4-.6-.7-1-1.7-1-2.9s.3-1.9.9-2.7c.6-.8,1.5-1.4,2.7-1.9,1.2-.5,2.6-.7,4.2-.7s2.3.1,3.5.4,2.1.6,2.9,1l-1.7,3.8c-1.4-.8-3-1.2-4.6-1.2s-1.5.1-1.9.3c-.4.2-.6.5-.6.8s.2.6.7.8c.5.1,1.2.3,2.2.5,1.3.2,2.4.4,3.3.7.9.3,1.6.7,2.3,1.4s1,1.6,1,2.8-.3,1.9-.9,2.7c-.6.8-1.5,1.4-2.7,1.9-1.2.5-2.6.7-4.3.7s-2.7-.2-4-.5Z"/>
    <path class="st13" d="M323.3,505v21.9h-5.3v-1.6c-1,1.2-2.6,1.9-4.7,1.9s-2.8-.3-4-1c-1.2-.7-2.1-1.6-2.8-2.9-.7-1.3-1-2.7-1-4.4s.3-3.1,1-4.4,1.6-2.2,2.8-2.9c1.2-.7,2.5-1,4-1s3.4.6,4.4,1.7v-7.3h5.6ZM316.8,521.7c.6-.7.9-1.6.9-2.8s-.3-2.1-.9-2.8c-.6-.7-1.4-1-2.4-1s-1.8.3-2.4,1-.9,1.6-.9,2.8.3,2.1.9,2.8c.6.7,1.4,1,2.4,1s1.8-.3,2.4-1Z"/>
    <path class="st13" d="M343.1,520.3h-11.6c.2.8.7,1.5,1.4,1.9.7.4,1.5.7,2.6.7s1.4-.1,2-.3c.6-.2,1.1-.6,1.7-1.1l3,3.1c-1.6,1.7-3.8,2.6-6.8,2.6s-3.5-.4-4.9-1.1c-1.4-.7-2.5-1.7-3.3-2.9-.8-1.3-1.2-2.7-1.2-4.3s.4-3,1.1-4.2c.8-1.2,1.8-2.2,3.1-2.9,1.3-.7,2.8-1.1,4.5-1.1s3,.3,4.3,1,2.3,1.6,3.1,2.9c.8,1.3,1.1,2.7,1.1,4.4s0,.5,0,1.4ZM332.5,515.4c-.6.5-.9,1.2-1.1,2h6.5c-.2-.8-.5-1.5-1.1-2-.6-.5-1.3-.7-2.2-.7s-1.6.2-2.2.7Z"/>
  </g>
  <g class="st1">
    <path class="st13" d="M195.1,557.8v4.5h-16.6v-20.7h16.2v4.5h-10.4v3.5h9.2v4.4h-9.2v3.8h10.8Z"/>
    <path class="st13" d="M213.3,547.9c1.2,1.2,1.8,3,1.8,5.3v9.1h-5.6v-8.2c0-2.2-.9-3.3-2.6-3.3s-1.7.3-2.3.9c-.6.6-.9,1.6-.9,2.8v7.7h-5.6v-16h5.3v1.7c.6-.6,1.4-1.1,2.2-1.5.9-.3,1.8-.5,2.8-.5,2,0,3.6.6,4.8,1.8Z"/>
    <path class="st13" d="M224.7,547h3.8v4.2h-3.7v11.2h-5.6v-11.2h-2.3v-4.2h2.3v-.4c0-1.9.6-3.5,1.8-4.6,1.2-1.1,2.8-1.7,4.9-1.7s1.4,0,2.1.2c.7.1,1.2.3,1.7.6l-1.4,4c-.6-.3-1.1-.5-1.7-.5s-1,.2-1.4.5c-.3.4-.5.9-.5,1.6v.4Z"/>
    <path class="st13" d="M246.7,555.8h-11.6c.2.8.7,1.5,1.4,1.9s1.5.7,2.6.7,1.4-.1,2-.3c.6-.2,1.1-.6,1.7-1.1l3,3.1c-1.6,1.7-3.8,2.6-6.8,2.6s-3.5-.4-4.9-1.1c-1.4-.7-2.5-1.7-3.3-2.9-.8-1.3-1.2-2.7-1.2-4.3s.4-3,1.1-4.2,1.8-2.2,3.1-2.9c1.3-.7,2.8-1.1,4.5-1.1s3,.3,4.3,1c1.3.7,2.3,1.6,3.1,2.9s1.1,2.7,1.1,4.4,0,.5,0,1.4ZM236.1,550.8c-.6.5-.9,1.2-1.1,2h6.5c-.2-.8-.5-1.5-1.1-2-.6-.5-1.3-.7-2.2-.7s-1.6.2-2.2.7Z"/>
    <path class="st13" d="M256.9,546.6c.9-.4,2-.5,3.1-.5v5c-.5,0-.9,0-1.3,0-1.2,0-2.1.3-2.8,1-.7.6-1,1.6-1,3v7.3h-5.6v-16h5.3v1.9c.6-.7,1.3-1.3,2.2-1.6Z"/>
    <path class="st13" d="M287.9,547.9c1.2,1.2,1.8,3,1.8,5.3v9.1h-5.6v-8.2c0-1.1-.2-1.9-.6-2.5-.4-.5-1-.8-1.8-.8s-1.5.3-2,.9c-.5.6-.8,1.5-.8,2.7v7.9h-5.6v-8.2c0-2.2-.8-3.3-2.4-3.3s-1.6.3-2.1.9c-.5.6-.8,1.5-.8,2.7v7.9h-5.6v-16h5.3v1.7c.6-.6,1.3-1.1,2.1-1.5.8-.3,1.7-.5,2.7-.5s2.1.2,3,.6c.9.4,1.6,1,2.2,1.9.6-.8,1.4-1.4,2.4-1.9s2-.6,3.2-.6c2,0,3.5.6,4.7,1.8Z"/>
    <path class="st13" d="M309.7,555.8h-11.6c.2.8.7,1.5,1.4,1.9s1.5.7,2.6.7,1.4-.1,2-.3c.6-.2,1.1-.6,1.7-1.1l3,3.1c-1.6,1.7-3.8,2.6-6.8,2.6s-3.5-.4-4.9-1.1c-1.4-.7-2.5-1.7-3.3-2.9-.8-1.3-1.2-2.7-1.2-4.3s.4-3,1.1-4.2,1.8-2.2,3.1-2.9c1.3-.7,2.8-1.1,4.5-1.1s3,.3,4.3,1c1.3.7,2.3,1.6,3.1,2.9s1.1,2.7,1.1,4.4,0,.5,0,1.4ZM299.1,550.8c-.6.5-.9,1.2-1.1,2h6.5c-.2-.8-.5-1.5-1.1-2-.6-.5-1.3-.7-2.2-.7s-1.6.2-2.2.7Z"/>
    <path class="st13" d="M320,546.6c.9-.4,2-.5,3.1-.5v5c-.5,0-.9,0-1.3,0-1.2,0-2.1.3-2.8,1-.7.6-1,1.6-1,3v7.3h-5.6v-16h5.3v1.9c.6-.7,1.3-1.3,2.2-1.6Z"/>
    <path class="st13" d="M338.2,547.9c1.4,1.2,2.1,3.1,2.1,5.6v8.9h-5.2v-2.1c-.8,1.6-2.4,2.3-4.7,2.3s-2.3-.2-3.2-.6-1.6-1-2.1-1.8c-.5-.7-.7-1.6-.7-2.5,0-1.5.6-2.7,1.7-3.5,1.2-.8,3-1.3,5.4-1.3h3.2c0-1.7-1.2-2.5-3.4-2.5s-1.5.1-2.3.4c-.8.2-1.5.6-2,1l-1.9-3.8c.9-.6,2-1,3.2-1.4s2.5-.5,3.8-.5c2.7,0,4.7.6,6.1,1.8ZM333.6,558.6c.5-.3.8-.8,1.1-1.4v-1.4h-2.4c-1.6,0-2.4.5-2.4,1.6s.2.9.6,1.2c.4.3.9.4,1.5.4s1.2-.2,1.7-.5Z"/>
    <path class="st13" d="M345.7,562.2c-1.3-.3-2.3-.7-3.1-1.2l1.7-3.8c.7.5,1.6.8,2.6,1.1,1,.3,2,.4,3,.4s1.5,0,1.9-.3.6-.5.6-.8-.2-.6-.7-.8c-.5-.1-1.2-.3-2.2-.4-1.3-.2-2.4-.4-3.3-.6-.9-.3-1.7-.7-2.3-1.4-.6-.7-1-1.7-1-2.9s.3-1.9.9-2.7,1.5-1.4,2.7-1.9c1.2-.5,2.6-.7,4.2-.7s2.3.1,3.5.4,2.1.6,2.9,1l-1.7,3.8c-1.4-.8-3-1.2-4.6-1.2s-1.5.1-1.9.3c-.4.2-.6.5-.6.8s.2.6.7.8c.5.1,1.2.3,2.2.5,1.3.2,2.4.4,3.3.7.9.3,1.6.7,2.3,1.4.6.7,1,1.6,1,2.8s-.3,1.9-.9,2.7c-.6.8-1.5,1.4-2.7,1.9-1.2.5-2.6.7-4.3.7s-2.7-.2-4-.5Z"/>
  </g>
  <g>
    <circle class="st3" cx="724.1" cy="188.1" r="62.4"/>
    <circle class="st13" cx="724.1" cy="188.1" r="52.3"/>
    <g>
      <path class="st15" d="M754.1,187.9l-6-2-4.8-9.6c-1.1-2.2-3.2-3.5-5.6-3.5h-4.9v-3.2c0-5.3-4.3-9.6-9.6-9.6h-24c-5.2,0-9.4,4.2-9.4,9.4v34.3c0,3.5,2.8,6.3,6.3,6.3h3.6c1.3,3.7,4.7,6.3,8.8,6.3s7.5-2.6,8.8-6.3h13c.2,0,.4,0,.5,0h0c1.3,3.7,4.7,6.3,8.8,6.3s7.5-2.6,8.8-6.3h3.6c3.5,0,6.2-2.8,6.2-6.3v-11.6c0-2.4-1.9-4.3-4.3-4.3h0ZM708.3,210.3c-1.7,0-3.1-1.4-3.1-3.1s1.4-3.1,3.1-3.1,3.1,1.4,3.1,3.1-1.4,3.1-3.1,3.1ZM727,204.2h-10c-1.3-3.6-4.8-6.2-8.9-6.2s-7.6,2.6-8.8,6.2h-3.7v-34c0-1.7,1.4-3.1,3.1-3.1h25.1c1.7,0,3.1,1.4,3.1,3.1v34.1h0ZM739.6,210.3c-1.7,0-3.1-1.4-3.1-3.1s1.4-3.1,3.1-3.1,3.1,1.4,3.1,3.1-1.4,3.1-3.1,3.1ZM752.6,204.2h-3.6c-1.3-3.7-4.7-6.4-8.8-6.4s-4.5.9-6.2,2.5v-21.6h4.3l4.7,9.9c.7,1.5,2.1,2.7,3.6,3.2l6,2.1v10.5h0Z"/>
      <path class="st19" d="M720,181.5c0,1.6-1.3,2.9-2.9,2.9h-2.9v2.9c0,1.6-1.3,2.9-2.9,2.9s-2.9-1.3-2.9-2.9v-2.9h-2.7c-1.4,0-2.7-.8-3-2.2-.5-1.9,1-3.6,2.8-3.6h2.9v-2.7c0-1.4.8-2.7,2.2-3,1.9-.5,3.6,1,3.6,2.8v2.9h2.9c1.6,0,2.9,1.3,2.9,2.9h0Z"/>
    </g>
  </g>
  <g class="st1">
    <path class="st13" d="M804.3,152.6h-6.3v-4.6h18.5v4.6h-6.3v16h-5.8v-16Z"/>
    <path class="st13" d="M825.7,152.9c.9-.4,2-.5,3.1-.5v5c-.5,0-.9,0-1.3,0-1.2,0-2.1.3-2.8,1-.7.6-1,1.6-1,3v7.3h-5.6v-16h5.3v1.9c.6-.7,1.3-1.3,2.2-1.6Z"/>
    <path class="st13" d="M843.9,154.2c1.4,1.2,2.1,3.1,2.1,5.6v8.9h-5.2v-2.1c-.8,1.6-2.4,2.3-4.7,2.3s-2.3-.2-3.2-.6-1.6-1-2-1.8c-.5-.7-.7-1.6-.7-2.5,0-1.5.6-2.7,1.7-3.5,1.2-.8,2.9-1.3,5.4-1.3h3.2c0-1.7-1.2-2.5-3.4-2.5s-1.5.1-2.3.4-1.5.6-2,1l-1.9-3.8c.9-.6,2-1,3.2-1.4,1.3-.3,2.5-.5,3.8-.5,2.7,0,4.7.6,6.1,1.8ZM839.3,164.9c.5-.3.8-.8,1.1-1.4v-1.4h-2.4c-1.6,0-2.4.5-2.4,1.6s.2.9.6,1.2.9.4,1.5.4,1.2-.2,1.7-.5Z"/>
    <path class="st13" d="M851.4,168.4c-1.3-.3-2.3-.7-3.1-1.2l1.7-3.8c.7.5,1.6.8,2.6,1.1s2,.4,3,.4,1.5,0,1.9-.3c.4-.2.6-.5.6-.8s-.2-.6-.7-.8c-.5-.1-1.2-.3-2.2-.4-1.3-.2-2.4-.4-3.3-.6-.9-.3-1.7-.7-2.3-1.4-.6-.7-1-1.7-1-2.9s.3-1.9.9-2.7c.6-.8,1.5-1.4,2.7-1.9,1.2-.5,2.6-.7,4.2-.7s2.3.1,3.5.4c1.1.2,2.1.6,2.9,1l-1.7,3.8c-1.4-.8-3-1.2-4.6-1.2s-1.5.1-1.9.3-.6.5-.6.8.2.6.7.8c.5.1,1.2.3,2.2.5,1.3.2,2.4.4,3.3.7.9.3,1.6.7,2.3,1.4.6.7,1,1.6,1,2.8s-.3,1.9-.9,2.7c-.6.8-1.5,1.4-2.7,1.9-1.2.5-2.6.7-4.3.7s-2.7-.2-4-.5Z"/>
    <path class="st13" d="M865.7,146.7h5.6v21.9h-5.6v-21.9Z"/>
    <path class="st13" d="M887.8,154.2c1.4,1.2,2.1,3.1,2.1,5.6v8.9h-5.2v-2.1c-.8,1.6-2.4,2.3-4.7,2.3s-2.3-.2-3.2-.6-1.6-1-2-1.8c-.5-.7-.7-1.6-.7-2.5,0-1.5.6-2.7,1.7-3.5,1.2-.8,2.9-1.3,5.4-1.3h3.2c0-1.7-1.2-2.5-3.4-2.5s-1.5.1-2.3.4-1.5.6-2,1l-1.9-3.8c.9-.6,2-1,3.2-1.4,1.3-.3,2.5-.5,3.8-.5,2.7,0,4.7.6,6.1,1.8ZM883.2,164.9c.5-.3.8-.8,1.1-1.4v-1.4h-2.4c-1.6,0-2.4.5-2.4,1.6s.2.9.6,1.2.9.4,1.5.4,1.2-.2,1.7-.5Z"/>
    <path class="st13" d="M910.6,146.7v21.9h-5.3v-1.6c-1,1.2-2.6,1.9-4.7,1.9s-2.8-.3-4-1c-1.2-.7-2.1-1.6-2.8-2.9-.7-1.3-1-2.7-1-4.4s.3-3.1,1-4.4c.7-1.2,1.6-2.2,2.8-2.9,1.2-.7,2.5-1,4-1s3.4.6,4.4,1.7v-7.3h5.6ZM904.2,163.4c.6-.7.9-1.6.9-2.8s-.3-2.1-.9-2.8-1.4-1-2.4-1-1.8.3-2.4,1c-.6.7-.9,1.6-.9,2.8s.3,2.1.9,2.8c.6.7,1.4,1,2.4,1s1.8-.3,2.4-1Z"/>
    <path class="st13" d="M917.6,167.8c-1.4-.7-2.5-1.7-3.2-2.9s-1.2-2.7-1.2-4.3.4-3,1.2-4.2,1.8-2.2,3.2-2.9c1.4-.7,2.9-1,4.6-1s3.3.3,4.7,1c1.4.7,2.4,1.7,3.2,2.9.8,1.2,1.2,2.7,1.2,4.3s-.4,3-1.2,4.3c-.8,1.3-1.8,2.2-3.2,2.9-1.4.7-2.9,1.1-4.7,1.1s-3.3-.4-4.6-1.1ZM924.7,163.4c.6-.7.9-1.6.9-2.8s-.3-2.1-.9-2.8c-.6-.7-1.4-1-2.4-1s-1.8.3-2.4,1c-.6.7-.9,1.6-.9,2.8s.3,2.1.9,2.8c.6.7,1.4,1,2.4,1s1.8-.3,2.4-1Z"/>
    <path class="st13" d="M935.8,168.4c-1.3-.3-2.3-.7-3.1-1.2l1.7-3.8c.7.5,1.6.8,2.6,1.1s2,.4,3,.4,1.5,0,1.9-.3c.4-.2.6-.5.6-.8s-.2-.6-.7-.8c-.5-.1-1.2-.3-2.2-.4-1.3-.2-2.4-.4-3.3-.6-.9-.3-1.7-.7-2.3-1.4-.6-.7-1-1.7-1-2.9s.3-1.9.9-2.7c.6-.8,1.5-1.4,2.7-1.9,1.2-.5,2.6-.7,4.2-.7s2.3.1,3.5.4c1.1.2,2.1.6,2.9,1l-1.7,3.8c-1.4-.8-3-1.2-4.6-1.2s-1.5.1-1.9.3-.6.5-.6.8.2.6.7.8c.5.1,1.2.3,2.2.5,1.3.2,2.4.4,3.3.7.9.3,1.6.7,2.3,1.4.6.7,1,1.6,1,2.8s-.3,1.9-.9,2.7c-.6.8-1.5,1.4-2.7,1.9-1.2.5-2.6.7-4.3.7s-2.7-.2-4-.5Z"/>
    <path class="st13" d="M974.9,162h-11.6c.2.8.7,1.5,1.4,1.9.7.4,1.5.7,2.6.7s1.4-.1,2-.3c.6-.2,1.1-.6,1.7-1.1l3,3.1c-1.6,1.7-3.8,2.6-6.8,2.6s-3.5-.4-4.9-1.1-2.5-1.7-3.3-2.9-1.2-2.7-1.2-4.3.4-3,1.1-4.2c.8-1.2,1.8-2.2,3.1-2.9,1.3-.7,2.8-1.1,4.5-1.1s3,.3,4.3,1,2.3,1.6,3.1,2.9c.8,1.2,1.1,2.7,1.1,4.4s0,.5,0,1.4ZM964.3,157.1c-.6.5-1,1.2-1.1,2h6.5c-.2-.8-.5-1.5-1.1-2-.6-.5-1.3-.7-2.2-.7s-1.6.2-2.2.7Z"/>
    <path class="st13" d="M992.8,154.1c1.2,1.2,1.8,3,1.8,5.3v9.1h-5.6v-8.2c0-2.2-.9-3.3-2.6-3.3s-1.7.3-2.3.9c-.6.6-.9,1.6-.9,2.8v7.7h-5.6v-16h5.3v1.7c.6-.6,1.4-1.1,2.2-1.5.9-.3,1.8-.5,2.8-.5,2,0,3.6.6,4.8,1.8Z"/>
  </g>
  <g class="st1">
    <path class="st13" d="M1019.8,164.6h-8.7l-1.6,4h-6l9.1-20.7h5.8l9.1,20.7h-6.1l-1.6-4ZM1018.1,160.3l-2.7-6.6-2.7,6.6h5.3Z"/>
    <path class="st13" d="M1054.4,154.1c1.2,1.2,1.8,3,1.8,5.3v9.1h-5.6v-8.2c0-1.1-.2-1.9-.6-2.5s-1-.8-1.8-.8-1.5.3-2,.9c-.5.6-.8,1.5-.8,2.7v7.9h-5.6v-8.2c0-2.2-.8-3.3-2.4-3.3s-1.6.3-2.1.9c-.5.6-.8,1.5-.8,2.7v7.9h-5.6v-16h5.3v1.7c.6-.6,1.3-1.1,2.1-1.5.8-.3,1.7-.5,2.7-.5s2.1.2,3,.6c.9.4,1.6,1,2.2,1.9.6-.8,1.4-1.4,2.4-1.9,1-.4,2-.6,3.2-.6,2,0,3.5.6,4.7,1.8Z"/>
    <path class="st13" d="M1073.7,153.4c1.2.7,2.1,1.6,2.8,2.9.7,1.2,1,2.7,1,4.4s-.3,3.1-1,4.4c-.7,1.3-1.6,2.2-2.8,2.9-1.2.7-2.5,1-4,1-2.1,0-3.7-.6-4.7-1.9v1.6h-5.3v-21.9h5.6v7.3c1.1-1.1,2.6-1.7,4.5-1.7s2.8.3,4,1ZM1071,163.4c.6-.7.9-1.6.9-2.8s-.3-2.1-.9-2.8-1.4-1-2.4-1-1.8.3-2.4,1c-.6.7-.9,1.6-.9,2.8s.3,2.1.9,2.8c.6.7,1.4,1,2.4,1s1.8-.3,2.4-1Z"/>
    <path class="st13" d="M1097,152.6v16h-5.3v-1.7c-.6.6-1.3,1.1-2.1,1.5s-1.7.5-2.6.5c-2.1,0-3.7-.6-4.9-1.8s-1.8-3-1.8-5.5v-8.9h5.6v8c0,1.2.2,2.1.7,2.6.5.6,1.1.8,2,.8s1.6-.3,2.2-.9.8-1.6.8-2.8v-7.7h5.6Z"/>
    <path class="st13" d="M1100.6,146.7h5.6v21.9h-5.6v-21.9Z"/>
    <path class="st13" d="M1122.8,154.2c1.4,1.2,2.1,3.1,2.1,5.6v8.9h-5.2v-2.1c-.8,1.6-2.4,2.3-4.7,2.3s-2.3-.2-3.2-.6-1.6-1-2-1.8c-.5-.7-.7-1.6-.7-2.5,0-1.5.6-2.7,1.7-3.5,1.2-.8,2.9-1.3,5.4-1.3h3.2c0-1.7-1.2-2.5-3.4-2.5s-1.5.1-2.3.4-1.5.6-2,1l-1.9-3.8c.9-.6,2-1,3.2-1.4,1.3-.3,2.5-.5,3.8-.5,2.7,0,4.7.6,6.1,1.8ZM1118.2,164.9c.5-.3.8-.8,1.1-1.4v-1.4h-2.4c-1.6,0-2.4.5-2.4,1.6s.2.9.6,1.2.9.4,1.5.4,1.2-.2,1.7-.5Z"/>
    <path class="st13" d="M1143.6,154.1c1.2,1.2,1.8,3,1.8,5.3v9.1h-5.6v-8.2c0-2.2-.9-3.3-2.6-3.3s-1.7.3-2.3.9c-.6.6-.9,1.6-.9,2.8v7.7h-5.6v-16h5.3v1.7c.6-.6,1.4-1.1,2.2-1.5.9-.3,1.8-.5,2.8-.5,2,0,3.6.6,4.8,1.8Z"/>
    <path class="st13" d="M1152.6,167.8c-1.4-.7-2.5-1.7-3.3-2.9s-1.2-2.7-1.2-4.3.4-3,1.2-4.3,1.9-2.2,3.3-2.9,3-1,4.8-1,3.4.4,4.7,1.2c1.3.8,2.3,1.9,2.8,3.2l-4.3,2.2c-.7-1.4-1.8-2.2-3.2-2.2s-1.8.3-2.5,1c-.7.7-1,1.6-1,2.8s.3,2.1,1,2.8c.7.7,1.5,1,2.5,1s2.5-.7,3.2-2.2l4.3,2.2c-.6,1.4-1.5,2.5-2.8,3.2-1.3.8-2.9,1.2-4.7,1.2s-3.4-.4-4.8-1.1Z"/>
    <path class="st13" d="M1167.3,150c-.6-.6-.9-1.3-.9-2.1s.3-1.6.9-2.1c.6-.6,1.5-.9,2.5-.9s1.8.3,2.5.8c.6.5.9,1.2.9,2.1s-.3,1.6-.9,2.2c-.6.6-1.5.9-2.5.9s-1.8-.3-2.5-.9ZM1167,152.6h5.6v16h-5.6v-16Z"/>
    <path class="st13" d="M1189.1,154.2c1.4,1.2,2.1,3.1,2.1,5.6v8.9h-5.2v-2.1c-.8,1.6-2.4,2.3-4.7,2.3s-2.3-.2-3.2-.6-1.6-1-2-1.8c-.5-.7-.7-1.6-.7-2.5,0-1.5.6-2.7,1.7-3.5,1.2-.8,2.9-1.3,5.4-1.3h3.2c0-1.7-1.2-2.5-3.4-2.5s-1.5.1-2.3.4-1.5.6-2,1l-1.9-3.8c.9-.6,2-1,3.2-1.4,1.3-.3,2.5-.5,3.8-.5,2.7,0,4.7.6,6.1,1.8ZM1184.5,164.9c.5-.3.8-.8,1.1-1.4v-1.4h-2.4c-1.6,0-2.4.5-2.4,1.6s.2.9.6,1.2.9.4,1.5.4,1.2-.2,1.7-.5Z"/>
    <path class="st13" d="M1194.7,158.1c-.6-.6-1-1.4-1-2.4s.3-1.8,1-2.4c.6-.6,1.4-.9,2.4-.9s1.8.3,2.4.9c.6.6.9,1.4.9,2.4s-.3,1.8-1,2.4c-.6.6-1.4.9-2.4.9s-1.7-.3-2.4-.9ZM1194.7,167.9c-.6-.6-1-1.4-1-2.4s.3-1.8,1-2.4,1.4-.9,2.4-.9,1.8.3,2.4.9c.6.6.9,1.4.9,2.4s-.3,1.8-1,2.4c-.6.6-1.4.9-2.4.9s-1.7-.3-2.4-.9Z"/>
  </g>
  <g class="st1">
    <path class="st13" d="M810.1,191.1h-6.3v-4.6h18.5v4.6h-6.3v16h-5.8v-16Z"/>
    <path class="st13" d="M838.8,200.6h-11.6c.2.8.7,1.5,1.4,1.9.7.4,1.5.7,2.6.7s1.4-.1,2-.3c.6-.2,1.1-.6,1.7-1.1l3,3.1c-1.6,1.7-3.8,2.6-6.8,2.6s-3.5-.4-4.9-1.1-2.5-1.7-3.3-3-1.2-2.7-1.2-4.3.4-3,1.1-4.2c.8-1.2,1.8-2.2,3.1-2.9,1.3-.7,2.8-1.1,4.5-1.1s3,.3,4.3,1,2.3,1.6,3.1,2.9,1.1,2.7,1.1,4.4,0,.5,0,1.4ZM828.2,195.6c-.6.5-1,1.2-1.1,2h6.5c-.2-.8-.5-1.5-1.1-2-.6-.5-1.3-.7-2.2-.7s-1.6.2-2.2.7Z"/>
    <path class="st13" d="M849.1,191.5c.9-.4,2-.5,3.1-.5v5c-.5,0-.9,0-1.3,0-1.2,0-2.1.3-2.8,1-.7.6-1,1.6-1,3v7.3h-5.6v-16h5.3v1.9c.6-.7,1.3-1.3,2.2-1.6Z"/>
    <path class="st13" d="M862.1,191.5c.9-.4,2-.5,3.1-.5v5c-.5,0-.9,0-1.3,0-1.2,0-2.1.3-2.8,1-.7.6-1,1.6-1,3v7.3h-5.6v-16h5.3v1.9c.6-.7,1.3-1.3,2.2-1.6Z"/>
    <path class="st13" d="M883.7,200.6h-11.6c.2.8.7,1.5,1.4,1.9.7.4,1.5.7,2.6.7s1.4-.1,2-.3c.6-.2,1.1-.6,1.7-1.1l3,3.1c-1.6,1.7-3.8,2.6-6.8,2.6s-3.5-.4-4.9-1.1-2.5-1.7-3.3-3-1.2-2.7-1.2-4.3.4-3,1.1-4.2c.8-1.2,1.8-2.2,3.1-2.9,1.3-.7,2.8-1.1,4.5-1.1s3,.3,4.3,1,2.3,1.6,3.1,2.9,1.1,2.7,1.1,4.4,0,.5,0,1.4ZM873,195.6c-.6.5-1,1.2-1.1,2h6.5c-.2-.8-.5-1.5-1.1-2-.6-.5-1.3-.7-2.2-.7s-1.6.2-2.2.7Z"/>
    <path class="st13" d="M888.2,207c-1.3-.3-2.3-.7-3.1-1.2l1.7-3.8c.7.5,1.6.8,2.6,1.1s2,.4,3,.4,1.5,0,1.9-.3c.4-.2.6-.5.6-.8s-.2-.6-.7-.8c-.5-.1-1.2-.3-2.2-.4-1.3-.2-2.4-.4-3.3-.6-.9-.3-1.7-.7-2.3-1.4-.6-.7-1-1.7-1-2.9s.3-1.9.9-2.7c.6-.8,1.5-1.4,2.7-1.9,1.2-.5,2.6-.7,4.2-.7s2.3.1,3.5.4c1.1.2,2.1.6,2.9,1l-1.7,3.8c-1.4-.8-3-1.2-4.6-1.2s-1.5.1-1.9.3c-.4.2-.6.5-.6.8s.2.6.7.8c.5.1,1.2.3,2.2.5,1.3.2,2.4.4,3.3.7.9.3,1.6.7,2.3,1.4.6.7,1,1.6,1,2.8s-.3,1.9-.9,2.7c-.6.8-1.5,1.4-2.7,1.9-1.2.5-2.6.7-4.3.7s-2.7-.2-4-.5Z"/>
    <path class="st13" d="M913.5,206.5c-.5.3-1,.5-1.7.7-.7.2-1.4.2-2.2.2-2.1,0-3.7-.5-4.8-1.5-1.1-1-1.7-2.5-1.7-4.6v-5.4h-2.3v-4.2h2.3v-4.2h5.6v4.2h3.7v4.2h-3.7v5.3c0,.6.2,1,.5,1.3.3.3.7.5,1.2.5s1.2-.2,1.7-.5l1.4,3.9Z"/>
    <path class="st13" d="M923.2,191.5c.9-.4,2-.5,3.1-.5v5c-.5,0-.9,0-1.3,0-1.2,0-2.1.3-2.8,1-.7.6-1,1.6-1,3v7.3h-5.6v-16h5.3v1.9c.6-.7,1.3-1.3,2.2-1.6Z"/>
    <path class="st13" d="M944.8,200.6h-11.6c.2.8.7,1.5,1.4,1.9.7.4,1.5.7,2.6.7s1.4-.1,2-.3c.6-.2,1.1-.6,1.7-1.1l3,3.1c-1.6,1.7-3.8,2.6-6.8,2.6s-3.5-.4-4.9-1.1-2.5-1.7-3.3-3-1.2-2.7-1.2-4.3.4-3,1.1-4.2c.8-1.2,1.8-2.2,3.1-2.9,1.3-.7,2.8-1.1,4.5-1.1s3,.3,4.3,1,2.3,1.6,3.1,2.9,1.1,2.7,1.1,4.4,0,.5,0,1.4ZM934.2,195.6c-.6.5-1,1.2-1.1,2h6.5c-.2-.8-.5-1.5-1.1-2-.6-.5-1.3-.7-2.2-.7s-1.6.2-2.2.7Z"/>
    <path class="st13" d="M959.4,206.4c-1.4-.7-2.5-1.7-3.2-3s-1.2-2.7-1.2-4.3.4-3,1.2-4.2,1.8-2.2,3.2-2.9c1.4-.7,2.9-1,4.6-1s3.3.4,4.7,1c1.4.7,2.4,1.7,3.2,2.9.8,1.2,1.2,2.7,1.2,4.3s-.4,3-1.2,4.3c-.8,1.3-1.8,2.2-3.2,3-1.4.7-2.9,1.1-4.7,1.1s-3.3-.4-4.6-1.1ZM966.5,202c.6-.7.9-1.6.9-2.8s-.3-2.1-.9-2.8c-.6-.7-1.4-1-2.4-1s-1.8.3-2.4,1c-.6.7-.9,1.6-.9,2.8s.3,2.1.9,2.8c.6.7,1.4,1,2.4,1s1.8-.3,2.4-1Z"/>
    <path class="st13" d="M998.4,203.2h-8.7l-1.6,4h-6l9.1-20.7h5.8l9.1,20.7h-6.1l-1.6-4ZM996.7,198.9l-2.7-6.6-2.7,6.6h5.3Z"/>
    <path class="st13" d="M1023.6,200.6h-11.6c.2.8.7,1.5,1.4,1.9.7.4,1.5.7,2.6.7s1.4-.1,2-.3c.6-.2,1.1-.6,1.7-1.1l3,3.1c-1.6,1.7-3.8,2.6-6.8,2.6s-3.5-.4-4.9-1.1-2.5-1.7-3.3-3-1.2-2.7-1.2-4.3.4-3,1.1-4.2c.8-1.2,1.8-2.2,3.1-2.9,1.3-.7,2.8-1.1,4.5-1.1s3,.3,4.3,1,2.3,1.6,3.1,2.9,1.1,2.7,1.1,4.4,0,.5,0,1.4ZM1013,195.6c-.6.5-1,1.2-1.1,2h6.5c-.2-.8-.5-1.5-1.1-2-.6-.5-1.3-.7-2.2-.7s-1.6.2-2.2.7ZM1016.1,184.8h5.6l-5.5,4.5h-4l4-4.5Z"/>
    <path class="st13" d="M1033.8,191.5c.9-.4,2-.5,3.1-.5v5c-.5,0-.9,0-1.3,0-1.2,0-2.1.3-2.8,1-.7.6-1,1.6-1,3v7.3h-5.6v-16h5.3v1.9c.6-.7,1.3-1.3,2.2-1.6Z"/>
    <path class="st13" d="M1055.4,200.6h-11.6c.2.8.7,1.5,1.4,1.9.7.4,1.5.7,2.6.7s1.4-.1,2-.3c.6-.2,1.1-.6,1.7-1.1l3,3.1c-1.6,1.7-3.8,2.6-6.8,2.6s-3.5-.4-4.9-1.1-2.5-1.7-3.3-3-1.2-2.7-1.2-4.3.4-3,1.1-4.2c.8-1.2,1.8-2.2,3.1-2.9,1.3-.7,2.8-1.1,4.5-1.1s3,.3,4.3,1,2.3,1.6,3.1,2.9,1.1,2.7,1.1,4.4,0,.5,0,1.4ZM1044.8,195.6c-.6.5-1,1.2-1.1,2h6.5c-.2-.8-.5-1.5-1.1-2-.6-.5-1.3-.7-2.2-.7s-1.6.2-2.2.7Z"/>
    <path class="st13" d="M1070.5,192.7c1.4,1.2,2.1,3.1,2.1,5.6v8.9h-5.2v-2.1c-.8,1.6-2.4,2.3-4.7,2.3s-2.3-.2-3.2-.6-1.6-1-2-1.8c-.5-.7-.7-1.6-.7-2.5,0-1.5.6-2.7,1.7-3.5,1.2-.8,2.9-1.3,5.4-1.3h3.2c0-1.7-1.2-2.5-3.4-2.5s-1.5.1-2.3.4-1.5.6-2,1l-1.9-3.8c.9-.6,2-1,3.2-1.4,1.3-.3,2.5-.5,3.8-.5,2.7,0,4.7.6,6.1,1.8ZM1066,203.4c.5-.3.8-.8,1.1-1.4v-1.4h-2.4c-1.6,0-2.4.5-2.4,1.6s.2.9.6,1.2.9.4,1.5.4,1.2-.2,1.7-.5Z"/>
  </g>
  <g>
    <circle class="st6" cx="776.4" cy="325.8" r="62.4"/>
    <circle class="st13" cx="776.4" cy="325.8" r="52.3"/>
    <g>
      <path class="st17" d="M801.3,307.2h-9.3v-3.5c0-5.1-4.2-9.3-9.3-9.3h-12.8c-5.1,0-9.3,4.2-9.3,9.3v3.5h-9.3c-5.1,0-9.3,4.2-9.3,9.3v31.4c0,5.1,4.2,9.3,9.3,9.3h50c5.1,0,9.3-4.2,9.3-9.3v-31.4c0-5.1-4.2-9.3-9.3-9.3h0ZM766.5,304.3c0-1.6,1.4-2.9,3.1-2.9h12.4c1.7,0,3.1,1.4,3.1,3.1v2.7h-18.6v-2.9h0ZM754.9,350.2h-2.7c-1.7,0-3.1-1.4-3.1-3.1v-31c0-1.7,1.4-3.1,3.1-3.1h2.7v37.2h0ZM792.1,350.2h-31.4v-37.2h31.4v37.2ZM800.6,350.2h-2.7v-37.2h2.7c1.7,0,3.1,1.4,3.1,3.1v31c0,1.7-1.4,3.1-3.1,3.1h0Z"/>
      <path class="st21" d="M782,335.1h-2.7v2.7c0,1.5-1.1,3-2.6,3.1-1.7.2-3.2-1.2-3.2-2.9v-2.9h-2.7c-1.4,0-2.7-.8-3-2.2-.5-1.9,1-3.6,2.8-3.6h2.9v-2.7c0-1.4.8-2.7,2.2-3,1.9-.5,3.6,1,3.6,2.8v2.9h2.9c1.8,0,3.3,1.7,2.8,3.6-.3,1.3-1.6,2.2-3,2.2h0Z"/>
    </g>
  </g>
  <g>
    <circle class="st4" cx="705.1" cy="462.6" r="62.4"/>
    <circle class="st13" cx="705.1" cy="462.6" r="52.3"/>
    <path class="st20" d="M721,430.8c-6.4,0-11.2,1.7-16.1,5.9-4.9-4.2-9.7-5.9-16.1-5.9-12.8,0-23.2,10.4-23.2,23.2s1.9,10,4.6,13.9c0,0,0,.1.1.2.1.3.4.6.6.9,0,0,0,0,0,0,1.9,2.7,4.1,5,6.4,7.2l25,25c.7.7,1.6,1,2.5,1s1.8-.4,2.5-1l25-25c2.2-2.2,4.5-4.5,6.4-7.2,0,0,0,0,0-.1.2-.2.4-.5.5-.8,2.8-4.1,4.8-8.7,4.8-14.2,0-12.8-10.4-23.2-23.2-23.2h.1ZM727.9,470.6h-.4l-22.5,23.1-22.5-22.6c-.3-.3-1-1.7-1-1.7h14.5c.3,0,.7,0,1-.1l4.8,10.8c.6,1.3,1.9,2.2,3.3,2.2h0c1.5-.1,2.9-1.2,3.3-2.7l4.5-15.7,1.4,3.3c.6,1.3,1.9,2.2,3.4,2.2h11.3c-.3.4-.7.7-1,1.1h0ZM734.8,462.5h-15l-4.4-9.8c-.6-1.4-2-2.3-3.5-2.2-1.5.1-2.8,1.1-3.2,2.6l-4.4,15.6-3.2-7.1c-.5-1.2-1.8-2.1-3.2-2.1-1.3,0-2.7.7-3.3,2l-.8,2.3h-18.3c-1.7-3.4-2.8-6.3-2.8-9.6,0-8.9,7.2-16.1,16.1-16.1s9,1.6,13.6,6.1c1.4,1.4,3.7,1.4,5.1,0,4.5-4.5,8-6.1,13.6-6.1,8.9,0,16.1,7.2,16.1,16.1s-1.1,6.2-2.3,8.9v-.5h0Z"/>
  </g>
  <g>
    <circle class="st2" cx="561.2" cy="529.4" r="62.4"/>
    <circle class="st13" cx="561.3" cy="529.4" r="52.3" transform="translate(-210 552) rotate(-45)"/>
    <g>
      <path class="st22" d="M584.6,561.9h-46c-5.4,0-9.8-4.4-9.8-9.8v-45.5c0-5.4,4.4-9.8,9.8-9.8h45.5c5.4,0,9.8,4.4,9.8,9.8v45.6c0,5.4-4.2,9.8-9.3,9.8h0ZM538.1,503.3c-1.4,0-2.3,3.3-2.3,3.3v45.1c0,1.8,1.5,3.3,3.3,3.3h45.8c1.8,0,3.3-1.4,3.3-3.3v-45.8c0-1.8-1.5-3.3-3.3-3.3h-46.7v.6h0Z"/>
      <path class="st8" d="M564.6,549.2h-.3c-1.4-.1-2.6-1.2-2.9-2.6l-4.4-21.8-2.5,6.1c-.5,1.2-1.7,2.1-3,2.1h-6.5c-1.3,0-2.5-.7-3-1.9-1.2-2.6.6-5.1,3.1-5.1h4.2l5.7-14c.5-1.3,1.9-2.2,3.3-2.1,1.4.1,2.6,1.2,2.9,2.6l4.4,21.8,2.5-6.1c.5-1.2,3-1.1,3-1.1h6.5s3.3.5,3.3,2.3-3.3,3.5-3.3,3.5h-4.3l-5.7,14.2c-.5,1.2-1.7,2.1-3,2.1h0Z"/>
    </g>
  </g>
  <g class="st1">
    <path class="st13" d="M512.2,646.7c-1.6-.4-2.9-1-3.8-1.7l1.9-4.3c.9.6,2,1.1,3.2,1.5,1.2.4,2.4.6,3.6.6,2.2,0,3.4-.6,3.4-1.7s-.3-1-1-1.3c-.6-.3-1.7-.6-3.1-.9-1.6-.3-2.9-.7-3.9-1.1-1-.4-1.9-1-2.7-1.8-.7-.8-1.1-2-1.1-3.4s.3-2.4,1-3.4c.7-1,1.7-1.8,3.1-2.4,1.4-.6,3-.9,5-.9s2.7.2,4,.5c1.3.3,2.5.8,3.5,1.3l-1.8,4.3c-2-1.1-3.9-1.6-5.7-1.6s-2,.2-2.5.5c-.5.3-.8.8-.8,1.3s.3,1,.9,1.2,1.6.6,3,.9c1.6.3,2.9.7,3.9,1.1s1.9,1,2.7,1.8c.8.8,1.1,2,1.1,3.4s-.3,2.4-1,3.4-1.7,1.8-3.1,2.4c-1.4.6-3,.9-5,.9s-3.3-.2-4.9-.6Z"/>
    <path class="st13" d="M541.6,632.5c1.4,1.2,2.1,3.1,2.1,5.6v8.9h-5.2v-2.1c-.8,1.6-2.4,2.3-4.7,2.3s-2.3-.2-3.2-.6-1.6-1-2.1-1.8c-.5-.7-.7-1.6-.7-2.5,0-1.5.6-2.7,1.7-3.5,1.2-.8,3-1.3,5.4-1.3h3.2c0-1.7-1.2-2.5-3.4-2.5s-1.5.1-2.3.4c-.8.2-1.5.6-2,1l-1.9-3.8c.9-.6,2-1,3.2-1.4s2.5-.5,3.8-.5c2.7,0,4.7.6,6.1,1.8ZM537,643.2c.5-.3.8-.8,1.1-1.4v-1.4h-2.4c-1.6,0-2.4.5-2.4,1.6s.2.9.6,1.2c.4.3.9.4,1.5.4s1.2-.2,1.7-.5Z"/>
    <path class="st13" d="M547.2,625h5.6v21.9h-5.6v-21.9Z"/>
    <path class="st13" d="M569.3,632.5c1.4,1.2,2.1,3.1,2.1,5.6v8.9h-5.2v-2.1c-.8,1.6-2.4,2.3-4.7,2.3s-2.3-.2-3.2-.6-1.6-1-2.1-1.8c-.5-.7-.7-1.6-.7-2.5,0-1.5.6-2.7,1.7-3.5,1.2-.8,3-1.3,5.4-1.3h3.2c0-1.7-1.2-2.5-3.4-2.5s-1.5.1-2.3.4c-.8.2-1.5.6-2,1l-1.9-3.8c.9-.6,2-1,3.2-1.4s2.5-.5,3.8-.5c2.7,0,4.7.6,6.1,1.8ZM564.8,643.2c.5-.3.8-.8,1.1-1.4v-1.4h-2.4c-1.6,0-2.4.5-2.4,1.6s.2.9.6,1.2c.4.3.9.4,1.5.4s1.2-.2,1.7-.5Z"/>
    <path class="st13" d="M600.5,625v21.9h-5.3v-1.6c-1,1.2-2.6,1.9-4.7,1.9s-2.8-.3-4-1c-1.2-.7-2.1-1.6-2.8-2.9-.7-1.3-1-2.7-1-4.4s.3-3.1,1-4.4,1.6-2.2,2.8-2.9c1.2-.7,2.5-1,4-1s3.4.6,4.4,1.7v-7.3h5.6ZM594.1,641.7c.6-.7.9-1.6.9-2.8s-.3-2.1-.9-2.8c-.6-.7-1.4-1-2.4-1s-1.8.3-2.4,1-.9,1.6-.9,2.8.3,2.1.9,2.8c.6.7,1.4,1,2.4,1s1.8-.3,2.4-1Z"/>
    <path class="st13" d="M620.4,640.3h-11.6c.2.8.7,1.5,1.4,1.9.7.4,1.5.7,2.6.7s1.4-.1,2-.3c.6-.2,1.1-.6,1.7-1.1l3,3.1c-1.6,1.7-3.8,2.6-6.8,2.6s-3.5-.4-4.9-1.1-2.5-1.7-3.3-2.9c-.8-1.3-1.2-2.7-1.2-4.3s.4-3,1.1-4.2c.8-1.2,1.8-2.2,3.1-2.9,1.3-.7,2.8-1.1,4.5-1.1s3,.3,4.3,1,2.3,1.6,3.1,2.9c.8,1.3,1.1,2.7,1.1,4.4s0,.5,0,1.4ZM609.8,635.4c-.6.5-1,1.2-1.1,2h6.5c-.2-.8-.5-1.5-1.1-2-.6-.5-1.3-.7-2.2-.7s-1.6.2-2.2.7Z"/>
  </g>
  <g class="st1">
    <path class="st13" d="M475,681.4c-1.7-.9-3.1-2.2-4.1-3.8-1-1.6-1.5-3.5-1.5-5.5s.5-3.9,1.5-5.5c1-1.6,2.4-2.9,4.1-3.8,1.7-.9,3.7-1.4,5.9-1.4s4.1.5,5.9,1.4c1.7.9,3.1,2.2,4.1,3.8,1,1.6,1.5,3.5,1.5,5.5s-.5,3.9-1.5,5.5c-1,1.6-2.4,2.9-4.1,3.8-1.7.9-3.7,1.4-5.9,1.4s-4.1-.5-5.9-1.4ZM483.7,677.2c.8-.5,1.5-1.2,2-2.1.5-.9.7-1.9.7-3.1s-.2-2.2-.7-3.1-1.2-1.6-2-2.1c-.8-.5-1.8-.7-2.8-.7s-2,.2-2.8.7c-.8.5-1.5,1.2-2,2.1-.5.9-.7,1.9-.7,3.1s.2,2.2.7,3.1c.5.9,1.2,1.6,2,2.1.8.5,1.8.7,2.8.7s2-.2,2.8-.7Z"/>
    <path class="st13" d="M509.2,667.1c1.2.7,2.1,1.6,2.8,2.9.7,1.2,1,2.7,1,4.3s-.3,3.1-1,4.4c-.7,1.3-1.6,2.2-2.8,2.9-1.2.7-2.5,1-4,1s-3.4-.6-4.5-1.7v7.1h-5.6v-21.7h5.3v1.6c1-1.2,2.6-1.9,4.7-1.9s2.8.3,4,1ZM506.4,677.1c.6-.7.9-1.6.9-2.8s-.3-2.1-.9-2.8c-.6-.7-1.4-1-2.4-1s-1.8.3-2.4,1c-.6.7-.9,1.6-.9,2.8s.3,2.1.9,2.8c.6.7,1.4,1,2.4,1s1.8-.3,2.4-1Z"/>
    <path class="st13" d="M531.9,675.8h-11.6c.2.8.7,1.5,1.4,1.9.7.4,1.5.7,2.6.7s1.4-.1,2-.3c.6-.2,1.1-.6,1.7-1.1l3,3.1c-1.6,1.7-3.8,2.6-6.8,2.6s-3.5-.4-4.9-1.1c-1.4-.7-2.5-1.7-3.3-2.9-.8-1.3-1.2-2.7-1.2-4.3s.4-3,1.1-4.2c.8-1.2,1.8-2.2,3.1-2.9,1.3-.7,2.8-1.1,4.5-1.1s3,.3,4.3,1,2.3,1.6,3.1,2.9c.8,1.3,1.1,2.7,1.1,4.4s0,.5,0,1.4ZM521.3,670.8c-.6.5-.9,1.2-1.1,2h6.5c-.2-.8-.5-1.5-1.1-2-.6-.5-1.3-.7-2.2-.7s-1.6.2-2.2.7Z"/>
    <path class="st13" d="M542.2,666.6c.9-.4,2-.5,3.1-.5v5c-.5,0-.9,0-1.3,0-1.2,0-2.1.3-2.8,1-.7.6-1,1.6-1,3v7.3h-5.6v-16h5.3v1.9c.6-.7,1.3-1.3,2.2-1.6Z"/>
    <path class="st13" d="M560.4,667.9c1.4,1.2,2.1,3.1,2.1,5.6v8.9h-5.2v-2.1c-.8,1.6-2.4,2.3-4.7,2.3s-2.3-.2-3.2-.6-1.6-1-2.1-1.8c-.5-.7-.7-1.6-.7-2.5,0-1.5.6-2.7,1.7-3.5,1.2-.8,3-1.3,5.4-1.3h3.2c0-1.7-1.2-2.5-3.4-2.5s-1.5.1-2.3.4c-.8.2-1.5.6-2,1l-1.9-3.8c.9-.6,2-1,3.2-1.4s2.5-.5,3.8-.5c2.7,0,4.7.6,6.1,1.8ZM555.8,678.6c.5-.3.8-.8,1.1-1.4v-1.4h-2.4c-1.6,0-2.4.5-2.4,1.6s.2.9.6,1.2c.4.3.9.4,1.5.4s1.2-.2,1.7-.5Z"/>
    <path class="st13" d="M569.7,681.5c-1.4-.7-2.5-1.7-3.3-2.9-.8-1.3-1.2-2.7-1.2-4.3s.4-3,1.2-4.3c.8-1.2,1.9-2.2,3.3-2.9,1.4-.7,3-1,4.8-1s3.4.4,4.7,1.2c1.3.8,2.3,1.9,2.8,3.2l-4.3,2.2c-.7-1.4-1.8-2.2-3.2-2.2s-1.8.3-2.5,1c-.7.7-1,1.6-1,2.8s.3,2.1,1,2.8c.7.7,1.5,1,2.5,1s2.5-.7,3.2-2.2l4.3,2.2c-.6,1.4-1.5,2.5-2.8,3.2-1.3.8-2.9,1.2-4.7,1.2s-3.4-.4-4.8-1.1Z"/>
    <path class="st13" d="M584.4,663.7c-.6-.6-.9-1.3-.9-2.1s.3-1.6.9-2.1,1.5-.9,2.5-.9,1.8.3,2.5.8c.6.5.9,1.2.9,2.1s-.3,1.6-.9,2.2c-.6.6-1.5.9-2.5.9s-1.8-.3-2.5-.9ZM584,666.3h5.6v16h-5.6v-16Z"/>
    <path class="st13" d="M596.7,681.5c-1.4-.7-2.5-1.7-3.2-2.9-.8-1.3-1.2-2.7-1.2-4.3s.4-3,1.2-4.2c.8-1.3,1.8-2.2,3.2-2.9,1.4-.7,2.9-1,4.6-1s3.3.4,4.7,1c1.4.7,2.4,1.7,3.2,2.9.8,1.2,1.2,2.7,1.2,4.3s-.4,3-1.2,4.3c-.8,1.3-1.8,2.2-3.2,2.9-1.4.7-2.9,1.1-4.7,1.1s-3.3-.4-4.6-1.1ZM603.7,677.1c.6-.7.9-1.6.9-2.8s-.3-2.1-.9-2.8c-.6-.7-1.4-1-2.4-1s-1.8.3-2.4,1c-.6.7-.9,1.6-.9,2.8s.3,2.1.9,2.8c.6.7,1.4,1,2.4,1s1.8-.3,2.4-1Z"/>
    <path class="st13" d="M628.1,667.9c1.2,1.2,1.8,3,1.8,5.3v9.1h-5.6v-8.2c0-2.2-.9-3.3-2.6-3.3s-1.7.3-2.3.9c-.6.6-.9,1.6-.9,2.8v7.7h-5.6v-16h5.3v1.7c.6-.6,1.4-1.1,2.2-1.5s1.8-.5,2.8-.5c2,0,3.6.6,4.8,1.8Z"/>
    <path class="st13" d="M650,675.8h-11.6c.2.8.7,1.5,1.4,1.9.7.4,1.5.7,2.6.7s1.4-.1,2-.3c.6-.2,1.1-.6,1.7-1.1l3,3.1c-1.6,1.7-3.8,2.6-6.8,2.6s-3.5-.4-4.9-1.1-2.5-1.7-3.3-2.9c-.8-1.3-1.2-2.7-1.2-4.3s.4-3,1.1-4.2c.8-1.2,1.8-2.2,3.1-2.9,1.3-.7,2.8-1.1,4.5-1.1s3,.3,4.3,1,2.3,1.6,3.1,2.9c.8,1.3,1.1,2.7,1.1,4.4s0,.5,0,1.4ZM639.3,670.8c-.6.5-1,1.2-1.1,2h6.5c-.2-.8-.5-1.5-1.1-2-.6-.5-1.3-.7-2.2-.7s-1.6.2-2.2.7Z"/>
    <path class="st13" d="M654.5,682.1c-1.3-.3-2.3-.7-3.1-1.2l1.7-3.8c.7.5,1.6.8,2.6,1.1,1,.3,2,.4,3,.4s1.5,0,1.9-.3c.4-.2.6-.5.6-.8s-.2-.6-.7-.8c-.5-.1-1.2-.3-2.2-.4-1.3-.2-2.4-.4-3.3-.6-.9-.3-1.7-.7-2.3-1.4-.6-.7-1-1.7-1-2.9s.3-1.9.9-2.7c.6-.8,1.5-1.4,2.7-1.9,1.2-.5,2.6-.7,4.2-.7s2.3.1,3.5.4c1.1.2,2.1.6,2.9,1l-1.7,3.8c-1.4-.8-3-1.2-4.6-1.2s-1.5.1-1.9.3c-.4.2-.6.5-.6.8s.2.6.7.8c.5.1,1.2.3,2.2.5,1.3.2,2.4.4,3.3.7.9.3,1.6.7,2.3,1.4.6.7,1,1.6,1,2.8s-.3,1.9-.9,2.7c-.6.8-1.5,1.4-2.7,1.9-1.2.5-2.6.7-4.3.7s-2.7-.2-4-.5Z"/>
  </g>
  <g>
    <g>
      <g>
        <circle class="st13" cx="561.3" cy="322.7" r="71"/>
        <path class="st12" d="M589.6,326.2c0,17.7-12.4,26.5-27.1,31.7-.8.3-1.6.2-2.4,0-14.7-5.1-27.1-13.9-27.1-31.6v-24.8c0-.9.4-1.9,1-2.5.7-.7,1.5-1,2.5-1,7.1,0,15.9-4.2,22.1-9.6.7-.6,1.7-1,2.7-1s2,.3,2.7,1c6.2,5.4,15,9.6,22.1,9.6s1.9.4,2.5,1,1,1.5,1,2.5v24.8h0Z"/>
        <path class="st9" d="M550.6,322.7l7.1,7.1,14.2-14.2"/>
      </g>
      <circle class="st11" cx="561.3" cy="322.7" r="62.8"/>
    </g>
    <circle class="st13" cx="561.2" cy="409.4" r="7"/>
    <circle class="st13" cx="561.2" cy="453.9" r="7"/>
    <circle class="st13" cx="625.3" cy="376.3" r="7"/>
    <circle class="st13" cx="495.1" cy="378.1" r="7"/>
    <circle class="st13" cx="472.7" cy="323.4" r="7"/>
    <circle class="st13" cx="645.5" cy="323.4" r="7"/>
    <circle class="st13" cx="625.3" cy="266.5" r="7"/>
    <circle class="st13" cx="666.8" cy="238.4" r="7"/>
    <circle class="st13" cx="453.3" cy="238.4" r="7"/>
    <circle class="st13" cx="490.3" cy="266.5" r="7"/>
    <path class="st10" d="M701.5,323.4h-53.7"/>
    <path class="st10" d="M473.1,323.4h-53.7"/>
    <path class="st10" d="M491.8,268.6l-42-33.6"/>
    <path class="st10" d="M666.4,235l-42,33.6"/>
    <path class="st10" d="M620.5,373.8l42,33.6"/>
    <path class="st10" d="M455.2,410.5l42-33.6"/>
    <circle class="st13" cx="700.7" cy="323.4" r="7"/>
    <circle class="st13" cx="419.2" cy="323.4" r="7"/>
    <circle class="st13" cx="659.8" cy="405.6" r="7"/>
    <circle class="st13" cx="460.3" cy="407.4" r="7"/>
    <line class="st10" x1="561.9" y1="409.4" x2="561.9" y2="453.9"/>
  </g>
  <g>
    <path class="st13" d="M776.6,496.9h-6.3v-4.6h18.5v4.6h-6.3v16h-5.8v-16Z"/>
    <path class="st13" d="M798,497.2c.9-.4,2-.5,3.1-.5v5c-.5,0-.9,0-1.3,0-1.2,0-2.1.3-2.8,1-.7.6-1,1.6-1,3v7.3h-5.6v-16h5.3v1.9c.6-.7,1.3-1.3,2.2-1.6Z"/>
    <path class="st13" d="M816.2,498.4c1.4,1.2,2.1,3.1,2.1,5.6v8.9h-5.2v-2.1c-.8,1.6-2.4,2.3-4.7,2.3s-2.3-.2-3.2-.6-1.6-1-2-1.8c-.5-.7-.7-1.6-.7-2.5,0-1.5.6-2.7,1.7-3.5,1.2-.8,2.9-1.3,5.4-1.3h3.2c0-1.7-1.2-2.5-3.4-2.5s-1.5.1-2.3.4-1.5.6-2,1l-1.9-3.8c.9-.6,2-1,3.2-1.4,1.3-.3,2.5-.5,3.8-.5,2.7,0,4.7.6,6.1,1.8ZM811.6,509.1c.5-.3.8-.8,1.1-1.4v-1.4h-2.4c-1.6,0-2.4.5-2.4,1.6s.2.9.6,1.2.9.4,1.5.4,1.2-.2,1.7-.5Z"/>
    <path class="st13" d="M832.8,512.2c-.5.3-1,.5-1.7.7s-1.4.2-2.2.2c-2.1,0-3.7-.5-4.8-1.5-1.1-1-1.7-2.5-1.7-4.6v-5.4h-2.3v-4.2h2.3v-4.2h5.6v4.2h3.7v4.2h-3.7v5.3c0,.6.2,1,.5,1.3s.7.5,1.2.5,1.2-.2,1.7-.5l1.4,3.9Z"/>
    <path class="st13" d="M847.9,498.4c1.4,1.2,2.1,3.1,2.1,5.6v8.9h-5.2v-2.1c-.8,1.6-2.4,2.3-4.7,2.3s-2.3-.2-3.2-.6-1.6-1-2-1.8c-.5-.7-.7-1.6-.7-2.5,0-1.5.6-2.7,1.7-3.5,1.2-.8,2.9-1.3,5.4-1.3h3.2c0-1.7-1.2-2.5-3.4-2.5s-1.5.1-2.3.4-1.5.6-2,1l-1.9-3.8c.9-.6,2-1,3.2-1.4,1.3-.3,2.5-.5,3.8-.5,2.7,0,4.7.6,6.1,1.8ZM843.3,509.1c.5-.3.8-.8,1.1-1.4v-1.4h-2.4c-1.6,0-2.4.5-2.4,1.6s.2.9.6,1.2.9.4,1.5.4,1.2-.2,1.7-.5Z"/>
    <path class="st13" d="M879.1,498.4c1.2,1.2,1.8,3,1.8,5.3v9.1h-5.6v-8.2c0-1.1-.2-1.9-.6-2.5s-1-.8-1.8-.8-1.5.3-2,.9c-.5.6-.8,1.5-.8,2.7v7.9h-5.6v-8.2c0-2.2-.8-3.3-2.4-3.3s-1.6.3-2.1.9-.8,1.5-.8,2.7v7.9h-5.6v-16h5.3v1.7c.6-.6,1.3-1.1,2.1-1.5.8-.3,1.7-.5,2.7-.5s2.1.2,3,.6c.9.4,1.6,1,2.2,1.9.6-.8,1.4-1.4,2.4-1.9s2-.6,3.2-.6c2,0,3.5.6,4.7,1.8Z"/>
    <path class="st13" d="M884.7,494.3c-.6-.6-.9-1.3-.9-2.1s.3-1.6.9-2.1c.6-.6,1.5-.9,2.5-.9s1.8.3,2.5.8c.6.5.9,1.2.9,2.1s-.3,1.6-.9,2.2c-.6.6-1.5.9-2.5.9s-1.8-.3-2.5-.9ZM884.4,496.9h5.6v16h-5.6v-16Z"/>
    <path class="st13" d="M909.9,506.3h-11.6c.2.8.7,1.5,1.4,1.9.7.4,1.5.7,2.6.7s1.4-.1,2-.3c.6-.2,1.1-.6,1.7-1.1l3,3.1c-1.6,1.7-3.8,2.6-6.8,2.6s-3.5-.4-4.9-1.1-2.5-1.7-3.3-2.9c-.8-1.3-1.2-2.7-1.2-4.3s.4-3,1.1-4.2c.8-1.2,1.8-2.2,3.1-2.9,1.3-.7,2.8-1.1,4.5-1.1s3,.3,4.3,1,2.3,1.6,3.1,2.9c.8,1.3,1.1,2.7,1.1,4.4s0,.5,0,1.4ZM899.2,501.3c-.6.5-1,1.2-1.1,2h6.5c-.2-.8-.5-1.5-1.1-2-.6-.5-1.3-.7-2.2-.7s-1.6.2-2.2.7Z"/>
    <path class="st13" d="M927.7,498.4c1.2,1.2,1.8,3,1.8,5.3v9.1h-5.6v-8.2c0-2.2-.9-3.3-2.6-3.3s-1.7.3-2.3.9c-.6.6-.9,1.6-.9,2.8v7.7h-5.6v-16h5.3v1.7c.6-.6,1.4-1.1,2.2-1.5s1.8-.5,2.8-.5c2,0,3.6.6,4.8,1.8Z"/>
    <path class="st13" d="M944.1,512.2c-.5.3-1,.5-1.7.7s-1.4.2-2.2.2c-2.1,0-3.7-.5-4.8-1.5-1.1-1-1.7-2.5-1.7-4.6v-5.4h-2.3v-4.2h2.3v-4.2h5.6v4.2h3.7v4.2h-3.7v5.3c0,.6.2,1,.5,1.3s.7.5,1.2.5,1.2-.2,1.7-.5l1.4,3.9Z"/>
    <path class="st13" d="M949.2,512.1c-1.4-.7-2.5-1.7-3.2-2.9-.8-1.3-1.2-2.7-1.2-4.3s.4-3,1.2-4.2c.8-1.3,1.8-2.2,3.2-2.9,1.4-.7,2.9-1,4.6-1s3.3.4,4.7,1c1.4.7,2.4,1.7,3.2,2.9.8,1.2,1.2,2.7,1.2,4.3s-.4,3-1.2,4.3c-.8,1.3-1.8,2.2-3.2,2.9-1.4.7-2.9,1.1-4.7,1.1s-3.3-.4-4.6-1.1ZM956.2,507.7c.6-.7.9-1.6.9-2.8s-.3-2.1-.9-2.8c-.6-.7-1.4-1-2.4-1s-1.8.3-2.4,1c-.6.7-.9,1.6-.9,2.8s.3,2.1.9,2.8c.6.7,1.4,1,2.4,1s1.8-.3,2.4-1Z"/>
    <path class="st13" d="M991,491v21.9h-5.3v-1.6c-1,1.2-2.6,1.9-4.7,1.9s-2.8-.3-4-1c-1.2-.7-2.1-1.6-2.8-2.9-.7-1.3-1-2.7-1-4.4s.3-3.1,1-4.4c.7-1.2,1.6-2.2,2.8-2.9,1.2-.7,2.5-1,4-1s3.4.6,4.4,1.7v-7.3h5.6ZM984.6,507.7c.6-.7.9-1.6.9-2.8s-.3-2.1-.9-2.8-1.4-1-2.4-1-1.8.3-2.4,1c-.6.7-.9,1.6-.9,2.8s.3,2.1.9,2.8c.6.7,1.4,1,2.4,1s1.8-.3,2.4-1Z"/>
    <path class="st13" d="M1010.9,506.3h-11.6c.2.8.7,1.5,1.4,1.9.7.4,1.5.7,2.6.7s1.4-.1,2-.3c.6-.2,1.1-.6,1.7-1.1l3,3.1c-1.6,1.7-3.8,2.6-6.8,2.6s-3.5-.4-4.9-1.1-2.5-1.7-3.3-2.9c-.8-1.3-1.2-2.7-1.2-4.3s.4-3,1.1-4.2c.8-1.2,1.8-2.2,3.1-2.9,1.3-.7,2.8-1.1,4.5-1.1s3,.3,4.3,1,2.3,1.6,3.1,2.9c.8,1.3,1.1,2.7,1.1,4.4s0,.5,0,1.4ZM1000.3,501.3c-.6.5-1,1.2-1.1,2h6.5c-.2-.8-.5-1.5-1.1-2-.6-.5-1.3-.7-2.2-.7s-1.6.2-2.2.7Z"/>
    <path class="st13" d="M1013.5,502.3c-.6-.6-1-1.4-1-2.4s.3-1.8,1-2.4c.6-.6,1.4-.9,2.4-.9s1.8.3,2.4.9c.6.6.9,1.4.9,2.4s-.3,1.8-1,2.4c-.6.6-1.4.9-2.4.9s-1.7-.3-2.4-.9ZM1013.5,512.2c-.6-.6-1-1.4-1-2.4s.3-1.8,1-2.4,1.4-.9,2.4-.9,1.8.3,2.4.9c.6.6.9,1.4.9,2.4s-.3,1.8-1,2.4-1.4.9-2.4.9-1.7-.3-2.4-.9Z"/>
    <path class="st13" d="M781.3,542.8h-3.2v5.5h-5.8v-20.7h9.4c1.9,0,3.5.3,4.9.9s2.4,1.5,3.2,2.7c.7,1.2,1.1,2.5,1.1,4.1s-.3,2.8-1,3.9c-.7,1.1-1.7,2-3,2.6l4.5,6.5h-6.3l-3.7-5.5ZM784,533c-.6-.5-1.5-.8-2.7-.8h-3.2v6h3.2c1.2,0,2.1-.3,2.7-.8.6-.5.9-1.3.9-2.2s-.3-1.7-.9-2.2Z"/>
    <path class="st13" d="M806.6,533.8c1.4,1.2,2.1,3.1,2.1,5.6v8.9h-5.2v-2.1c-.8,1.6-2.4,2.3-4.7,2.3s-2.3-.2-3.2-.6-1.6-1-2-1.8c-.5-.7-.7-1.6-.7-2.5,0-1.5.6-2.7,1.7-3.5s2.9-1.3,5.4-1.3h3.2c0-1.7-1.2-2.5-3.4-2.5s-1.5.1-2.3.4-1.5.6-2,1l-1.9-3.8c.9-.6,2-1,3.2-1.4,1.3-.3,2.5-.5,3.8-.5,2.7,0,4.7.6,6.1,1.8ZM802,544.5c.5-.3.8-.8,1.1-1.4v-1.4h-2.4c-1.6,0-2.4.5-2.4,1.6s.2.9.6,1.2c.4.3.9.4,1.5.4s1.2-.2,1.7-.5Z"/>
    <path class="st13" d="M829.4,526.4v21.9h-5.3v-1.6c-1,1.2-2.6,1.9-4.7,1.9s-2.8-.3-4-1c-1.2-.7-2.1-1.6-2.8-2.9-.7-1.3-1-2.7-1-4.4s.3-3.1,1-4.4c.7-1.2,1.6-2.2,2.8-2.9,1.2-.7,2.5-1,4-1s3.4.5,4.4,1.7v-7.3h5.6ZM823,543.1c.6-.7.9-1.6.9-2.8s-.3-2.1-.9-2.8-1.4-1-2.4-1-1.8.3-2.4,1c-.6.7-.9,1.6-.9,2.8s.3,2.1.9,2.8c.6.7,1.4,1,2.4,1s1.8-.3,2.4-1Z"/>
    <path class="st13" d="M833.4,529.7c-.6-.6-.9-1.3-.9-2.1s.3-1.6.9-2.1c.6-.6,1.5-.9,2.5-.9s1.8.3,2.5.8c.6.5.9,1.2.9,2.1s-.3,1.6-.9,2.2c-.6.6-1.5.9-2.5.9s-1.8-.3-2.5-.9ZM833,532.3h5.6v16h-5.6v-16Z"/>
    <path class="st13" d="M845.7,547.5c-1.4-.7-2.5-1.7-3.2-2.9-.8-1.3-1.2-2.7-1.2-4.3s.4-3,1.2-4.2c.8-1.3,1.8-2.2,3.2-2.9,1.4-.7,2.9-1,4.6-1s3.3.3,4.7,1c1.4.7,2.4,1.7,3.2,2.9.8,1.3,1.2,2.7,1.2,4.3s-.4,3-1.2,4.3c-.8,1.3-1.8,2.2-3.2,2.9-1.4.7-2.9,1.1-4.7,1.1s-3.3-.4-4.6-1.1ZM852.7,543.1c.6-.7.9-1.6.9-2.8s-.3-2.1-.9-2.8c-.6-.7-1.4-1-2.4-1s-1.8.3-2.4,1c-.6.7-.9,1.6-.9,2.8s.3,2.1.9,2.8c.6.7,1.4,1,2.4,1s1.8-.3,2.4-1Z"/>
    <path class="st13" d="M872.9,547.6c-.5.3-1,.5-1.7.7-.7.2-1.4.2-2.2.2-2.1,0-3.7-.5-4.8-1.5-1.1-1-1.7-2.5-1.7-4.6v-5.4h-2.3v-4.2h2.3v-4.2h5.6v4.2h3.7v4.2h-3.7v5.3c0,.6.2,1,.5,1.3.3.3.7.5,1.2.5s1.2-.2,1.7-.5l1.4,3.9Z"/>
    <path class="st13" d="M890.9,541.7h-11.6c.2.8.7,1.5,1.4,1.9.7.4,1.5.7,2.6.7s1.4-.1,2-.3c.6-.2,1.1-.6,1.7-1.1l3,3.1c-1.6,1.7-3.8,2.6-6.8,2.6s-3.5-.4-4.9-1.1-2.5-1.7-3.3-2.9c-.8-1.3-1.2-2.7-1.2-4.3s.4-3,1.1-4.2c.8-1.2,1.8-2.2,3.1-2.9,1.3-.7,2.8-1.1,4.5-1.1s3,.3,4.3,1c1.3.7,2.3,1.6,3.1,2.9s1.1,2.7,1.1,4.4,0,.5,0,1.4ZM880.3,536.7c-.6.5-1,1.2-1.1,2h6.5c-.2-.8-.5-1.5-1.1-2-.6-.5-1.3-.7-2.2-.7s-1.6.2-2.2.7Z"/>
    <path class="st13" d="M901.1,532.6c.9-.4,2-.5,3.1-.5v5c-.5,0-.9,0-1.3,0-1.2,0-2.1.3-2.8,1-.7.6-1,1.6-1,3v7.3h-5.6v-16h5.3v1.9c.6-.7,1.3-1.3,2.2-1.6Z"/>
    <path class="st13" d="M919.4,533.8c1.4,1.2,2.1,3.1,2.1,5.6v8.9h-5.2v-2.1c-.8,1.6-2.4,2.3-4.7,2.3s-2.3-.2-3.2-.6-1.6-1-2-1.8c-.5-.7-.7-1.6-.7-2.5,0-1.5.6-2.7,1.7-3.5s2.9-1.3,5.4-1.3h3.2c0-1.7-1.2-2.5-3.4-2.5s-1.5.1-2.3.4-1.5.6-2,1l-1.9-3.8c.9-.6,2-1,3.2-1.4,1.3-.3,2.5-.5,3.8-.5,2.7,0,4.7.6,6.1,1.8ZM914.8,544.5c.5-.3.8-.8,1.1-1.4v-1.4h-2.4c-1.6,0-2.4.5-2.4,1.6s.2.9.6,1.2c.4.3.9.4,1.5.4s1.2-.2,1.7-.5Z"/>
    <path class="st13" d="M939,533c1.2.7,2.1,1.6,2.8,2.9.7,1.3,1,2.7,1,4.4s-.3,3.1-1,4.4c-.7,1.2-1.6,2.2-2.8,2.9s-2.5,1-4,1-3.4-.6-4.5-1.7v7.1h-5.6v-21.7h5.3v1.6c1-1.2,2.6-1.9,4.7-1.9s2.8.3,4,1ZM936.3,543.1c.6-.7.9-1.6.9-2.8s-.3-2.1-.9-2.8-1.4-1-2.4-1-1.8.3-2.4,1c-.6.7-.9,1.6-.9,2.8s.3,2.1.9,2.8c.6.7,1.4,1,2.4,1s1.8-.3,2.4-1Z"/>
    <path class="st13" d="M945.8,529.7c-.6-.6-.9-1.3-.9-2.1s.3-1.6.9-2.1c.6-.6,1.5-.9,2.5-.9s1.8.3,2.5.8c.6.5.9,1.2.9,2.1s-.3,1.6-.9,2.2c-.6.6-1.5.9-2.5.9s-1.8-.3-2.5-.9ZM945.5,532.3h5.6v16h-5.6v-16Z"/>
    <path class="st13" d="M967.6,533.8c1.4,1.2,2.1,3.1,2.1,5.6v8.9h-5.2v-2.1c-.8,1.6-2.4,2.3-4.7,2.3s-2.3-.2-3.2-.6-1.6-1-2-1.8c-.5-.7-.7-1.6-.7-2.5,0-1.5.6-2.7,1.7-3.5s2.9-1.3,5.4-1.3h3.2c0-1.7-1.2-2.5-3.4-2.5s-1.5.1-2.3.4-1.5.6-2,1l-1.9-3.8c.9-.6,2-1,3.2-1.4,1.3-.3,2.5-.5,3.8-.5,2.7,0,4.7.6,6.1,1.8ZM963.1,544.5c.5-.3.8-.8,1.1-1.4v-1.4h-2.4c-1.6,0-2.4.5-2.4,1.6s.2.9.6,1.2c.4.3.9.4,1.5.4s1.2-.2,1.7-.5Z"/>
    <path class="st13" d="M980.1,523.4h5l-9.7,27.8h-5l9.7-27.8Z"/>
    <path class="st13" d="M985.8,527.6h5.8v20.7h-5.8v-20.7Z"/>
    <path class="st13" d="M1010.7,533.8c1.2,1.2,1.8,3,1.8,5.3v9.1h-5.6v-8.2c0-2.2-.9-3.3-2.6-3.3s-1.7.3-2.3.9c-.6.6-.9,1.6-.9,2.8v7.7h-5.6v-16h5.3v1.7c.6-.6,1.4-1.1,2.2-1.5.9-.3,1.8-.5,2.8-.5,2,0,3.6.6,4.8,1.8Z"/>
    <path class="st13" d="M1031.2,533.8c1.2,1.2,1.8,3,1.8,5.3v9.1h-5.6v-8.2c0-2.2-.9-3.3-2.6-3.3s-1.7.3-2.3.9c-.6.6-.9,1.6-.9,2.8v7.7h-5.6v-21.9h5.6v7.4c.6-.6,1.3-1,2.2-1.3.8-.3,1.7-.4,2.7-.4,2,0,3.6.6,4.8,1.8Z"/>
    <path class="st13" d="M1049.5,533.8c1.4,1.2,2.1,3.1,2.1,5.6v8.9h-5.2v-2.1c-.8,1.6-2.4,2.3-4.7,2.3s-2.3-.2-3.2-.6-1.6-1-2-1.8c-.5-.7-.7-1.6-.7-2.5,0-1.5.6-2.7,1.7-3.5s2.9-1.3,5.4-1.3h3.2c0-1.7-1.2-2.5-3.4-2.5s-1.5.1-2.3.4-1.5.6-2,1l-1.9-3.8c.9-.6,2-1,3.2-1.4,1.3-.3,2.5-.5,3.8-.5,2.7,0,4.7.6,6.1,1.8ZM1044.9,544.5c.5-.3.8-.8,1.1-1.4v-1.4h-2.4c-1.6,0-2.4.5-2.4,1.6s.2.9.6,1.2c.4.3.9.4,1.5.4s1.2-.2,1.7-.5Z"/>
    <path class="st13" d="M1055.1,526.4h5.6v21.9h-5.6v-21.9Z"/>
    <path class="st13" d="M1067.7,547.5c-1.4-.7-2.5-1.7-3.2-2.9-.8-1.3-1.2-2.7-1.2-4.3s.4-3,1.2-4.2c.8-1.3,1.8-2.2,3.2-2.9,1.4-.7,2.9-1,4.6-1s3.3.3,4.7,1c1.4.7,2.4,1.7,3.2,2.9.8,1.3,1.2,2.7,1.2,4.3s-.4,3-1.2,4.3c-.8,1.3-1.8,2.2-3.2,2.9-1.4.7-2.9,1.1-4.7,1.1s-3.3-.4-4.6-1.1ZM1074.8,543.1c.6-.7.9-1.6.9-2.8s-.3-2.1-.9-2.8c-.6-.7-1.4-1-2.4-1s-1.8.3-2.4,1c-.6.7-.9,1.6-.9,2.8s.3,2.1.9,2.8c.6.7,1.4,1,2.4,1s1.8-.3,2.4-1Z"/>
    <path class="st13" d="M1095,547.6c-.5.3-1,.5-1.7.7-.7.2-1.4.2-2.2.2-2.1,0-3.7-.5-4.8-1.5-1.1-1-1.7-2.5-1.7-4.6v-5.4h-2.3v-4.2h2.3v-4.2h5.6v4.2h3.7v4.2h-3.7v5.3c0,.6.2,1,.5,1.3.3.3.7.5,1.2.5s1.2-.2,1.7-.5l1.4,3.9Z"/>
    <path class="st13" d="M1113,541.7h-11.6c.2.8.7,1.5,1.4,1.9.7.4,1.5.7,2.6.7s1.4-.1,2-.3c.6-.2,1.1-.6,1.7-1.1l3,3.1c-1.6,1.7-3.8,2.6-6.8,2.6s-3.5-.4-4.9-1.1-2.5-1.7-3.3-2.9c-.8-1.3-1.2-2.7-1.2-4.3s.4-3,1.1-4.2c.8-1.2,1.8-2.2,3.1-2.9,1.3-.7,2.8-1.1,4.5-1.1s3,.3,4.3,1c1.3.7,2.3,1.6,3.1,2.9s1.1,2.7,1.1,4.4,0,.5,0,1.4ZM1102.4,536.7c-.6.5-1,1.2-1.1,2h6.5c-.2-.8-.5-1.5-1.1-2-.6-.5-1.3-.7-2.2-.7s-1.6.2-2.2.7Z"/>
    <path class="st13" d="M1123.2,532.6c.9-.4,2-.5,3.1-.5v5c-.5,0-.9,0-1.3,0-1.2,0-2.1.3-2.8,1-.7.6-1,1.6-1,3v7.3h-5.6v-16h5.3v1.9c.6-.7,1.3-1.3,2.2-1.6Z"/>
    <path class="st13" d="M1141.4,533.8c1.4,1.2,2.1,3.1,2.1,5.6v8.9h-5.2v-2.1c-.8,1.6-2.4,2.3-4.7,2.3s-2.3-.2-3.2-.6-1.6-1-2-1.8c-.5-.7-.7-1.6-.7-2.5,0-1.5.6-2.7,1.7-3.5s2.9-1.3,5.4-1.3h3.2c0-1.7-1.2-2.5-3.4-2.5s-1.5.1-2.3.4-1.5.6-2,1l-1.9-3.8c.9-.6,2-1,3.2-1.4,1.3-.3,2.5-.5,3.8-.5,2.7,0,4.7.6,6.1,1.8ZM1136.9,544.5c.5-.3.8-.8,1.1-1.4v-1.4h-2.4c-1.6,0-2.4.5-2.4,1.6s.2.9.6,1.2c.4.3.9.4,1.5.4s1.2-.2,1.7-.5Z"/>
    <path class="st13" d="M1161.1,533c1.2.7,2.1,1.6,2.8,2.9.7,1.3,1,2.7,1,4.4s-.3,3.1-1,4.4c-.7,1.2-1.6,2.2-2.8,2.9s-2.5,1-4,1-3.4-.6-4.5-1.7v7.1h-5.6v-21.7h5.3v1.6c1-1.2,2.6-1.9,4.7-1.9s2.8.3,4,1ZM1158.4,543.1c.6-.7.9-1.6.9-2.8s-.3-2.1-.9-2.8-1.4-1-2.4-1-1.8.3-2.4,1c-.6.7-.9,1.6-.9,2.8s.3,2.1.9,2.8c.6.7,1.4,1,2.4,1s1.8-.3,2.4-1Z"/>
    <path class="st13" d="M1167.9,529.7c-.6-.6-.9-1.3-.9-2.1s.3-1.6.9-2.1c.6-.6,1.5-.9,2.5-.9s1.8.3,2.5.8c.6.5.9,1.2.9,2.1s-.3,1.6-.9,2.2c-.6.6-1.5.9-2.5.9s-1.8-.3-2.5-.9ZM1167.6,532.3h5.6v16h-5.6v-16Z"/>
    <path class="st13" d="M1189.7,533.8c1.4,1.2,2.1,3.1,2.1,5.6v8.9h-5.2v-2.1c-.8,1.6-2.4,2.3-4.7,2.3s-2.3-.2-3.2-.6-1.6-1-2-1.8c-.5-.7-.7-1.6-.7-2.5,0-1.5.6-2.7,1.7-3.5s2.9-1.3,5.4-1.3h3.2c0-1.7-1.2-2.5-3.4-2.5s-1.5.1-2.3.4-1.5.6-2,1l-1.9-3.8c.9-.6,2-1,3.2-1.4,1.3-.3,2.5-.5,3.8-.5,2.7,0,4.7.6,6.1,1.8ZM1185.1,544.5c.5-.3.8-.8,1.1-1.4v-1.4h-2.4c-1.6,0-2.4.5-2.4,1.6s.2.9.6,1.2c.4.3.9.4,1.5.4s1.2-.2,1.7-.5Z"/>
    <path class="st13" d="M778.1,567.5v4.5h9.1v4.5h-9.1v7.1h-5.8v-20.7h16.2v4.5h-10.4Z"/>
    <path class="st13" d="M791,565.1c-.6-.6-.9-1.3-.9-2.1s.3-1.6.9-2.1c.6-.6,1.5-.9,2.5-.9s1.8.3,2.5.8c.6.5.9,1.2.9,2.1s-.3,1.6-.9,2.2c-.6.6-1.5.9-2.5.9s-1.8-.3-2.5-.9ZM790.6,567.7h5.6v16h-5.6v-16Z"/>
    <path class="st13" d="M801.7,583.5c-1.3-.3-2.3-.7-3.1-1.2l1.7-3.8c.7.5,1.6.8,2.6,1.1,1,.3,2,.4,3,.4s1.5,0,1.9-.3c.4-.2.6-.5.6-.8s-.2-.6-.7-.8c-.5-.1-1.2-.3-2.2-.4-1.3-.2-2.4-.4-3.3-.6-.9-.3-1.7-.7-2.3-1.4-.6-.7-1-1.7-1-2.9s.3-1.9.9-2.7c.6-.8,1.5-1.4,2.7-1.9,1.2-.5,2.6-.7,4.2-.7s2.3.1,3.5.4c1.1.2,2.1.6,2.9,1l-1.7,3.8c-1.4-.8-3-1.2-4.6-1.2s-1.5.1-1.9.3c-.4.2-.6.5-.6.8s.2.6.7.8c.5.1,1.2.3,2.2.5,1.3.2,2.4.4,3.3.7.9.3,1.6.7,2.3,1.4.6.7,1,1.6,1,2.8s-.3,1.9-.9,2.7c-.6.8-1.5,1.4-2.7,1.9-1.2.5-2.6.7-4.3.7s-2.7-.2-4-.5Z"/>
    <path class="st13" d="M816.3,565.1c-.6-.6-.9-1.3-.9-2.1s.3-1.6.9-2.1c.6-.6,1.5-.9,2.5-.9s1.8.3,2.5.8c.6.5.9,1.2.9,2.1s-.3,1.6-.9,2.2c-.6.6-1.5.9-2.5.9s-1.8-.3-2.5-.9ZM816,567.7h5.6v16h-5.6v-16Z"/>
    <path class="st13" d="M828.6,582.9c-1.4-.7-2.5-1.7-3.2-2.9-.8-1.3-1.2-2.7-1.2-4.3s.4-3,1.2-4.2c.8-1.3,1.8-2.2,3.2-2.9,1.4-.7,2.9-1,4.6-1s3.3.4,4.7,1c1.4.7,2.4,1.7,3.2,2.9.8,1.2,1.2,2.7,1.2,4.3s-.4,3-1.2,4.3c-.8,1.3-1.8,2.2-3.2,2.9-1.4.7-2.9,1.1-4.7,1.1s-3.3-.4-4.6-1.1ZM835.7,578.5c.6-.7.9-1.6.9-2.8s-.3-2.1-.9-2.8c-.6-.7-1.4-1-2.4-1s-1.8.3-2.4,1c-.6.7-.9,1.6-.9,2.8s.3,2.1.9,2.8c.6.7,1.4,1,2.4,1s1.8-.3,2.4-1Z"/>
    <path class="st13" d="M855.9,583c-.5.3-1,.5-1.7.7s-1.4.2-2.2.2c-2.1,0-3.7-.5-4.8-1.5-1.1-1-1.7-2.5-1.7-4.6v-5.4h-2.3v-4.2h2.3v-4.2h5.6v4.2h3.7v4.2h-3.7v5.3c0,.6.2,1,.5,1.3s.7.5,1.2.5,1.2-.2,1.7-.5l1.4,3.9Z"/>
    <path class="st13" d="M873.9,577.1h-11.6c.2.8.7,1.5,1.4,1.9.7.4,1.5.7,2.6.7s1.4-.1,2-.3c.6-.2,1.1-.6,1.7-1.1l3,3.1c-1.6,1.7-3.8,2.6-6.8,2.6s-3.5-.4-4.9-1.1-2.5-1.7-3.3-2.9c-.8-1.3-1.2-2.7-1.2-4.3s.4-3,1.1-4.2c.8-1.2,1.8-2.2,3.1-2.9,1.3-.7,2.8-1.1,4.5-1.1s3,.3,4.3,1,2.3,1.6,3.1,2.9c.8,1.3,1.1,2.7,1.1,4.4s0,.5,0,1.4ZM863.3,572.1c-.6.5-1,1.2-1.1,2h6.5c-.2-.8-.5-1.5-1.1-2-.6-.5-1.3-.7-2.2-.7s-1.6.2-2.2.7Z"/>
    <path class="st13" d="M884.1,568c.9-.4,2-.5,3.1-.5v5c-.5,0-.9,0-1.3,0-1.2,0-2.1.3-2.8,1-.7.6-1,1.6-1,3v7.3h-5.6v-16h5.3v1.9c.6-.7,1.3-1.3,2.2-1.6Z"/>
    <path class="st13" d="M902.3,569.2c1.4,1.2,2.1,3.1,2.1,5.6v8.9h-5.2v-2.1c-.8,1.6-2.4,2.3-4.7,2.3s-2.3-.2-3.2-.6-1.6-1-2-1.8c-.5-.7-.7-1.6-.7-2.5,0-1.5.6-2.7,1.7-3.5,1.2-.8,2.9-1.3,5.4-1.3h3.2c0-1.7-1.2-2.5-3.4-2.5s-1.5.1-2.3.4-1.5.6-2,1l-1.9-3.8c.9-.6,2-1,3.2-1.4,1.3-.3,2.5-.5,3.8-.5,2.7,0,4.7.6,6.1,1.8ZM897.8,579.9c.5-.3.8-.8,1.1-1.4v-1.4h-2.4c-1.6,0-2.4.5-2.4,1.6s.2.9.6,1.2.9.4,1.5.4,1.2-.2,1.7-.5Z"/>
    <path class="st13" d="M922,568.4c1.2.7,2.1,1.6,2.8,2.9.7,1.2,1,2.7,1,4.3s-.3,3.1-1,4.4c-.7,1.3-1.6,2.2-2.8,2.9-1.2.7-2.5,1-4,1s-3.4-.6-4.5-1.7v7.1h-5.6v-21.7h5.3v1.6c1-1.2,2.6-1.9,4.7-1.9s2.8.3,4,1ZM919.3,578.5c.6-.7.9-1.6.9-2.8s-.3-2.1-.9-2.8c-.6-.7-1.4-1-2.4-1s-1.8.3-2.4,1c-.6.7-.9,1.6-.9,2.8s.3,2.1.9,2.8c.6.7,1.4,1,2.4,1s1.8-.3,2.4-1Z"/>
    <path class="st13" d="M928.8,565.1c-.6-.6-.9-1.3-.9-2.1s.3-1.6.9-2.1c.6-.6,1.5-.9,2.5-.9s1.8.3,2.5.8c.6.5.9,1.2.9,2.1s-.3,1.6-.9,2.2c-.6.6-1.5.9-2.5.9s-1.8-.3-2.5-.9ZM928.5,567.7h5.6v16h-5.6v-16Z"/>
    <path class="st13" d="M950.6,569.2c1.4,1.2,2.1,3.1,2.1,5.6v8.9h-5.2v-2.1c-.8,1.6-2.4,2.3-4.7,2.3s-2.3-.2-3.2-.6-1.6-1-2-1.8c-.5-.7-.7-1.6-.7-2.5,0-1.5.6-2.7,1.7-3.5,1.2-.8,2.9-1.3,5.4-1.3h3.2c0-1.7-1.2-2.5-3.4-2.5s-1.5.1-2.3.4-1.5.6-2,1l-1.9-3.8c.9-.6,2-1,3.2-1.4,1.3-.3,2.5-.5,3.8-.5,2.7,0,4.7.6,6.1,1.8ZM946,579.9c.5-.3.8-.8,1.1-1.4v-1.4h-2.4c-1.6,0-2.4.5-2.4,1.6s.2.9.6,1.2.9.4,1.5.4,1.2-.2,1.7-.5Z"/>
    <path class="st13" d="M963.1,558.8h5l-9.7,27.8h-5l9.7-27.8Z"/>
    <path class="st13" d="M991.1,586.1c-.7.8-1.5,1.5-2.5,1.9-1,.4-2.1.7-3.3.7s-2.2-.1-3.1-.4-1.9-.8-2.8-1.5c-.9-.7-2-1.6-3.1-2.8-1.8-.3-3.4-.9-4.8-1.9s-2.5-2.2-3.3-3.7c-.8-1.5-1.2-3.1-1.2-4.9s.5-3.9,1.5-5.5c1-1.6,2.4-2.9,4.1-3.8,1.7-.9,3.7-1.4,5.9-1.4s4.1.5,5.9,1.4c1.7.9,3.1,2.2,4.1,3.8,1,1.6,1.5,3.5,1.5,5.5s-.6,4.4-1.9,6.2c-1.3,1.8-3,3.1-5.1,3.8.4.4.8.7,1.2.9s.8.3,1.3.3c1.2,0,2.2-.5,3.1-1.4l2.5,3ZM973.7,576.4c.5.9,1.2,1.6,2,2.1.8.5,1.8.7,2.8.7s2-.2,2.8-.7c.8-.5,1.5-1.2,2-2.1.5-.9.7-1.9.7-3.1s-.2-2.2-.7-3.1-1.2-1.6-2-2.1c-.8-.5-1.8-.7-2.8-.7s-2,.2-2.8.7c-.8.5-1.5,1.2-2,2.1-.5.9-.7,1.9-.7,3.1s.2,2.2.7,3.1Z"/>
    <path class="st13" d="M1009.7,567.7v16h-5.3v-1.7c-.6.6-1.3,1.1-2.1,1.5s-1.7.5-2.6.5c-2.1,0-3.7-.6-4.9-1.8-1.2-1.2-1.8-3-1.8-5.5v-8.9h5.6v8c0,1.2.2,2.1.7,2.6.5.5,1.1.8,2,.8s1.6-.3,2.2-.9.8-1.6.8-2.8v-7.7h5.6Z"/>
    <path class="st13" d="M1013.6,565.1c-.6-.6-.9-1.3-.9-2.1s.3-1.6.9-2.1c.6-.6,1.5-.9,2.5-.9s1.8.3,2.5.8c.6.5.9,1.2.9,2.1s-.3,1.6-.9,2.2c-.6.6-1.5.9-2.5.9s-1.8-.3-2.5-.9ZM1013.3,567.7h5.6v16h-5.6v-16Z"/>
    <path class="st13" d="M1048,569.2c1.2,1.2,1.8,3,1.8,5.3v9.1h-5.6v-8.2c0-1.1-.2-1.9-.6-2.5s-1-.8-1.8-.8-1.5.3-2,.9c-.5.6-.8,1.5-.8,2.7v7.9h-5.6v-8.2c0-2.2-.8-3.3-2.4-3.3s-1.6.3-2.1.9-.8,1.5-.8,2.7v7.9h-5.6v-16h5.3v1.7c.6-.6,1.3-1.1,2.1-1.5.8-.3,1.7-.5,2.7-.5s2.1.2,3,.6c.9.4,1.6,1,2.2,1.9.6-.8,1.4-1.4,2.4-1.9s2-.6,3.2-.6c2,0,3.5.6,4.7,1.8Z"/>
    <path class="st13" d="M1053.7,565.1c-.6-.6-.9-1.3-.9-2.1s.3-1.6.9-2.1c.6-.6,1.5-.9,2.5-.9s1.8.3,2.5.8c.6.5.9,1.2.9,2.1s-.3,1.6-.9,2.2c-.6.6-1.5.9-2.5.9s-1.8-.3-2.5-.9ZM1053.3,567.7h5.6v16h-5.6v-16Z"/>
    <path class="st13" d="M1066,582.9c-1.4-.7-2.5-1.7-3.2-2.9-.8-1.3-1.2-2.7-1.2-4.3s.4-3,1.2-4.2c.8-1.3,1.8-2.2,3.2-2.9,1.4-.7,2.9-1,4.6-1s3.3.4,4.7,1c1.4.7,2.4,1.7,3.2,2.9.8,1.2,1.2,2.7,1.2,4.3s-.4,3-1.2,4.3c-.8,1.3-1.8,2.2-3.2,2.9-1.4.7-2.9,1.1-4.7,1.1s-3.3-.4-4.6-1.1ZM1073,578.5c.6-.7.9-1.6.9-2.8s-.3-2.1-.9-2.8c-.6-.7-1.4-1-2.4-1s-1.8.3-2.4,1c-.6.7-.9,1.6-.9,2.8s.3,2.1.9,2.8c.6.7,1.4,1,2.4,1s1.8-.3,2.4-1Z"/>
    <path class="st13" d="M1093.3,583c-.5.3-1,.5-1.7.7s-1.4.2-2.2.2c-2.1,0-3.7-.5-4.8-1.5-1.1-1-1.7-2.5-1.7-4.6v-5.4h-2.3v-4.2h2.3v-4.2h5.6v4.2h3.7v4.2h-3.7v5.3c0,.6.2,1,.5,1.3s.7.5,1.2.5,1.2-.2,1.7-.5l1.4,3.9Z"/>
    <path class="st13" d="M1111.2,577.1h-11.6c.2.8.7,1.5,1.4,1.9.7.4,1.5.7,2.6.7s1.4-.1,2-.3c.6-.2,1.1-.6,1.7-1.1l3,3.1c-1.6,1.7-3.8,2.6-6.8,2.6s-3.5-.4-4.9-1.1-2.5-1.7-3.3-2.9c-.8-1.3-1.2-2.7-1.2-4.3s.4-3,1.1-4.2c.8-1.2,1.8-2.2,3.1-2.9,1.3-.7,2.8-1.1,4.5-1.1s3,.3,4.3,1,2.3,1.6,3.1,2.9c.8,1.3,1.1,2.7,1.1,4.4s0,.5,0,1.4ZM1100.6,572.1c-.6.5-1,1.2-1.1,2h6.5c-.2-.8-.5-1.5-1.1-2-.6-.5-1.3-.7-2.2-.7s-1.6.2-2.2.7Z"/>
    <path class="st13" d="M1121.4,568c.9-.4,2-.5,3.1-.5v5c-.5,0-.9,0-1.3,0-1.2,0-2.1.3-2.8,1-.7.6-1,1.6-1,3v7.3h-5.6v-16h5.3v1.9c.6-.7,1.3-1.3,2.2-1.6Z"/>
    <path class="st13" d="M1139.7,569.2c1.4,1.2,2.1,3.1,2.1,5.6v8.9h-5.2v-2.1c-.8,1.6-2.4,2.3-4.7,2.3s-2.3-.2-3.2-.6-1.6-1-2-1.8c-.5-.7-.7-1.6-.7-2.5,0-1.5.6-2.7,1.7-3.5,1.2-.8,2.9-1.3,5.4-1.3h3.2c0-1.7-1.2-2.5-3.4-2.5s-1.5.1-2.3.4-1.5.6-2,1l-1.9-3.8c.9-.6,2-1,3.2-1.4,1.3-.3,2.5-.5,3.8-.5,2.7,0,4.7.6,6.1,1.8ZM1135.1,579.9c.5-.3.8-.8,1.1-1.4v-1.4h-2.4c-1.6,0-2.4.5-2.4,1.6s.2.9.6,1.2.9.4,1.5.4,1.2-.2,1.7-.5Z"/>
    <path class="st13" d="M1159.3,568.4c1.2.7,2.1,1.6,2.8,2.9.7,1.2,1,2.7,1,4.3s-.3,3.1-1,4.4c-.7,1.3-1.6,2.2-2.8,2.9-1.2.7-2.5,1-4,1s-3.4-.6-4.5-1.7v7.1h-5.6v-21.7h5.3v1.6c1-1.2,2.6-1.9,4.7-1.9s2.8.3,4,1ZM1156.6,578.5c.6-.7.9-1.6.9-2.8s-.3-2.1-.9-2.8c-.6-.7-1.4-1-2.4-1s-1.8.3-2.4,1c-.6.7-.9,1.6-.9,2.8s.3,2.1.9,2.8c.6.7,1.4,1,2.4,1s1.8-.3,2.4-1Z"/>
    <path class="st13" d="M1166.1,565.1c-.6-.6-.9-1.3-.9-2.1s.3-1.6.9-2.1c.6-.6,1.5-.9,2.5-.9s1.8.3,2.5.8c.6.5.9,1.2.9,2.1s-.3,1.6-.9,2.2c-.6.6-1.5.9-2.5.9s-1.8-.3-2.5-.9ZM1165.8,567.7h5.6v16h-5.6v-16Z"/>
    <path class="st13" d="M1187.9,569.2c1.4,1.2,2.1,3.1,2.1,5.6v8.9h-5.2v-2.1c-.8,1.6-2.4,2.3-4.7,2.3s-2.3-.2-3.2-.6-1.6-1-2-1.8c-.5-.7-.7-1.6-.7-2.5,0-1.5.6-2.7,1.7-3.5,1.2-.8,2.9-1.3,5.4-1.3h3.2c0-1.7-1.2-2.5-3.4-2.5s-1.5.1-2.3.4-1.5.6-2,1l-1.9-3.8c.9-.6,2-1,3.2-1.4,1.3-.3,2.5-.5,3.8-.5,2.7,0,4.7.6,6.1,1.8ZM1183.4,579.9c.5-.3.8-.8,1.1-1.4v-1.4h-2.4c-1.6,0-2.4.5-2.4,1.6s.2.9.6,1.2.9.4,1.5.4,1.2-.2,1.7-.5Z"/>
  </g>
  <g>
    <path class="st13" d="M861.6,289.3c0,2.2-1.5,3.8-3.7,3.8s-3.7-1.6-3.7-3.8,1.5-3.8,3.7-3.8,3.7,1.6,3.7,3.8Z"/>
    <path class="st13" d="M888.8,277v4.4h-6.1v16h-5.3v-16h-6v-4.4h17.5Z"/>
    <path class="st13" d="M903.9,290.9h-10.9c.5,1.8,1.8,2.8,3.6,2.8s2.6-.6,3.7-1.6l2.7,2.7c-1.6,1.8-3.9,2.8-6.9,2.8-5.1,0-8.3-3.2-8.3-8s3.3-8.1,8.2-8.1,8.3,3.7,7.9,9.4ZM898.9,288.2c0-1.8-1.2-3-2.9-3s-2.8,1.2-3.1,3h6Z"/>
    <path class="st13" d="M916.8,281.5v4.7c-2.9-.3-4.8,1-5.1,3.2v8h-5.2v-15.7h5.2v2.6c1.1-1.8,2.8-2.8,5.1-2.8Z"/>
    <path class="st13" d="M932.6,287.2v10.2h-5.1v-1.8c-1,1.3-2.6,2-4.7,2-3.4,0-5.4-2-5.4-4.9s2.1-4.7,6-4.8h4.1v-.2c0-1.5-1-2.4-3-2.4s-3,.4-4.7,1.2l-1.4-3.5c2.5-1.1,4.7-1.7,7.3-1.7,4.3,0,6.9,2.1,6.9,5.7ZM927.5,292.1v-1.4h-3.1c-1.5,0-2.2.5-2.2,1.6s.8,1.8,2.1,1.8,2.8-.8,3.1-2Z"/>
    <path class="st13" d="M953.3,289.6c0,4.8-2.8,8-7.2,8s-3.6-.8-4.7-2.2v7.7h-5.2v-21.3h5.2v2c1.1-1.4,2.7-2.2,4.6-2.2,4.4,0,7.3,3.2,7.3,8.1ZM948.1,289.5c0-2.3-1.4-3.9-3.4-3.9s-3.3,1.6-3.3,3.9,1.4,3.9,3.3,3.9,3.4-1.6,3.4-3.9Z"/>
    <path class="st13" d="M961.1,281.7v15.7h-5.1v-15.7h5.1ZM960.9,277.3c0,1.4-1,2.4-2.4,2.4s-2.4-1-2.4-2.4,1-2.4,2.4-2.4,2.4,1,2.4,2.4Z"/>
    <path class="st13" d="M979,287.2v10.2h-5.1v-1.8c-1,1.3-2.6,2-4.7,2-3.4,0-5.4-2-5.4-4.9s2.1-4.7,6-4.8h4.1v-.2c0-1.5-1-2.4-3-2.4s-3,.4-4.7,1.2l-1.4-3.5c2.5-1.1,4.7-1.7,7.3-1.7,4.3,0,6.9,2.1,6.9,5.7ZM973.9,292.1v-1.4h-3.1c-1.5,0-2.2.5-2.2,1.6s.8,1.8,2.1,1.8,2.8-.8,3.1-2Z"/>
    <path class="st13" d="M996.5,277v20.4h-5.3v-20.4h5.3Z"/>
    <path class="st13" d="M1016.5,287.5v9.9h-5.1v-8.4c0-1.8-1-2.9-2.7-2.9-1.7,0-2.9,1.2-3.1,3v8.3h-5.2v-15.7h5.2v2.6c1.1-1.8,2.9-2.8,5.2-2.8,3.4,0,5.7,2.3,5.7,6Z"/>
    <path class="st13" d="M1030.3,296.6c-1.1.7-2.7,1-4.2,1-3,0-5.3-1.8-5.3-5v-6.7h-2.2v-3.4h2.2v-4.4h5.1v4.4h4.1v3.4h-4.1v5.9c0,1.2.5,1.7,1.4,1.7.5,0,1.2-.2,1.9-.5l1,3.7Z"/>
    <path class="st13" d="M1047.5,290.9h-10.9c.5,1.8,1.8,2.8,3.6,2.8s2.6-.6,3.7-1.6l2.7,2.7c-1.6,1.8-3.9,2.8-6.9,2.8-5.1,0-8.3-3.2-8.3-8s3.3-8.1,8.2-8.1,8.3,3.7,7.9,9.4ZM1042.5,288.2c0-1.8-1.2-3-2.9-3s-2.8,1.2-3.1,3h6Z"/>
    <path class="st13" d="M1066.2,287.5v9.9h-5.1v-8.4c0-1.8-1-2.9-2.7-2.9-1.7,0-2.9,1.2-3.1,3v8.3h-5.2v-15.7h5.2v2.6c1.1-1.8,2.9-2.8,5.2-2.8,3.4,0,5.7,2.3,5.7,6Z"/>
    <path class="st13" d="M1075.2,285c-.9,0-1.5.3-1.5,1,0,2.1,8.2,1.1,8.2,6.5,0,3.2-2.8,5.1-6.6,5.1s-5.2-.8-7.1-2.2l1.6-3.3c1.8,1.2,3.8,1.9,5.6,1.9s1.7-.3,1.7-1c0-2.1-8.1-1.1-8.1-6.5s2.8-5.1,6.4-5.1,4.6.6,6.5,1.8l-1.7,3.4c-1.9-1-3.7-1.6-5-1.6Z"/>
    <path class="st13" d="M1089.9,281.7v15.7h-5.1v-15.7h5.1ZM1089.7,277.3c0,1.4-1,2.4-2.4,2.4s-2.4-1-2.4-2.4,1-2.4,2.4-2.4,2.4,1,2.4,2.4Z"/>
    <path class="st13" d="M1097,281.7l3.3,10.9,3.3-10.9h5.2l-5.9,15.7h-5.3l-5.9-15.7h5.3Z"/>
    <path class="st13" d="M1124,287.2v10.2h-5.1v-1.8c-1,1.3-2.6,2-4.7,2-3.4,0-5.4-2-5.4-4.9s2.1-4.7,6-4.8h4.1v-.2c0-1.5-1-2.4-3-2.4s-3,.4-4.7,1.2l-1.4-3.5c2.5-1.1,4.7-1.7,7.3-1.7,4.3,0,6.9,2.1,6.9,5.7ZM1119,292.1v-1.4h-3.1c-1.5,0-2.2.5-2.2,1.6s.8,1.8,2.1,1.8,2.8-.8,3.1-2Z"/>
    <path class="st13" d="M861.6,324.2c0,2.2-1.5,3.8-3.7,3.8s-3.7-1.6-3.7-3.8,1.5-3.8,3.7-3.8,3.7,1.6,3.7,3.8Z"/>
    <path class="st13" d="M878.4,311.9v20.4h-5.3v-20.4h5.3Z"/>
    <path class="st13" d="M898.4,322.3v9.9h-5.1v-8.4c0-1.8-1-2.9-2.7-2.9-1.7,0-2.9,1.2-3.1,3v8.3h-5.2v-15.7h5.2v2.6c1.1-1.8,2.9-2.8,5.2-2.8,3.4,0,5.7,2.3,5.7,6Z"/>
    <path class="st13" d="M912.1,331.4c-1.1.7-2.7,1-4.2,1-3,0-5.3-1.8-5.3-5v-6.7h-2.2v-3.4h2.2v-4.4h5.1v4.4h4.1v3.4h-4.1v5.9c0,1.2.5,1.7,1.4,1.7.5,0,1.2-.2,1.9-.5l1,3.7Z"/>
    <path class="st13" d="M929.3,325.8h-10.9c.5,1.8,1.8,2.8,3.6,2.8s2.6-.6,3.7-1.6l2.7,2.7c-1.6,1.8-3.9,2.8-6.9,2.8-5.1,0-8.3-3.2-8.3-8s3.3-8.1,8.2-8.1,8.3,3.7,7.9,9.4ZM924.4,323c0-1.8-1.2-3-2.9-3s-2.8,1.2-3.1,3h6Z"/>
    <path class="st13" d="M942.2,316.3v4.7c-2.9-.3-4.8,1-5.1,3.2v8h-5.2v-15.7h5.2v2.6c1.1-1.8,2.8-2.8,5.1-2.8Z"/>
    <path class="st13" d="M971.1,322.3v9.9h-5.2v-8.4c0-1.8-1-2.9-2.6-2.9-1.8,0-3,1.5-3,3.5v7.8h-5.2v-8.4c0-1.8-1-2.9-2.6-2.9-1.8,0-3,1.5-3,3.5v7.8h-5.1v-15.7h5.1v2.6c1.1-1.8,2.8-2.8,5.1-2.8s4.4,1.3,5.2,3.5c1-2.3,2.9-3.5,5.5-3.5s5.6,2.3,5.6,6Z"/>
    <path class="st13" d="M989.4,325.8h-10.9c.5,1.8,1.8,2.8,3.6,2.8s2.6-.6,3.7-1.6l2.7,2.7c-1.6,1.8-3.9,2.8-6.9,2.8-5.1,0-8.3-3.2-8.3-8s3.3-8.1,8.2-8.1,8.3,3.7,7.9,9.4ZM984.5,323c0-1.8-1.2-3-2.9-3s-2.8,1.2-3.1,3h6Z"/>
    <path class="st13" d="M1008,310.7v21.5h-5.2v-2c-1.1,1.5-2.7,2.2-4.6,2.2-4.4,0-7.3-3.3-7.3-8.1s2.9-8,7.2-8,3.7.8,4.8,2.2v-7.9h5.2ZM1002.8,324.4c0-2.4-1.4-3.9-3.4-3.9s-3.4,1.6-3.4,3.9,1.4,3.9,3.4,3.9,3.4-1.6,3.4-3.9Z"/>
    <path class="st13" d="M1017.2,316.5v15.7h-5.1v-15.7h5.1ZM1017,312.1c0,1.4-1,2.4-2.4,2.4s-2.4-1-2.4-2.4,1-2.4,2.4-2.4,2.4,1,2.4,2.4Z"/>
    <path class="st13" d="M1035.1,322v10.2h-5.1v-1.8c-1,1.3-2.6,2-4.7,2-3.4,0-5.4-2-5.4-4.9s2.1-4.7,6-4.8h4.1v-.2c0-1.5-1-2.4-3-2.4s-3,.4-4.7,1.2l-1.4-3.5c2.5-1.1,4.7-1.7,7.3-1.7,4.3,0,6.9,2.1,6.9,5.7ZM1030,326.9v-1.4h-3.1c-1.5,0-2.2.5-2.2,1.6s.8,1.8,2.1,1.8,2.8-.8,3.1-2Z"/>
    <path class="st13" d="M861.6,359c0,2.2-1.5,3.8-3.7,3.8s-3.7-1.6-3.7-3.8,1.5-3.8,3.7-3.8,3.7,1.6,3.7,3.8Z"/>
    <path class="st13" d="M882.2,362.8c2.4,0,4-1.6,4-4.2v-11.8h5.3v11.8c0,5.4-3.6,8.8-9.3,8.8s-9.4-3.4-9.4-8.8v-11.8h5.3v11.8c0,2.6,1.7,4.2,4.2,4.2Z"/>
    <path class="st13" d="M911.1,357.2v9.9h-5.1v-8.4c0-1.8-1-2.9-2.7-2.9-1.7,0-2.9,1.2-3.1,3v8.3h-5.2v-15.7h5.2v2.6c1.1-1.8,2.9-2.8,5.2-2.8,3.4,0,5.7,2.3,5.7,6Z"/>
    <path class="st13" d="M919.8,351.4v15.7h-5.1v-15.7h5.1ZM919.6,346.9c0,1.4-1,2.4-2.4,2.4s-2.4-1-2.4-2.4,1-2.4,2.4-2.4,2.4,1,2.4,2.4Z"/>
    <path class="st13" d="M939.6,345.5v21.5h-5.2v-2c-1.1,1.5-2.7,2.2-4.6,2.2-4.4,0-7.3-3.3-7.3-8.1s2.9-8,7.2-8,3.7.8,4.8,2.2v-7.9h5.2ZM934.4,359.3c0-2.4-1.4-3.9-3.4-3.9s-3.4,1.6-3.4,3.9,1.4,3.9,3.4,3.9,3.4-1.6,3.4-3.9Z"/>
    <path class="st13" d="M957.7,356.8v10.2h-5.1v-1.8c-1,1.3-2.6,2-4.7,2-3.4,0-5.4-2-5.4-4.9s2.1-4.7,6-4.8h4.1v-.2c0-1.5-1-2.4-3-2.4s-3,.4-4.7,1.2l-1.4-3.5c2.5-1.1,4.7-1.7,7.3-1.7,4.3,0,6.9,2.1,6.9,5.7ZM952.6,361.8v-1.4h-3.1c-1.5,0-2.2.5-2.2,1.6s.8,1.8,2.1,1.8,2.8-.8,3.1-2Z"/>
    <path class="st13" d="M977,345.5v21.5h-5.2v-2c-1.1,1.5-2.7,2.2-4.6,2.2-4.4,0-7.3-3.3-7.3-8.1s2.9-8,7.2-8,3.7.8,4.8,2.2v-7.9h5.2ZM971.8,359.3c0-2.4-1.4-3.9-3.4-3.9s-3.4,1.6-3.4,3.9,1.4,3.9,3.4,3.9,3.4-1.6,3.4-3.9Z"/>
    <path class="st13" d="M1005.6,345.5v21.5h-5.2v-2c-1.1,1.5-2.7,2.2-4.6,2.2-4.4,0-7.3-3.3-7.3-8.1s2.9-8,7.2-8,3.7.8,4.8,2.2v-7.9h5.2ZM1000.5,359.3c0-2.4-1.4-3.9-3.4-3.9s-3.4,1.6-3.4,3.9,1.4,3.9,3.4,3.9,3.4-1.6,3.4-3.9Z"/>
    <path class="st13" d="M1024.6,360.6h-10.9c.5,1.8,1.8,2.8,3.6,2.8s2.6-.6,3.7-1.6l2.7,2.7c-1.6,1.8-3.9,2.8-6.9,2.8-5.1,0-8.3-3.2-8.3-8s3.3-8.1,8.2-8.1,8.3,3.7,7.9,9.4ZM1019.6,357.8c0-1.8-1.2-3-2.9-3s-2.8,1.2-3.1,3h6Z"/>
    <path class="st13" d="M1045.6,351.1c-3.1,0-5.5,2.5-5.5,5.7s2.4,5.8,5.5,5.8,3.6-.9,5.1-2.4l3.1,3.3c-2.2,2.3-5.4,3.8-8.5,3.8-6.1,0-10.7-4.5-10.7-10.5s4.7-10.3,10.9-10.3,6.2,1.3,8.2,3.5l-3.1,3.7c-1.3-1.6-3.3-2.7-5.1-2.7Z"/>
    <path class="st13" d="M1071.4,351.4v15.7h-5.2v-2.6c-1.1,1.8-2.8,2.8-5,2.8-3.4,0-5.6-2.4-5.6-6v-9.9h5.2v8.5c0,1.8,1,2.8,2.5,2.8,1.8,0,2.9-1.5,2.9-3.5v-7.8h5.2Z"/>
    <path class="st13" d="M1080.5,351.4v15.7h-5.1v-15.7h5.1ZM1080.3,346.9c0,1.4-1,2.4-2.4,2.4s-2.4-1-2.4-2.4,1-2.4,2.4-2.4,2.4,1,2.4,2.4Z"/>
    <path class="st13" d="M1100.3,345.5v21.5h-5.2v-2c-1.1,1.5-2.7,2.2-4.6,2.2-4.4,0-7.3-3.3-7.3-8.1s2.9-8,7.2-8,3.7.8,4.8,2.2v-7.9h5.2ZM1095.1,359.3c0-2.4-1.4-3.9-3.4-3.9s-3.4,1.6-3.4,3.9,1.4,3.9,3.4,3.9,3.4-1.6,3.4-3.9Z"/>
    <path class="st13" d="M1118.3,356.8v10.2h-5.1v-1.8c-1,1.3-2.6,2-4.7,2-3.4,0-5.4-2-5.4-4.9s2.1-4.7,6-4.8h4.1v-.2c0-1.5-1-2.4-3-2.4s-3,.4-4.7,1.2l-1.4-3.5c2.5-1.1,4.7-1.7,7.3-1.7,4.3,0,6.9,2.1,6.9,5.7ZM1113.2,361.8v-1.4h-3.1c-1.5,0-2.2.5-2.2,1.6s.8,1.8,2.1,1.8,2.8-.8,3.1-2Z"/>
    <path class="st13" d="M1137.7,345.5v21.5h-5.2v-2c-1.1,1.5-2.7,2.2-4.6,2.2-4.4,0-7.3-3.3-7.3-8.1s2.9-8,7.2-8,3.7.8,4.8,2.2v-7.9h5.2ZM1132.5,359.3c0-2.4-1.4-3.9-3.4-3.9s-3.4,1.6-3.4,3.9,1.4,3.9,3.4,3.9,3.4-1.6,3.4-3.9Z"/>
    <path class="st13" d="M1157.6,359.2c0,4.8-3.4,8-8.6,8s-8.6-3.2-8.6-8,3.4-8,8.6-8,8.6,3.2,8.6,8ZM1145.7,359.3c0,2.4,1.4,3.9,3.4,3.9s3.4-1.6,3.4-3.9-1.4-3.9-3.4-3.9-3.4,1.6-3.4,3.9Z"/>
    <path class="st13" d="M1165.8,354.7c-.9,0-1.5.3-1.5,1,0,2.1,8.2,1.1,8.2,6.5,0,3.2-2.8,5.1-6.6,5.1s-5.2-.8-7.1-2.2l1.6-3.3c1.8,1.2,3.8,1.9,5.6,1.9s1.7-.3,1.7-1c0-2.1-8.1-1.1-8.1-6.5s2.8-5.1,6.4-5.1,4.6.6,6.5,1.8l-1.7,3.4c-1.9-1-3.7-1.6-5-1.6Z"/>
    <path class="st13" d="M882.2,385.9c-3.1,0-5.5,2.5-5.5,5.7s2.4,5.8,5.5,5.8,3.6-.9,5.1-2.4l3.1,3.3c-2.2,2.3-5.4,3.8-8.5,3.8-6.1,0-10.7-4.5-10.7-10.5s4.7-10.3,10.9-10.3,6.2,1.3,8.2,3.5l-3.1,3.7c-1.3-1.6-3.3-2.7-5.1-2.7Z"/>
    <path class="st13" d="M908.1,394c0,4.8-3.4,8-8.6,8s-8.6-3.2-8.6-8,3.4-8,8.6-8,8.6,3.2,8.6,8ZM896.2,394.1c0,2.4,1.4,3.9,3.4,3.9s3.4-1.6,3.4-3.9-1.4-3.9-3.4-3.9-3.4,1.6-3.4,3.9Z"/>
    <path class="st13" d="M921,386v4.7c-2.9-.3-4.8,1-5.1,3.2v8h-5.2v-15.7h5.2v2.6c1.1-1.8,2.8-2.8,5.1-2.8Z"/>
    <path class="st13" d="M939.1,394c0,4.8-3.4,8-8.6,8s-8.6-3.2-8.6-8,3.4-8,8.6-8,8.6,3.2,8.6,8ZM927.2,394.1c0,2.4,1.4,3.9,3.4,3.9s3.4-1.6,3.4-3.9-1.4-3.9-3.4-3.9-3.4,1.6-3.4,3.9Z"/>
    <path class="st13" d="M957.8,392v9.9h-5.1v-8.4c0-1.8-1-2.9-2.7-2.9-1.7,0-2.9,1.2-3.1,3v8.3h-5.2v-15.7h5.2v2.6c1.1-1.8,2.9-2.8,5.2-2.8,3.4,0,5.7,2.3,5.7,6Z"/>
    <path class="st13" d="M975.3,391.7v10.2h-5.1v-1.8c-1,1.3-2.6,2-4.7,2-3.4,0-5.4-2-5.4-4.9s2.1-4.7,6-4.8h4.1v-.2c0-1.5-1-2.4-3-2.4s-3,.4-4.7,1.2l-1.4-3.5c2.5-1.1,4.7-1.7,7.3-1.7,4.3,0,6.9,2.1,6.9,5.7ZM970.2,396.6v-1.4h-3.1c-1.5,0-2.2.5-2.2,1.6s.8,1.8,2.1,1.8,2.8-.8,3.1-2Z"/>
    <path class="st13" d="M989,386v4.7c-2.9-.3-4.8,1-5.1,3.2v8h-5.2v-15.7h5.2v2.6c1.1-1.8,2.8-2.8,5.1-2.8Z"/>
    <path class="st13" d="M996.4,386.2v15.7h-5.1v-15.7h5.1ZM996.2,381.8c0,1.4-1,2.4-2.4,2.4s-2.4-1-2.4-2.4,1-2.4,2.4-2.4,2.4,1,2.4,2.4Z"/>
    <path class="st13" d="M1016.2,394c0,4.8-3.4,8-8.6,8s-8.6-3.2-8.6-8,3.4-8,8.6-8,8.6,3.2,8.6,8ZM1004.3,394.1c0,2.4,1.4,3.9,3.4,3.9s3.4-1.6,3.4-3.9-1.4-3.9-3.4-3.9-3.4,1.6-3.4,3.9Z"/>
    <path class="st13" d="M1024.4,389.6c-.9,0-1.5.3-1.5,1,0,2.1,8.2,1.1,8.2,6.5,0,3.2-2.8,5.1-6.6,5.1s-5.2-.8-7.1-2.2l1.6-3.3c1.8,1.2,3.8,1.9,5.6,1.9s1.7-.3,1.7-1c0-2.1-8.1-1.1-8.1-6.5s2.8-5.1,6.4-5.1,4.6.6,6.5,1.8l-1.7,3.4c-1.9-1-3.7-1.6-5-1.6Z"/>
  </g>
</svg>