<?xml version="1.0" encoding="UTF-8"?>
<svg id="Capa_1" xmlns="http://www.w3.org/2000/svg" xmlns:xlink="http://www.w3.org/1999/xlink" version="1.1" viewBox="0 -300 520 1120">
  <!-- Generator: Adobe Illustrator 29.1.0, SVG Export Plug-In . SVG Version: 2.1.0 Build 142)  -->
  <defs>
    <style>
      .st0, .st1, .st2, .st3, .st4, .st5 {
        fill: #fff;
      }

      .st0, .st2 {
        font-size: 15.11px;
      }

      .st0, .st2, .st6, .st7, .st8, .st9, .st10, .st11, .st12, .st13, .st4, .st5 {
        isolation: isolate;
      }

      .st0, .st14 {
        font-family: Montserrat-Bold, Montserrat;
        font-weight: 700;
      }

      .st1 {
        font-size: 13.56px;
      }

      .st15 {
        stroke: #008ffc;
        stroke-dasharray: 4.79 4.79;
        stroke-width: 1.92px;
      }

      .st15, .st16, .st17, .st18 {
        fill: none;
      }

      .st15, .st16, .st18 {
        stroke-linecap: round;
      }

      .st15, .st17 {
        stroke-miterlimit: 10;
      }

      .st2, .st19 {
        font-family: Montserrat-Regular, Montserrat;
      }

      .st6 {
        fill: url(#Degradado_sin_nombre_17);
      }

      .st6, .st8, .st9, .st10, .st11, .st12, .st13 {
        opacity: .75;
      }

      .st20 {
        fill: url(#Degradado_sin_nombre_1910);
      }

      .st16 {
        stroke: url(#Degradado_sin_nombre_211);
      }

      .st16, .st18 {
        stroke-linejoin: round;
        stroke-width: 3.83px;
      }

      .st8 {
        fill: url(#Degradado_sin_nombre_176);
      }

      .st9 {
        fill: url(#Degradado_sin_nombre_173);
      }

      .st10 {
        fill: url(#Degradado_sin_nombre_175);
      }

      .st11 {
        fill: url(#Degradado_sin_nombre_172);
      }

      .st12 {
        fill: url(#Degradado_sin_nombre_174);
      }

      .st13 {
        fill: url(#Degradado_sin_nombre_171);
      }

      .st17 {
        stroke: #fff;
        stroke-width: .32px;
      }

      .st21 {
        fill: url(#Degradado_sin_nombre);
      }

      .st22 {
        fill: url(#Degradado_sin_nombre_191);
      }

      .st23 {
        fill: url(#Degradado_sin_nombre_194);
      }

      .st24 {
        fill: url(#Degradado_sin_nombre_193);
      }

      .st25 {
        fill: url(#Degradado_sin_nombre_196);
      }

      .st26 {
        fill: url(#Degradado_sin_nombre_192);
      }

      .st27 {
        fill: url(#Degradado_sin_nombre_195);
      }

      .st28 {
        fill: url(#Degradado_sin_nombre_198);
      }

      .st29 {
        fill: url(#Degradado_sin_nombre_197);
      }

      .st30 {
        fill: url(#Degradado_sin_nombre_199);
      }

      .st31 {
        fill: url(#Degradado_sin_nombre_19);
      }

      .st18 {
        stroke: url(#Degradado_sin_nombre_21);
      }

      .st4 {
        opacity: .2;
      }

      .st5 {
        opacity: .4;
      }
    </style>
    <linearGradient id="Degradado_sin_nombre" data-name="Degradado sin nombre" x1="126.04" y1="358.67" x2="467.96" y2="1025.65" gradientTransform="translate(0 -442)" gradientUnits="userSpaceOnUse">
      <stop offset="0" stop-color="#87c8f7"/>
      <stop offset=".67" stop-color="#008aed"/>
    </linearGradient>
    <linearGradient id="Degradado_sin_nombre_17" data-name="Degradado sin nombre 17" x1="133.08" y1="343.27" x2="184.57" y2="343.27" gradientTransform="translate(0 528.32) scale(1 -1)" gradientUnits="userSpaceOnUse">
      <stop offset="0" stop-color="#008cf4"/>
      <stop offset="1" stop-color="#00508a"/>
    </linearGradient>
    <linearGradient id="Degradado_sin_nombre_19" data-name="Degradado sin nombre 19" x1="-82.11" y1="-611.63" x2="-66.74" y2="-581.01" gradientTransform="translate(234 781)" gradientUnits="userSpaceOnUse">
      <stop offset="0" stop-color="#4dcbff"/>
      <stop offset=".67" stop-color="#008efb"/>
    </linearGradient>
    <linearGradient id="Degradado_sin_nombre_171" data-name="Degradado sin nombre 17" x1="110.48" y1="286.46" x2="161.96" y2="286.46" xlink:href="#Degradado_sin_nombre_17"/>
    <linearGradient id="Degradado_sin_nombre_191" data-name="Degradado sin nombre 19" x1="-99.56" y1="-533.67" x2="-99.2" y2="-530.23" xlink:href="#Degradado_sin_nombre_19"/>
    <linearGradient id="Degradado_sin_nombre_192" data-name="Degradado sin nombre 19" x1="-108.63" y1="-551.23" x2="-92.7" y2="-523.32" xlink:href="#Degradado_sin_nombre_19"/>
    <linearGradient id="Degradado_sin_nombre_172" data-name="Degradado sin nombre 17" x1="137.62" y1="230.54" x2="189.11" y2="230.54" xlink:href="#Degradado_sin_nombre_17"/>
    <linearGradient id="Degradado_sin_nombre_193" data-name="Degradado sin nombre 19" x1="-80.11" y1="-494.28" x2="-65.49" y2="-469.61" xlink:href="#Degradado_sin_nombre_19"/>
    <linearGradient id="Degradado_sin_nombre_173" data-name="Degradado sin nombre 17" x1="267.26" x2="318.74" xlink:href="#Degradado_sin_nombre_17"/>
    <linearGradient id="Degradado_sin_nombre_194" data-name="Degradado sin nombre 19" x1="51.38" y1="-609.53" x2="63.61" y2="-581.07" xlink:href="#Degradado_sin_nombre_19"/>
    <linearGradient id="Degradado_sin_nombre_195" data-name="Degradado sin nombre 19" x1="51.58" y1="-602.78" x2="55.89" y2="-594.59" xlink:href="#Degradado_sin_nombre_19"/>
    <linearGradient id="Degradado_sin_nombre_174" data-name="Degradado sin nombre 17" x1="288.83" y1="286.46" x2="340.32" y2="286.46" xlink:href="#Degradado_sin_nombre_17"/>
    <linearGradient id="Degradado_sin_nombre_196" data-name="Degradado sin nombre 19" x1="72.21" y1="-554" x2="86.87" y2="-523.34" xlink:href="#Degradado_sin_nombre_19"/>
    <linearGradient id="Degradado_sin_nombre_197" data-name="Degradado sin nombre 19" x1="78.42" y1="-540.62" x2="82.72" y2="-532.42" xlink:href="#Degradado_sin_nombre_19"/>
    <linearGradient id="Degradado_sin_nombre_175" data-name="Degradado sin nombre 17" x1="259.43" y1="230" x2="310.91" y2="230" xlink:href="#Degradado_sin_nombre_17"/>
    <linearGradient id="Degradado_sin_nombre_198" data-name="Degradado sin nombre 19" x1="44.73" y1="-499.47" x2="61.45" y2="-464.51" xlink:href="#Degradado_sin_nombre_19"/>
    <linearGradient id="Degradado_sin_nombre_176" data-name="Degradado sin nombre 17" x1="200.05" y1="202.42" x2="251.53" y2="202.42" xlink:href="#Degradado_sin_nombre_17"/>
    <linearGradient id="Degradado_sin_nombre_199" data-name="Degradado sin nombre 19" x1="-16.24" y1="-470.41" x2="-.12" y2="-439.77" xlink:href="#Degradado_sin_nombre_19"/>
    <linearGradient id="Degradado_sin_nombre_1910" data-name="Degradado sin nombre 19" x1="-13.08" y1="-464.28" x2="-3.37" y2="-445.8" xlink:href="#Degradado_sin_nombre_19"/>
    <linearGradient id="Degradado_sin_nombre_21" data-name="Degradado sin nombre 21" x1="-8.17" y1="-554.74" x2="-8.17" y2="-526.1" gradientTransform="translate(234 781)" gradientUnits="userSpaceOnUse">
      <stop offset="0" stop-color="#008efb"/>
      <stop offset="1" stop-color="#00528e"/>
    </linearGradient>
    <linearGradient id="Degradado_sin_nombre_211" data-name="Degradado sin nombre 21" x1="-8.19" y1="-543.18" x2="-8.19" y2="-537.67" xlink:href="#Degradado_sin_nombre_21"/>
  </defs>
  <path class="st21" d="M0-39.34h594v579H0V-39.34Z"/>
  <path class="st4" d="M595,142.16C165.38,42.27,185.5-1.4-1135-1.4v-46.94H595v190.5Z"/>
  <path class="st5" d="M594,117.16C164.38,17.27,184.5-1.4-1136-1.4v-46.94H594V117.16Z"/>
  <path class="st3" d="M596,85.66C165.89-5.5-63.47-5.5-1136-5.5v-42.84H596V85.66Z"/>
  <path class="st4" d="M-58,385.66c428.62,99.89,408.55,143.56,1726,143.56v46.94H-58v-190.5Z"/>
  <path class="st5" d="M-58,410.66c428.62,99.89,408.55,118.56,1726,118.56v46.94H-58v-165.5Z"/>
  <path class="st3" d="M-59,442.16c429.12,91.16,657.95,91.16,1728,91.16v42.84H-59v-134h0Z"/>
  <g>
    <g>
      <circle class="st6" cx="158.83" cy="185.05" r="25.74"/>
      <circle class="st3" cx="158.83" cy="185.05" r="21.58"/>
      <path class="st31" d="M169.63,179.66c-2.3-.44-4.32,1.31-4.32,3.53,0,1.57,1,2.9,2.4,3.39v3.04c0,2.68-1.61,5.15-4.14,6.08-4.22,1.56-8.23-1.12-8.94-4.93,4.42-.69,7.8-4.51,7.8-9.12v-4.83c0-2.07-1.68-3.73-3.73-3.73,0-.71-.58-1.28-1.31-1.25s-1.19.65-1.19,1.33v2.39c0,.57.33,1.1.87,1.26.87.26,1.68-.37,1.68-1.22.71,0,1.28.57,1.28,1.28v4.91c0,3.36-2.58,6.26-5.93,6.43-3.57.17-6.54-2.69-6.54-6.23v-5.11c0-.71.57-1.28,1.28-1.28,0,.83.81,1.49,1.68,1.22.54-.17.87-.69.87-1.26v-2.39c0-.68-.51-1.31-1.19-1.33s-1.29.54-1.29,1.25c-2.07,0-3.73,1.68-3.73,3.73v5.25c0,4.42,3.29,8.08,7.55,8.65.56,4.18,4.1,7.44,8.4,7.55,4.94.14,8.98-4.05,8.98-9v-2.69c1.61-.57,2.69-2.26,2.33-4.12-.28-1.4-1.4-2.51-2.8-2.79h-.01ZM168.97,184.46c-.69,0-1.26-.57-1.26-1.26s.57-1.26,1.26-1.26,1.26.57,1.26,1.26-.57,1.26-1.26,1.26Z"/>
    </g>
    <g class="st7">
      <text class="st0" transform="translate(55.58 155.1)"><tspan x="0" y="0">Consultas</tspan></text>
      <text class="st0" transform="translate(62.18 173.24)"><tspan x="0" y="0">Medicas</tspan></text>
    </g>
    <g>
      <circle class="st13" cx="136.22" cy="241.85" r="25.74"/>
      <circle class="st3" cx="136.22" cy="241.85" r="21.58"/>
      <g>
        <path class="st22" d="M140.69,249.05c0,.67-.54,1.19-1.22,1.19h-9.72c-.67,0-1.21-.54-1.21-1.19s.54-1.19,1.21-1.19h9.72c.67,0,1.22.54,1.22,1.19Z"/>
        <path class="st26" d="M147.16,252.16h-2.53s3.19-3.98,3.19-6.75c0-5.12-4.22-9.29-9.65-9.29v-1.17c.24-.64-.29-1.17-.96-1.17v-2.32c.01-1.28-2.33-2.33-2.33-2.33h-2.36s-2.36,1.06-2.5,2.33v2.32c-.5,0-.96,1.17-.96,1.17v4.68c0,1.92,1.61,3.48,3.6,3.48-.67,0-1.19.51-1.19,1.17s.54,1.17,1.19,1.17h2.4c.67,0,1.19-.51,1.19-1.17s-.54-1.17-1.19-1.17c1.99,0,3.6-1.57,3.6-3.48v-1.87c4.03,0,7.29,3.22,7.29,7.19s-3.28,7.19-7.29,7.19h-13.37c-.67,0-1.21.54-1.21,1.19s.54,1.19,1.21,1.19h21.88c.67,0,1.22-.54,1.22-1.19s-.54-1.19-1.22-1.19h-.01ZM132.42,231.54h2.4v2.4h-2.4v-2.4ZM136.26,239.45c0,.67-.54,1.19-1.19,1.19h-2.4c-.67,0-1.19-.54-1.19-1.19v-3.6h4.79s0,3.6,0,3.6Z"/>
      </g>
    </g>
    <g class="st7">
      <text class="st0" transform="translate(26.37 239.01)"><tspan x="0" y="0">Análisis y</tspan></text>
      <text class="st0" transform="translate(29.9 257.15)"><tspan x="0" y="0">Estudios</tspan></text>
    </g>
    <g>
      <circle class="st11" cx="163.37" cy="297.78" r="25.74"/>
      <circle class="st3" cx="163.37" cy="297.78" r="21.58"/>
      <path class="st24" d="M167.46,298.67c1.62-1.26,2.68-3.25,2.68-5.47,0-3.79-3.04-6.87-6.78-6.87s-6.78,3.08-6.78,6.87c0,2.22,1.06,4.21,2.68,5.47-3.57,1.6-6.07,5.22-6.07,9.43,0,.62.51,1.15,1.12,1.15s1.12-.51,1.12-1.15c0-4.43,3.55-8.02,7.91-8.02s7.91,3.6,7.91,8.02c0,.62.51,1.15,1.12,1.15s1.12-.51,1.12-1.15c0-4.22-2.5-7.84-6.07-9.43h0ZM163.35,297.9c-2.5,0-4.53-2.07-4.53-4.58s2.03-4.58,4.53-4.58,4.53,2.05,4.53,4.58-2.03,4.58-4.53,4.58Z"/>
    </g>
    <g class="st7">
      <text class="st0" transform="translate(68.15 331.68)"><tspan x="0" y="0">Gastos de</tspan></text>
      <text class="st0" transform="translate(61.22 349.82)"><tspan x="0" y="0">Enfermeras</tspan></text>
    </g>
    <g>
      <circle class="st9" cx="293" cy="185.05" r="25.74"/>
      <circle class="st3" cx="293" cy="185.05" r="21.58"/>
      <g>
        <path class="st23" d="M305.38,184.96l-2.49-.83-1.97-3.96c-.44-.89-1.33-1.43-2.3-1.43h-2.01v-1.32c0-2.18-1.76-3.96-3.96-3.96h-9.9c-2.14,0-3.89,1.75-3.89,3.89v14.15c0,1.43,1.17,2.6,2.6,2.6h1.5c.53,1.51,1.96,2.58,3.62,2.58s3.11-1.07,3.64-2.58h5.36c.08,0,.15,0,.22-.03v.03c.53,1.51,1.96,2.58,3.62,2.58s3.11-1.07,3.64-2.58h1.5c1.43,0,2.57-1.17,2.57-2.58v-4.78c0-.97-.79-1.76-1.76-1.76h.01ZM286.46,194.2c-.71,0-1.29-.58-1.29-1.29s.58-1.29,1.29-1.29,1.29.58,1.29,1.29-.57,1.29-1.29,1.29ZM294.19,191.67h-4.11c-.54-1.49-1.97-2.55-3.67-2.55s-3.12,1.07-3.65,2.55h-1.53v-14.05c0-.71.58-1.29,1.29-1.29h10.36c.72,0,1.29.57,1.29,1.28v14.06h.01ZM299.41,194.2c-.71,0-1.29-.58-1.29-1.29s.58-1.29,1.29-1.29,1.29.58,1.29,1.29-.57,1.29-1.29,1.29ZM304.74,191.67h-1.5c-.54-1.53-1.94-2.64-3.62-2.64-.99,0-1.86.39-2.55,1.01v-8.93h1.78l1.96,4.07c.31.62.85,1.1,1.49,1.32l2.46.85v4.33h0Z"/>
        <path class="st27" d="M291.32,182.32c0,.67-.53,1.19-1.19,1.19h-1.19v1.19c0,.67-.53,1.19-1.19,1.19s-1.19-.54-1.19-1.19v-1.19h-1.12c-.57,0-1.11-.35-1.24-.9-.19-.79.4-1.5,1.17-1.5h1.19v-1.12c0-.57.35-1.11.9-1.24.79-.19,1.5.4,1.5,1.17v1.19h1.19c.67,0,1.19.54,1.19,1.19h-.01Z"/>
      </g>
    </g>
    <g class="st7">
      <text class="st0" transform="translate(328.79 151.95)"><tspan x="0" y="0">Traslados en</tspan></text>
      <text class="st0" transform="translate(328.79 168.18)"><tspan x="0" y="0">Ambulancia:</tspan></text>
      <text class="st2" transform="translate(328.65 185.98)"><tspan x="0" y="0">Terrestre o Aérea</tspan></text>
    </g>
    <g>
      <circle class="st12" cx="314.57" cy="241.85" r="25.74"/>
      <circle class="st3" cx="314.57" cy="241.85" r="21.58"/>
      <g>
        <path class="st25" d="M324.86,234.18h-3.82v-1.44c0-2.11-1.72-3.83-3.83-3.83h-5.28c-2.11,0-3.83,1.72-3.83,3.83v1.44h-3.85c-2.11,0-3.83,1.72-3.83,3.83v12.95c0,2.11,1.72,3.83,3.83,3.83h20.63c2.11,0,3.83-1.72,3.83-3.83v-12.95c0-2.11-1.72-3.83-3.83-3.83h-.03ZM310.51,232.98c0-.65.58-1.19,1.28-1.19h5.12c.71,0,1.28.57,1.28,1.28v1.12h-7.68v-1.19h0ZM305.7,251.92h-1.12c-.71,0-1.28-.57-1.28-1.28v-12.8c0-.71.57-1.28,1.28-1.28h1.12v15.34h0ZM321.06,251.92h-12.95v-15.34h12.95v15.34ZM324.57,251.92h-1.12v-15.34h1.11c.71,0,1.28.58,1.28,1.28v12.79c0,.71-.57,1.28-1.28,1.28h.01Z"/>
        <path class="st29" d="M316.89,245.69h-1.12v1.11c0,.64-.46,1.22-1.08,1.28-.71.07-1.31-.5-1.31-1.19v-1.19h-1.12c-.57,0-1.11-.35-1.24-.9-.19-.79.4-1.5,1.17-1.5h1.19v-1.11c0-.57.35-1.11.9-1.25.78-.19,1.5.4,1.5,1.17v1.19h1.19c.75,0,1.35.71,1.17,1.5-.14.56-.68.9-1.24.9h-.01Z"/>
      </g>
    </g>
    <g>
      <circle class="st10" cx="285.17" cy="298.32" r="25.74"/>
      <circle class="st3" cx="285.15" cy="298.32" r="21.58"/>
      <path class="st28" d="M291.74,285.2c-2.64,0-4.61.69-6.65,2.42-2.04-1.72-4-2.42-6.65-2.42-5.29,0-9.59,4.3-9.59,9.59,0,2.21.78,4.11,1.92,5.75.01.03.01.04.04.07.06.14.15.25.24.37,0,0,.03.01.03.03.78,1.1,1.71,2.05,2.62,2.96l10.33,10.33c.29.28.67.43,1.04.43s.75-.15,1.04-.43l10.32-10.33c.92-.9,1.85-1.87,2.62-2.96.01-.01.01-.03.03-.04.08-.1.17-.21.22-.32,1.17-1.68,2-3.61,2-5.85,0-5.29-4.3-9.59-9.59-9.59h.04ZM294.55,301.64h-.18l-9.29,9.52-9.3-9.32c-.14-.14-.42-.69-.42-.69h5.98c.14,0,.29-.01.42-.06l1.97,4.44c.24.54.79.89,1.37.89h.03c.64-.04,1.18-.49,1.35-1.1l1.86-6.47.58,1.37c.24.56.79.92,1.39.92h4.65c-.14.15-.28.31-.42.44v.04ZM297.43,298.28h-6.19l-1.83-4.05c-.25-.57-.81-.94-1.44-.9-.64.04-1.17.47-1.33,1.08l-1.83,6.43-1.32-2.94c-.22-.51-.74-.86-1.32-.87-.54.01-1.1.31-1.35.81l-.33.94h-7.54c-.69-1.4-1.14-2.61-1.14-3.97,0-3.67,2.99-6.65,6.65-6.65,2.28,0,3.73.67,5.6,2.53.57.57,1.53.57,2.1,0,1.86-1.86,3.32-2.53,5.6-2.53,3.67,0,6.65,2.99,6.65,6.65,0,1.35-.46,2.55-.94,3.69v-.21h-.01Z"/>
    </g>
    <g>
      <circle class="st8" cx="225.79" cy="325.89" r="25.74"/>
      <circle class="st3" cx="225.82" cy="325.89" r="21.58"/>
      <g>
        <path class="st30" d="M235.41,339.32h-18.99c-2.22,0-4.03-1.8-4.03-4.03v-18.79c0-2.22,1.8-4.03,4.03-4.03h18.79c2.22,0,4.04,1.8,4.04,4.04v18.8c0,2.22-1.72,4.03-3.83,4.03h0v-.03ZM216.22,315.13c-.57,0-.96,1.35-.96,1.35v18.63c0,.74.61,1.35,1.35,1.35h18.9c.74,0,1.35-.6,1.35-1.35v-18.9c0-.74-.61-1.35-1.35-1.35h-19.28v.26h0Z"/>
        <path class="st20" d="M227.16,334.04h-.12c-.6-.06-1.08-.49-1.19-1.07l-1.8-9-1.01,2.51c-.19.51-.69.85-1.25.85h-2.68c-.53,0-1.03-.28-1.25-.76-.5-1.07.26-2.12,1.29-2.12h1.74l2.35-5.79c.22-.56.78-.89,1.37-.85.6.06,1.08.49,1.19,1.07l1.8,9.01,1.01-2.53c.21-.51,1.25-.46,1.25-.46h2.69s1.35.21,1.35.96-1.35,1.44-1.35,1.44h-1.78l-2.35,5.87c-.21.51-.71.85-1.25.85h-.01Z"/>
      </g>
    </g>
    <g class="st7">
      <text class="st0" transform="translate(195.03 373.66)"><tspan x="0" y="0">Sala de</tspan></text>
      <text class="st0" transform="translate(174.85 391.81)"><tspan x="0" y="0">Operaciones</tspan></text>
    </g>
    <g>
      <g>
        <g>
          <circle class="st3" cx="225.82" cy="240.58" r="29.3"/>
          <path class="st18" d="M237.49,242.04c0,7.3-5.11,10.94-11.18,13.06-.32.11-.67.1-.97-.01-6.08-2.1-11.19-5.75-11.19-13.05v-10.22c0-.39.15-.76.43-1.03.28-.28.64-.43,1.03-.43,2.92,0,6.57-1.75,9.11-3.97.31-.26.71-.4,1.11-.4s.81.14,1.11.4c2.55,2.24,6.19,3.97,9.11,3.97.39,0,.76.15,1.03.43s.43.64.43,1.03v10.22h-.01Z"/>
          <path class="st16" d="M221.4,240.58l2.94,2.94,5.87-5.87"/>
        </g>
        <circle class="st15" cx="225.82" cy="240.58" r="25.94"/>
      </g>
      <circle class="st3" cx="225.79" cy="276.35" r="2.9"/>
      <circle class="st3" cx="225.79" cy="294.73" r="2.9"/>
      <circle class="st3" cx="252.21" cy="262.71" r="2.9"/>
      <circle class="st3" cx="198.5" cy="263.43" r="2.9"/>
      <circle class="st3" cx="189.23" cy="240.89" r="2.9"/>
      <circle class="st3" cx="260.54" cy="240.89" r="2.9"/>
      <circle class="st3" cx="252.21" cy="217.38" r="2.9"/>
      <circle class="st3" cx="269.35" cy="205.78" r="2.9"/>
      <circle class="st3" cx="181.23" cy="205.78" r="2.9"/>
      <circle class="st3" cx="196.52" cy="217.38" r="2.9"/>
      <path class="st17" d="M283.68,240.89h-22.18"/>
      <path class="st17" d="M189.42,240.89h-22.18"/>
      <path class="st17" d="M197.14,218.24l-17.32-13.85"/>
      <path class="st17" d="M269.2,204.38l-17.32,13.85"/>
      <path class="st17" d="M250.26,261.68l17.32,13.85"/>
      <path class="st17" d="M182.02,276.81l17.32-13.85"/>
      <circle class="st3" cx="283.33" cy="240.89" r="2.9"/>
      <circle class="st3" cx="167.17" cy="240.89" r="2.9"/>
      <circle class="st3" cx="266.45" cy="274.79" r="2.9"/>
      <circle class="st3" cx="184.14" cy="275.53" r="2.9"/>
      <line class="st17" x1="226.06" y1="276.35" x2="226.06" y2="294.73"/>
    </g>
    <text class="st1" transform="translate(286.23 338.49)"><tspan class="st14"><tspan x="0" y="0">Tratamiento de:</tspan></tspan><tspan class="st19"><tspan x="0" y="16.27">Radioterapia/Inhaloterapia</tspan></tspan><tspan class="st19"><tspan x="0" y="32.54">Fisioterapia/Quimioterapia</tspan></tspan></text>
    <g>
      <path class="st3" d="M354.48,223.4c0,1.03-.71,1.76-1.73,1.76s-1.72-.72-1.72-1.76.71-1.74,1.72-1.74,1.73.72,1.73,1.74Z"/>
      <path class="st3" d="M376.69,217.71v2.03h-2.82v7.38h-2.45v-7.38h-2.79v-2.03h8.06Z"/>
      <path class="st3" d="M383.68,224.12h-5.04c.23.82.83,1.27,1.65,1.27.62,0,1.22-.25,1.7-.74l1.25,1.25c-.74.83-1.82,1.29-3.17,1.29-2.37,0-3.84-1.46-3.84-3.68s1.52-3.74,3.78-3.74c2.54,0,3.82,1.7,3.66,4.35ZM381.37,222.85c0-.83-.54-1.4-1.34-1.4s-1.29.56-1.45,1.4h2.79Z"/>
      <path class="st3" d="M389.63,219.77v2.19c-1.33-.13-2.21.46-2.33,1.46v3.7h-2.39v-7.26h2.39v1.21c.5-.83,1.31-1.3,2.33-1.3Z"/>
      <path class="st3" d="M396.93,222.39v4.72h-2.35v-.82c-.47.6-1.21.93-2.19.93-1.56,0-2.48-.94-2.48-2.27s.98-2.17,2.78-2.2h1.89v-.08c0-.68-.47-1.09-1.38-1.09-.6,0-1.39.2-2.17.58l-.66-1.61c1.14-.51,2.19-.79,3.38-.79,2,0,3.17.97,3.18,2.63ZM394.58,224.66v-.63h-1.42c-.67,0-1.01.24-1.01.75s.36.82.98.82c.71,0,1.3-.39,1.45-.94Z"/>
      <path class="st3" d="M406.51,223.52c0,2.21-1.31,3.68-3.33,3.68-.93,0-1.68-.36-2.19-1.02v3.54h-2.39v-9.86h2.39v.94c.51-.66,1.23-1.02,2.13-1.02,2.03,0,3.38,1.49,3.38,3.74ZM404.11,223.47c0-1.07-.63-1.81-1.57-1.81s-1.54.74-1.54,1.81.63,1.8,1.54,1.8,1.57-.72,1.57-1.8Z"/>
      <path class="st3" d="M410.12,219.86v7.26h-2.37v-7.26h2.37ZM410.02,217.82c0,.63-.46,1.09-1.09,1.09s-1.09-.46-1.09-1.09.46-1.1,1.09-1.1,1.09.46,1.09,1.1Z"/>
      <path class="st3" d="M418.39,222.39v4.72h-2.35v-.82c-.47.6-1.21.93-2.19.93-1.56,0-2.48-.94-2.48-2.27s.98-2.17,2.78-2.2h1.89v-.08c0-.68-.47-1.09-1.38-1.09-.6,0-1.39.2-2.17.58l-.66-1.61c1.14-.51,2.19-.79,3.38-.79,2,0,3.17.97,3.18,2.63ZM416.04,224.66v-.63h-1.42c-.67,0-1.01.24-1.01.75s.36.82.98.82c.71,0,1.3-.39,1.45-.94Z"/>
      <path class="st3" d="M426.48,217.71v9.4h-2.45v-9.4h2.45Z"/>
      <path class="st3" d="M435.72,222.54v4.57h-2.37v-3.89c0-.82-.48-1.33-1.23-1.33-.8.01-1.33.56-1.42,1.38v3.84h-2.39v-7.26h2.39v1.18c.51-.83,1.34-1.27,2.4-1.27,1.58,0,2.63,1.07,2.63,2.78Z"/>
      <path class="st3" d="M442.06,226.74c-.52.31-1.25.48-1.96.48-1.41.01-2.43-.82-2.43-2.32v-3.11h-1.01v-1.58h1.01v-2.01h2.37v2.01h1.88v1.58h-1.88v2.74c0,.54.24.78.66.76.24,0,.55-.09.9-.24l.46,1.69Z"/>
      <path class="st3" d="M450.02,224.12h-5.04c.23.82.83,1.27,1.65,1.27.62,0,1.22-.25,1.7-.74l1.25,1.25c-.74.83-1.82,1.29-3.17,1.29-2.37,0-3.84-1.46-3.84-3.68s1.52-3.74,3.78-3.74c2.54,0,3.82,1.7,3.66,4.35ZM447.71,222.85c0-.83-.54-1.4-1.34-1.4s-1.29.56-1.45,1.4h2.79Z"/>
      <path class="st3" d="M458.67,222.54v4.57h-2.37v-3.89c0-.82-.48-1.33-1.23-1.33-.8.01-1.33.56-1.42,1.38v3.84h-2.39v-7.26h2.39v1.18c.51-.83,1.34-1.27,2.4-1.27,1.58,0,2.63,1.07,2.63,2.78Z"/>
      <path class="st3" d="M462.83,221.42c-.4,0-.68.15-.68.46,0,.95,3.81.5,3.8,3.02,0,1.49-1.3,2.33-3.07,2.33-1.22,0-2.39-.35-3.27-1.03l.75-1.54c.83.58,1.77.9,2.58.9.44,0,.76-.15.76-.44,0-.99-3.74-.5-3.74-3,0-1.52,1.27-2.35,2.98-2.35,1.05,0,2.11.29,3.02.84l-.8,1.56c-.9-.47-1.72-.74-2.31-.74Z"/>
      <path class="st3" d="M469.6,219.86v7.26h-2.37v-7.26h2.37ZM469.51,217.82c0,.63-.46,1.09-1.09,1.09s-1.09-.46-1.09-1.09.46-1.1,1.09-1.1,1.09.46,1.09,1.1Z"/>
      <path class="st3" d="M472.9,219.86l1.52,5.04,1.53-5.04h2.39l-2.72,7.26h-2.45l-2.71-7.26h2.46Z"/>
      <path class="st3" d="M485.39,222.39v4.72h-2.35v-.82c-.47.6-1.21.93-2.19.93-1.56,0-2.48-.94-2.48-2.27s.98-2.17,2.78-2.2h1.89v-.08c0-.68-.47-1.09-1.38-1.09-.6,0-1.39.2-2.17.58l-.66-1.61c1.14-.51,2.19-.79,3.38-.79,2,0,3.17.97,3.18,2.63ZM483.04,224.66v-.63h-1.42c-.67,0-1.01.24-1.01.75s.36.82.98.82c.71,0,1.3-.39,1.45-.94Z"/>
      <path class="st3" d="M354.48,239.5c0,1.03-.71,1.76-1.73,1.76s-1.72-.72-1.72-1.76.71-1.74,1.72-1.74,1.73.72,1.73,1.74Z"/>
      <path class="st3" d="M371.9,233.81v9.4h-2.45v-9.4h2.45Z"/>
      <path class="st3" d="M381.14,238.64v4.57h-2.37v-3.89c0-.82-.48-1.33-1.23-1.33-.81.01-1.33.56-1.42,1.38v3.84h-2.39v-7.26h2.39v1.18c.51-.83,1.34-1.27,2.4-1.27,1.58,0,2.63,1.07,2.63,2.78Z"/>
      <path class="st3" d="M387.49,242.84c-.52.31-1.25.48-1.96.48-1.41.01-2.43-.82-2.43-2.32v-3.11h-1.01v-1.58h1.01v-2.01h2.37v2.01h1.88v1.58h-1.88v2.74c0,.54.24.78.66.76.24,0,.55-.09.9-.24l.46,1.69Z"/>
      <path class="st3" d="M395.44,240.22h-5.04c.23.82.83,1.27,1.65,1.27.62,0,1.22-.25,1.7-.74l1.25,1.25c-.74.83-1.82,1.29-3.17,1.29-2.37,0-3.84-1.46-3.84-3.68s1.52-3.74,3.78-3.74c2.54,0,3.82,1.7,3.66,4.35ZM393.13,238.95c0-.83-.54-1.4-1.34-1.4s-1.29.56-1.45,1.4h2.79Z"/>
      <path class="st3" d="M401.4,235.86v2.19c-1.33-.13-2.21.46-2.33,1.46v3.7h-2.39v-7.26h2.39v1.21c.5-.83,1.31-1.3,2.33-1.3Z"/>
      <path class="st3" d="M414.73,238.64v4.57h-2.39v-3.89c0-.83-.46-1.33-1.19-1.33-.85.01-1.37.68-1.37,1.64v3.58h-2.39v-3.89c0-.83-.46-1.33-1.19-1.33-.85.01-1.38.68-1.38,1.64v3.58h-2.37v-7.26h2.37v1.19c.5-.84,1.31-1.29,2.36-1.29,1.18,0,2.05.6,2.41,1.62.47-1.07,1.36-1.62,2.54-1.62,1.57,0,2.6,1.07,2.6,2.78Z"/>
      <path class="st3" d="M423.21,240.22h-5.04c.23.82.83,1.27,1.65,1.27.62,0,1.22-.25,1.7-.74l1.25,1.25c-.74.83-1.82,1.29-3.17,1.29-2.37,0-3.84-1.46-3.84-3.68s1.52-3.74,3.78-3.74c2.54,0,3.82,1.7,3.66,4.35ZM420.9,238.95c0-.83-.54-1.4-1.34-1.4s-1.29.56-1.45,1.4h2.79Z"/>
      <path class="st3" d="M431.76,233.26v9.95h-2.39v-.94c-.5.67-1.23,1.03-2.15,1.03-2.04,0-3.38-1.5-3.38-3.76s1.33-3.67,3.33-3.67c.94,0,1.69.38,2.2,1.03v-3.65h2.39ZM429.38,239.62c0-1.09-.63-1.81-1.56-1.81s-1.57.74-1.57,1.81.63,1.81,1.57,1.81,1.56-.74,1.56-1.81Z"/>
      <path class="st3" d="M436.03,235.96v7.26h-2.37v-7.26h2.37ZM435.94,233.92c0,.63-.46,1.09-1.09,1.09s-1.09-.46-1.09-1.09.46-1.1,1.09-1.1,1.09.46,1.09,1.1Z"/>
      <path class="st3" d="M444.3,238.49v4.72h-2.35v-.82c-.47.6-1.21.93-2.19.93-1.56,0-2.48-.94-2.48-2.27s.98-2.17,2.78-2.2h1.89v-.08c0-.68-.47-1.09-1.38-1.09-.6,0-1.39.2-2.17.58l-.66-1.61c1.14-.51,2.19-.79,3.38-.79,2,0,3.17.97,3.18,2.63ZM441.96,240.76v-.63h-1.42c-.67,0-1.01.24-1.01.75s.36.82.98.82c.71,0,1.3-.39,1.45-.94Z"/>
      <path class="st3" d="M354.48,255.59c0,1.03-.71,1.76-1.73,1.76s-1.72-.72-1.72-1.76.71-1.74,1.72-1.74,1.73.72,1.73,1.74Z"/>
      <path class="st3" d="M373.66,257.32c1.09,0,1.84-.74,1.84-1.96v-5.46h2.46v5.46c0,2.48-1.66,4.05-4.31,4.05s-4.36-1.57-4.36-4.05v-5.46h2.46v5.46c0,1.21.8,1.96,1.92,1.96Z"/>
      <path class="st3" d="M387.03,254.73v4.57h-2.37v-3.89c0-.82-.48-1.33-1.23-1.33-.81.01-1.33.56-1.42,1.38v3.84h-2.39v-7.26h2.39v1.18c.51-.83,1.34-1.27,2.4-1.27,1.58,0,2.63,1.07,2.63,2.78Z"/>
      <path class="st3" d="M391.03,252.05v7.26h-2.37v-7.26h2.37ZM390.93,250.01c0,.63-.46,1.09-1.09,1.09s-1.09-.46-1.09-1.09.46-1.1,1.09-1.1,1.09.46,1.09,1.1Z"/>
      <path class="st3" d="M400.17,249.36v9.95h-2.39v-.94c-.5.67-1.23,1.03-2.15,1.03-2.04,0-3.38-1.5-3.38-3.76s1.33-3.67,3.33-3.67c.94,0,1.69.38,2.2,1.03v-3.65h2.39ZM397.79,255.71c0-1.09-.63-1.81-1.56-1.81s-1.57.74-1.57,1.81.63,1.81,1.57,1.81,1.56-.74,1.56-1.81Z"/>
      <path class="st3" d="M408.52,254.59v4.72h-2.35v-.82c-.47.6-1.21.93-2.19.93-1.56,0-2.48-.94-2.48-2.27s.98-2.17,2.78-2.2h1.89v-.08c0-.68-.47-1.09-1.38-1.09-.6,0-1.39.2-2.17.58l-.66-1.61c1.14-.51,2.19-.79,3.38-.79,2,0,3.17.97,3.18,2.63ZM406.17,256.85v-.63h-1.42c-.67,0-1.01.24-1.01.75s.36.82.98.82c.71,0,1.3-.39,1.45-.94Z"/>
      <path class="st3" d="M417.45,249.36v9.95h-2.39v-.94c-.5.67-1.23,1.03-2.15,1.03-2.04,0-3.38-1.5-3.38-3.76s1.33-3.67,3.33-3.67c.94,0,1.69.38,2.2,1.03v-3.65h2.39ZM415.06,255.71c0-1.09-.63-1.81-1.56-1.81s-1.57.74-1.57,1.81.63,1.81,1.57,1.81,1.56-.74,1.56-1.81Z"/>
      <path class="st3" d="M430.69,249.36v9.95h-2.39v-.94c-.5.67-1.23,1.03-2.15,1.03-2.04,0-3.38-1.5-3.38-3.76s1.33-3.67,3.33-3.67c.94,0,1.69.38,2.2,1.03v-3.65h2.39ZM428.3,255.71c0-1.09-.63-1.81-1.56-1.81s-1.57.74-1.57,1.81.63,1.81,1.57,1.81,1.56-.74,1.56-1.81Z"/>
      <path class="st3" d="M439.44,256.32h-5.04c.23.82.83,1.27,1.65,1.27.62,0,1.22-.25,1.7-.74l1.25,1.25c-.74.83-1.82,1.29-3.17,1.29-2.37,0-3.84-1.46-3.84-3.68s1.52-3.74,3.78-3.74c2.54,0,3.82,1.7,3.66,4.35ZM437.13,255.04c0-.83-.54-1.4-1.34-1.4s-1.29.56-1.45,1.4h2.79Z"/>
      <path class="st3" d="M449.16,251.92c-1.45,0-2.55,1.14-2.55,2.64s1.1,2.67,2.55,2.67c.78,0,1.68-.43,2.33-1.1l1.44,1.54c-1.01,1.06-2.51,1.74-3.9,1.74-2.83,0-4.94-2.07-4.94-4.83s2.16-4.75,5.03-4.75c1.4,0,2.86.62,3.8,1.61l-1.42,1.7c-.62-.75-1.52-1.23-2.33-1.23Z"/>
      <path class="st3" d="M461.06,252.05v7.26h-2.39v-1.18c-.5.84-1.29,1.27-2.32,1.29-1.57,0-2.59-1.09-2.59-2.78v-4.59h2.39v3.9c0,.82.46,1.31,1.17,1.31.84-.01,1.35-.68,1.35-1.64v-3.58h2.39Z"/>
      <path class="st3" d="M465.26,252.05v7.26h-2.37v-7.26h2.37ZM465.16,250.01c0,.63-.46,1.09-1.09,1.09s-1.09-.46-1.09-1.09.46-1.1,1.09-1.1,1.09.46,1.09,1.1Z"/>
      <path class="st3" d="M474.4,249.36v9.95h-2.39v-.94c-.5.67-1.23,1.03-2.15,1.03-2.04,0-3.38-1.5-3.38-3.76s1.33-3.67,3.33-3.67c.94,0,1.69.38,2.2,1.03v-3.65h2.39ZM472.02,255.71c0-1.09-.63-1.81-1.56-1.81s-1.57.74-1.57,1.81.63,1.81,1.57,1.81,1.56-.74,1.56-1.81Z"/>
      <path class="st3" d="M482.75,254.59v4.72h-2.35v-.82c-.47.6-1.21.93-2.19.93-1.56,0-2.48-.94-2.48-2.27s.98-2.17,2.78-2.2h1.89v-.08c0-.68-.47-1.09-1.38-1.09-.6,0-1.39.2-2.17.58l-.66-1.61c1.14-.51,2.19-.79,3.38-.79,2,0,3.17.97,3.18,2.63ZM480.4,256.85v-.63h-1.42c-.67,0-1.01.24-1.01.75s.36.82.98.82c.71,0,1.3-.39,1.45-.94Z"/>
      <path class="st3" d="M491.68,249.36v9.95h-2.39v-.94c-.5.67-1.23,1.03-2.15,1.03-2.04,0-3.38-1.5-3.38-3.76s1.33-3.67,3.33-3.67c.94,0,1.69.38,2.2,1.03v-3.65h2.39ZM489.29,255.71c0-1.09-.63-1.81-1.56-1.81s-1.57.74-1.57,1.81.63,1.81,1.57,1.81,1.56-.74,1.56-1.81Z"/>
      <path class="st3" d="M500.91,255.67c0,2.24-1.58,3.72-3.97,3.72s-3.96-1.48-3.96-3.72,1.57-3.7,3.96-3.7,3.97,1.48,3.97,3.7ZM495.38,255.7c0,1.09.63,1.81,1.56,1.81s1.57-.72,1.57-1.81-.63-1.8-1.57-1.8-1.56.72-1.56,1.8Z"/>
      <path class="st3" d="M504.67,253.61c-.4,0-.68.15-.68.46,0,.95,3.81.5,3.8,3.02,0,1.49-1.3,2.33-3.07,2.33-1.22,0-2.39-.35-3.27-1.03l.75-1.54c.83.58,1.77.9,2.58.9.44,0,.76-.15.76-.44,0-.99-3.74-.5-3.74-3,0-1.52,1.27-2.35,2.98-2.35,1.05,0,2.11.29,3.02.84l-.8,1.56c-.9-.47-1.72-.74-2.31-.74Z"/>
      <path class="st3" d="M363.96,268.01c-1.45,0-2.55,1.14-2.55,2.64s1.1,2.67,2.55,2.67c.78,0,1.68-.43,2.33-1.1l1.44,1.54c-1.01,1.06-2.51,1.74-3.9,1.74-2.83,0-4.94-2.07-4.94-4.83s2.16-4.75,5.03-4.75c1.4,0,2.86.62,3.8,1.61l-1.42,1.7c-.62-.75-1.52-1.23-2.33-1.23Z"/>
      <path class="st3" d="M375.95,271.77c0,2.24-1.58,3.71-3.97,3.71s-3.96-1.47-3.96-3.71,1.57-3.7,3.96-3.7,3.97,1.48,3.97,3.7ZM370.42,271.8c0,1.09.63,1.81,1.56,1.81s1.57-.72,1.57-1.81-.63-1.8-1.57-1.8-1.56.72-1.56,1.8Z"/>
      <path class="st3" d="M381.89,268.05v2.19c-1.33-.13-2.21.46-2.33,1.46v3.7h-2.39v-7.26h2.39v1.21c.5-.83,1.31-1.3,2.33-1.3Z"/>
      <path class="st3" d="M390.28,271.77c0,2.24-1.58,3.71-3.97,3.71s-3.96-1.47-3.96-3.71,1.57-3.7,3.96-3.7,3.97,1.48,3.97,3.7ZM384.75,271.8c0,1.09.63,1.81,1.56,1.81s1.57-.72,1.57-1.81-.63-1.8-1.57-1.8-1.56.72-1.56,1.8Z"/>
      <path class="st3" d="M398.91,270.83v4.57h-2.37v-3.89c0-.82-.48-1.33-1.23-1.33-.81.01-1.33.56-1.42,1.38v3.84h-2.39v-7.26h2.39v1.18c.51-.83,1.34-1.27,2.4-1.27,1.58,0,2.63,1.07,2.63,2.78Z"/>
      <path class="st3" d="M406.99,270.68v4.72h-2.35v-.82c-.47.6-1.21.93-2.19.93-1.56,0-2.48-.94-2.48-2.27s.98-2.17,2.78-2.2h1.89v-.08c0-.68-.47-1.09-1.38-1.09-.6,0-1.39.2-2.17.58l-.66-1.61c1.14-.51,2.19-.79,3.38-.79,2,0,3.17.96,3.18,2.63ZM404.64,272.95v-.63h-1.42c-.67,0-1.01.24-1.01.75s.36.82.98.82c.71,0,1.3-.39,1.45-.94Z"/>
      <path class="st3" d="M413.32,268.05v2.19c-1.33-.13-2.21.46-2.33,1.46v3.7h-2.39v-7.26h2.39v1.21c.5-.83,1.31-1.3,2.33-1.3Z"/>
      <path class="st3" d="M416.74,268.15v7.26h-2.37v-7.26h2.37ZM416.65,266.11c0,.63-.46,1.09-1.09,1.09s-1.09-.46-1.09-1.09.46-1.1,1.09-1.1,1.09.46,1.09,1.1Z"/>
      <path class="st3" d="M425.9,271.77c0,2.24-1.58,3.71-3.97,3.71s-3.96-1.47-3.96-3.71,1.57-3.7,3.96-3.7,3.97,1.48,3.97,3.7ZM420.38,271.8c0,1.09.63,1.81,1.56,1.81s1.57-.72,1.57-1.81-.63-1.8-1.57-1.8-1.56.72-1.56,1.8Z"/>
      <path class="st3" d="M429.66,269.7c-.4,0-.68.15-.68.46,0,.95,3.81.5,3.8,3.02,0,1.49-1.3,2.33-3.07,2.33-1.22,0-2.39-.35-3.27-1.03l.75-1.54c.83.58,1.77.9,2.58.9.44,0,.76-.15.76-.44,0-.99-3.74-.5-3.74-3,0-1.52,1.27-2.35,2.98-2.35,1.05,0,2.11.29,3.02.84l-.8,1.56c-.9-.47-1.72-.74-2.31-.74Z"/>
    </g>
  </g>
</svg>