<svg width="4200" height="801" fill="none" xmlns="http://www.w3.org/2000/svg"><g clip-path="url(#a)"><path d="M-47.746-17.593H4238.33v848.682H-47.746V-17.593Z" fill="url(#b)"/><path opacity=".2" d="M4235.64 151.843C3176.14 51.981 3225.91 8.297-30.598 8.297v-46.883H4235.64v190.429Z" fill="#fff"/><path opacity=".4" d="M4232.95 126.852C3173.79 26.99 3223.22 8.297-33.288 8.297v-46.883H4232.95v165.438Z" fill="#fff"/><path d="M4238 95.364C3177.49 4.198 2611.93 4.198-33.288 4.198v-42.784H4238v133.95Z" fill="#fff"/><path opacity=".2" d="M-33.288 649.157C1026.21 749.019 976.447 792.703 4232.95 792.703v46.883H-33.288V649.157Z" fill="#fff"/><path opacity=".4" d="M-30.598 674.148C1028.9 774.01 979.137 792.703 4235.64 792.703v46.883H-30.598V674.148Z" fill="#fff"/><path d="M-35.642 705.636C1025.2 796.802 1590.76 796.801 4235.64 796.801v42.785H-35.642v-133.95Z" fill="#fff"/></g><defs><linearGradient id="b" x1="2095.12" y1="-17.593" x2="2095.12" y2="831.089" gradientUnits="userSpaceOnUse"><stop stop-color="#87C8F7"/><stop offset=".7" stop-color="#008AED"/></linearGradient><clipPath id="a"><path fill="#fff" d="M0 0h4200v801H0z"/></clipPath></defs></svg>