<?xml version="1.0" encoding="UTF-8"?>
<svg id="Capa_1" xmlns="http://www.w3.org/2000/svg" xmlns:xlink="http://www.w3.org/1999/xlink" version="1.1" viewBox="-10 -30 1270.13 820.32">
  <!-- Generator: Adobe Illustrator 29.1.0, SVG Export Plug-In . SVG Version: 2.1.0 Build 142)  -->
  <defs>
    <style>
      .st0 {
        font-size: 22.12px;
      }

      .st0, .st1, .st2, .st3, .st4, .st5 {
        fill: #fff;
      }

      .st6 {
        fill: url(#Degradado_sin_nombre_17);
      }

      .st6, .st7, .st8, .st9, .st10, .st11, .st12, .st13, .st2, .st3, .st4, .st5 {
        isolation: isolate;
      }

      .st6, .st8, .st9, .st10, .st11, .st12, .st13 {
        opacity: .75;
      }

      .st14 {
        stroke: #008df5;
        stroke-dasharray: 9.7 9.7;
        stroke-width: 3.88px;
      }

      .st14, .st15, .st16, .st17 {
        fill: none;
      }

      .st14, .st15, .st17 {
        stroke-linecap: round;
      }

      .st14, .st16 {
        stroke-miterlimit: 10;
      }

      .st18 {
        fill: url(#Degradado_sin_nombre_1910);
      }

      .st15 {
        stroke: url(#Degradado_sin_nombre_211);
      }

      .st15, .st17 {
        stroke-linejoin: round;
        stroke-width: 7.76px;
      }

      .st16 {
        stroke: #fff;
        stroke-width: .65px;
      }

      .st8 {
        fill: url(#Degradado_sin_nombre_176);
      }

      .st9 {
        fill: url(#Degradado_sin_nombre_173);
      }

      .st10 {
        fill: url(#Degradado_sin_nombre_175);
      }

      .st11 {
        fill: url(#Degradado_sin_nombre_172);
      }

      .st12 {
        fill: url(#Degradado_sin_nombre_174);
      }

      .st13 {
        fill: url(#Degradado_sin_nombre_171);
      }

      .st19 {
        fill: url(#Degradado_sin_nombre);
      }

      .st2, .st20 {
        font-family: Montserrat-Bold, Montserrat;
        font-weight: 700;
      }

      .st2, .st3 {
        font-size: 24.65px;
      }

      .st21, .st3 {
        font-family: Montserrat-Regular, Montserrat;
      }

      .st22 {
        fill: url(#Degradado_sin_nombre_191);
      }

      .st23 {
        fill: url(#Degradado_sin_nombre_194);
      }

      .st24 {
        fill: url(#Degradado_sin_nombre_193);
      }

      .st25 {
        fill: url(#Degradado_sin_nombre_196);
      }

      .st26 {
        fill: url(#Degradado_sin_nombre_192);
      }

      .st27 {
        fill: url(#Degradado_sin_nombre_195);
      }

      .st28 {
        fill: url(#Degradado_sin_nombre_198);
      }

      .st29 {
        fill: url(#Degradado_sin_nombre_197);
      }

      .st30 {
        fill: url(#Degradado_sin_nombre_199);
      }

      .st31 {
        fill: url(#Degradado_sin_nombre_19);
      }

      .st17 {
        stroke: url(#Degradado_sin_nombre_21);
      }

      .st4 {
        opacity: .2;
      }

      .st5 {
        opacity: .4;
      }
    </style>
    <linearGradient id="Degradado_sin_nombre" data-name="Degradado sin nombre" x1="623.09" y1="162.5" x2="623.09" y2="1011.5" gradientTransform="translate(0 -188)" gradientUnits="userSpaceOnUse">
      <stop offset="0" stop-color="#87c8f7"/>
      <stop offset=".67" stop-color="#008aed"/>
    </linearGradient>
    <linearGradient id="Degradado_sin_nombre_17" data-name="Degradado sin nombre 17" x1="399.93" y1="526.31" x2="504.17" y2="526.31" gradientTransform="translate(0 786) scale(1 -1)" gradientUnits="userSpaceOnUse">
      <stop offset="0" stop-color="#008aed"/>
      <stop offset="1" stop-color="#004e87"/>
    </linearGradient>
    <linearGradient id="Degradado_sin_nombre_19" data-name="Degradado sin nombre 19" x1="204.02" y1="-553.06" x2="235.14" y2="-491.04" gradientTransform="translate(234 781)" gradientUnits="userSpaceOnUse">
      <stop offset="0" stop-color="#72c9fb"/>
      <stop offset=".67" stop-color="#008cf4"/>
    </linearGradient>
    <linearGradient id="Degradado_sin_nombre_171" data-name="Degradado sin nombre 17" x1="354.17" y1="411.29" x2="458.41" y2="411.29" xlink:href="#Degradado_sin_nombre_17"/>
    <linearGradient id="Degradado_sin_nombre_191" data-name="Degradado sin nombre 19" x1="168.68" y1="-395.21" x2="169.41" y2="-388.24" xlink:href="#Degradado_sin_nombre_19"/>
    <linearGradient id="Degradado_sin_nombre_192" data-name="Degradado sin nombre 19" x1="150.32" y1="-430.75" x2="182.57" y2="-374.25" xlink:href="#Degradado_sin_nombre_19"/>
    <linearGradient id="Degradado_sin_nombre_172" data-name="Degradado sin nombre 17" x1="409.13" y1="298.05" x2="513.37" y2="298.05" xlink:href="#Degradado_sin_nombre_17"/>
    <linearGradient id="Degradado_sin_nombre_193" data-name="Degradado sin nombre 19" x1="208.06" y1="-315.44" x2="237.67" y2="-265.49" xlink:href="#Degradado_sin_nombre_19"/>
    <linearGradient id="Degradado_sin_nombre_173" data-name="Degradado sin nombre 17" x1="671.6" x2="775.84" xlink:href="#Degradado_sin_nombre_17"/>
    <linearGradient id="Degradado_sin_nombre_194" data-name="Degradado sin nombre 19" x1="474.29" y1="-548.8" x2="499.05" y2="-491.17" xlink:href="#Degradado_sin_nombre_19"/>
    <linearGradient id="Degradado_sin_nombre_195" data-name="Degradado sin nombre 19" x1="474.69" y1="-535.13" x2="483.44" y2="-518.55" xlink:href="#Degradado_sin_nombre_19"/>
    <linearGradient id="Degradado_sin_nombre_174" data-name="Degradado sin nombre 17" x1="715.29" y1="411.29" x2="819.53" y2="411.29" xlink:href="#Degradado_sin_nombre_17"/>
    <linearGradient id="Degradado_sin_nombre_196" data-name="Degradado sin nombre 19" x1="516.48" y1="-436.36" x2="546.16" y2="-374.29" xlink:href="#Degradado_sin_nombre_19"/>
    <linearGradient id="Degradado_sin_nombre_197" data-name="Degradado sin nombre 19" x1="529.04" y1="-409.26" x2="537.76" y2="-392.68" xlink:href="#Degradado_sin_nombre_19"/>
    <linearGradient id="Degradado_sin_nombre_175" data-name="Degradado sin nombre 17" x1="655.75" y1="296.96" x2="759.99" y2="296.96" xlink:href="#Degradado_sin_nombre_17"/>
    <linearGradient id="Degradado_sin_nombre_198" data-name="Degradado sin nombre 19" x1="460.84" y1="-325.95" x2="494.69" y2="-255.17" xlink:href="#Degradado_sin_nombre_19"/>
    <linearGradient id="Degradado_sin_nombre_176" data-name="Degradado sin nombre 17" x1="535.52" y1="241.13" x2="639.76" y2="241.13" xlink:href="#Degradado_sin_nombre_17"/>
    <linearGradient id="Degradado_sin_nombre_199" data-name="Degradado sin nombre 19" x1="337.39" y1="-267.11" x2="370.02" y2="-205.06" xlink:href="#Degradado_sin_nombre_19"/>
    <linearGradient id="Degradado_sin_nombre_1910" data-name="Degradado sin nombre 19" x1="343.77" y1="-254.7" x2="363.45" y2="-217.28" xlink:href="#Degradado_sin_nombre_19"/>
    <linearGradient id="Degradado_sin_nombre_21" data-name="Degradado sin nombre 21" x1="353.72" y1="-437.87" x2="353.72" y2="-379.88" gradientTransform="translate(234 781)" gradientUnits="userSpaceOnUse">
      <stop offset="0" stop-color="#008cf4"/>
      <stop offset="1" stop-color="#00508a"/>
    </linearGradient>
    <linearGradient id="Degradado_sin_nombre_211" data-name="Degradado sin nombre 21" x1="353.68" y1="-414.45" x2="353.68" y2="-403.29" xlink:href="#Degradado_sin_nombre_21"/>
  </defs>
  <g id="Capa_2">
    <path class="st19" d="M-14.25-25.5h1274.67v849H-14.25V-25.5Z"/>
    <path class="st4" d="M1259.69,144C944.6,44.11,959.36.44-9.12.44v-46.94h1268.8v190.5Z"/>
    <path class="st5" d="M1258.95,119C943.87,19.11,958.62.44-9.85.44v-46.94h1268.8V119Z"/>
    <path class="st1" d="M1260.42,87.5C944.97-3.66,776.76-3.66-9.85-3.66v-42.84h1270.27V87.5Z"/>
    <path class="st4" d="M-9.85,641.5c315.09,99.89,300.33,143.56,1268.8,143.56v46.94H-9.85v-190.5Z"/>
    <path class="st5" d="M-9.12,666.5c315.09,99.89,300.33,118.56,1268.8,118.56v46.94H-9.12v-165.5Z"/>
    <path class="st1" d="M-10.58,698c315.45,91.16,483.66,91.16,1270.27,91.16v42.84H-10.58v-134h0Z"/>
  </g>
  <g>
    <g>
      <circle class="st6" cx="452.05" cy="259.69" r="52.12"/>
      <circle class="st1" cx="452.05" cy="259.69" r="43.69" transform="translate(-23.39 45.81) rotate(-5.65)"/>
      <path class="st31" d="M473.92,248.78c-4.67-.9-8.74,2.64-8.74,7.14,0,3.18,2.02,5.88,4.86,6.86v6.16c0,5.43-3.26,10.43-8.38,12.31-8.55,3.15-16.67-2.28-18.1-9.98,8.94-1.41,15.8-9.14,15.8-18.47v-9.78c0-4.19-3.4-7.56-7.56-7.56,0-1.43-1.18-2.59-2.64-2.53s-2.42,1.32-2.42,2.7v4.84c0,1.15.67,2.22,1.77,2.56,1.77.53,3.4-.76,3.4-2.47,1.43,0,2.59,1.15,2.59,2.59v9.95c0,6.8-5.23,12.68-12,13.02-7.22.34-13.24-5.45-13.24-12.62v-10.35c0-1.43,1.15-2.59,2.59-2.59,0,1.69,1.63,3.01,3.4,2.47,1.1-.34,1.77-1.41,1.77-2.56v-4.84c0-1.38-1.04-2.64-2.42-2.7s-2.61,1.1-2.61,2.53c-4.19,0-7.56,3.4-7.56,7.56v10.63c0,8.94,6.66,16.36,15.29,17.51,1.12,8.46,8.29,15.07,17.01,15.29,10.01.28,18.19-8.21,18.19-18.22v-5.45c3.26-1.15,5.45-4.58,4.72-8.35-.56-2.84-2.84-5.09-5.68-5.65h-.03ZM472.6,258.51c-1.41,0-2.56-1.15-2.56-2.56s1.15-2.56,2.56-2.56,2.56,1.15,2.56,2.56-1.15,2.56-2.56,2.56Z"/>
    </g>
    <g class="st7">
      <text class="st2" transform="translate(258.96 236.93)"><tspan x="0" y="0">Consultas</tspan></text>
      <text class="st2" transform="translate(269.73 266.54)"><tspan x="0" y="0">Medicas</tspan></text>
    </g>
    <g>
      <circle class="st13" cx="406.29" cy="374.71" r="52.12"/>
      <circle class="st1" cx="406.29" cy="374.71" r="43.69"/>
      <g>
        <path class="st22" d="M415.34,389.28c0,1.35-1.1,2.42-2.47,2.42h-19.68c-1.35,0-2.45-1.1-2.45-2.42s1.1-2.42,2.45-2.42h19.68c1.35,0,2.47,1.1,2.47,2.42Z"/>
        <path class="st26" d="M428.44,395.57h-5.12s6.47-8.07,6.47-13.66c0-10.37-8.55-18.81-19.54-18.81v-2.36c.48-1.29-.59-2.36-1.94-2.36v-4.69c.03-2.59-4.72-4.72-4.72-4.72h-4.78s-4.78,2.14-5.06,4.72v4.69c-1.01,0-1.94,2.36-1.94,2.36v9.47c0,3.88,3.26,7.06,7.28,7.06-1.35,0-2.42,1.04-2.42,2.36s1.1,2.36,2.42,2.36h4.86c1.35,0,2.42-1.04,2.42-2.36s-1.1-2.36-2.42-2.36c4.02,0,7.28-3.18,7.28-7.06v-3.8c8.15,0,14.76,6.52,14.76,14.56s-6.63,14.56-14.76,14.56h-27.07c-1.35,0-2.45,1.1-2.45,2.42s1.1,2.42,2.45,2.42h44.3c1.35,0,2.47-1.1,2.47-2.42s-1.1-2.42-2.47-2.42l-.03.03ZM398.59,353.83h4.86v4.86h-4.86v-4.86ZM406.37,369.85c0,1.35-1.1,2.42-2.42,2.42h-4.86c-1.35,0-2.42-1.1-2.42-2.42v-7.28h9.7s0,7.28,0,7.28Z"/>
      </g>
    </g>
    <g class="st7">
      <text class="st2" transform="translate(221.48 365.24)"><tspan x="0" y="0">Análisis y</tspan></text>
      <text class="st2" transform="translate(227.24 394.84)"><tspan x="0" y="0">Estudios</tspan></text>
    </g>
    <g>
      <circle class="st11" cx="461.25" cy="487.95" r="52.12"/>
      <circle class="st1" cx="461.25" cy="487.95" r="43.69"/>
      <path class="st24" d="M469.54,489.75c3.29-2.56,5.43-6.58,5.43-11.08,0-7.67-6.16-13.92-13.72-13.92s-13.72,6.24-13.72,13.92c0,4.5,2.14,8.52,5.43,11.08-7.22,3.23-12.28,10.57-12.28,19.09,0,1.27,1.04,2.33,2.28,2.33s2.28-1.04,2.28-2.33c0-8.97,7.2-16.25,16.02-16.25s16.02,7.28,16.02,16.25c0,1.27,1.04,2.33,2.28,2.33s2.28-1.04,2.28-2.33c0-8.55-5.06-15.88-12.28-19.09h0ZM461.22,488.2c-5.06,0-9.16-4.19-9.16-9.28s4.1-9.28,9.16-9.28,9.16,4.16,9.16,9.28-4.1,9.28-9.16,9.28Z"/>
    </g>
    <g class="st7">
      <text class="st2" transform="translate(277.43 542.79)"><tspan x="0" y="0">Gastos de</tspan></text>
      <text class="st2" transform="translate(266.12 572.39)"><tspan x="0" y="0">Enfermeras</tspan></text>
    </g>
    <g>
      <circle class="st9" cx="723.72" cy="259.69" r="52.12"/>
      <circle class="st1" cx="723.72" cy="259.69" r="43.69"/>
      <g>
        <path class="st23" d="M748.8,259.52l-5.03-1.69-3.99-8.01c-.9-1.8-2.7-2.9-4.67-2.9h-4.08v-2.67c0-4.41-3.57-8.01-8.01-8.01h-20.04c-4.33,0-7.87,3.54-7.87,7.87v28.65c0,2.9,2.36,5.26,5.26,5.26h3.04c1.07,3.06,3.96,5.23,7.34,5.23s6.3-2.16,7.37-5.23h10.85c.17,0,.31,0,.45-.06v.06c1.07,3.06,3.96,5.23,7.34,5.23s6.3-2.16,7.37-5.23h3.04c2.9,0,5.2-2.36,5.2-5.23v-9.67c0-1.97-1.6-3.57-3.57-3.57h0l.03-.03ZM710.48,278.22c-1.43,0-2.61-1.18-2.61-2.61s1.18-2.61,2.61-2.61,2.61,1.18,2.61,2.61-1.15,2.61-2.61,2.61ZM726.14,273.1h-8.32c-1.1-3.01-3.99-5.17-7.42-5.17s-6.33,2.16-7.39,5.17h-3.09v-28.45c0-1.43,1.18-2.61,2.61-2.61h20.97c1.46,0,2.61,1.15,2.61,2.59v28.48h.03ZM736.71,278.22c-1.43,0-2.61-1.18-2.61-2.61s1.18-2.61,2.61-2.61,2.61,1.18,2.61,2.61-1.15,2.61-2.61,2.61ZM747.5,273.1h-3.04c-1.1-3.09-3.94-5.34-7.34-5.34-2,0-3.77.79-5.17,2.05v-18.08h3.6l3.96,8.24c.62,1.27,1.71,2.22,3.01,2.67l4.98,1.71v8.77h0v-.03Z"/>
        <path class="st27" d="M720.32,254.18c0,1.35-1.07,2.42-2.42,2.42h-2.42v2.42c0,1.35-1.07,2.42-2.42,2.42s-2.42-1.1-2.42-2.42v-2.42h-2.28c-1.15,0-2.25-.7-2.5-1.83-.39-1.6.82-3.04,2.36-3.04h2.42v-2.28c0-1.15.7-2.25,1.83-2.5,1.6-.39,3.04.82,3.04,2.36v2.42h2.42c1.35,0,2.42,1.1,2.42,2.42l-.03.03Z"/>
      </g>
    </g>
    <g class="st7">
      <text class="st2" transform="translate(785.37 243.38)"><tspan x="0" y="0">Traslados en</tspan></text>
      <text class="st2" transform="translate(957.52 243.38)"><tspan x="0" y="0">Ambulancia:</tspan></text>
      <text class="st3" transform="translate(790.21 275.6)"><tspan x="0" y="0">Terrestre o Aérea</tspan></text>
    </g>
    <g>
      <circle class="st12" cx="767.41" cy="374.71" r="52.12"/>
      <circle class="st1" cx="767.41" cy="374.71" r="43.69"/>
      <g>
        <path class="st25" d="M788.24,359.17h-7.73v-2.92c0-4.27-3.49-7.76-7.76-7.76h-10.68c-4.27,0-7.76,3.49-7.76,7.76v2.92h-7.79c-4.27,0-7.76,3.49-7.76,7.76v26.23c0,4.27,3.49,7.76,7.76,7.76h41.77c4.27,0,7.76-3.49,7.76-7.76v-26.23c0-4.27-3.49-7.76-7.76-7.76h-.06ZM759.17,356.75c0-1.32,1.18-2.42,2.59-2.42h10.37c1.43,0,2.59,1.15,2.59,2.59v2.28h-15.55v-2.42h0v-.03ZM749.44,395.1h-2.28c-1.43,0-2.59-1.15-2.59-2.59v-25.92c0-1.43,1.15-2.59,2.59-2.59h2.28v31.09ZM780.54,395.1h-26.23v-31.06h26.23v31.06ZM787.65,395.1h-2.28v-31.06h2.25c1.43,0,2.59,1.18,2.59,2.59v25.89c0,1.43-1.15,2.59-2.59,2.59h.03Z"/>
        <path class="st29" d="M772.1,382.47h-2.28v2.25c0,1.29-.93,2.47-2.19,2.59-1.43.14-2.64-1.01-2.64-2.42v-2.42h-2.28c-1.15,0-2.25-.7-2.5-1.83-.39-1.6.82-3.04,2.36-3.04h2.42v-2.25c0-1.15.7-2.25,1.83-2.53,1.57-.39,3.04.82,3.04,2.36v2.42h2.42c1.52,0,2.73,1.43,2.36,3.04-.28,1.12-1.38,1.83-2.5,1.83h-.03Z"/>
      </g>
    </g>
    <g>
      <circle class="st10" cx="707.87" cy="489.04" r="52.12"/>
      <circle class="st1" cx="707.84" cy="489.04" r="43.69"/>
      <path class="st28" d="M721.16,462.48c-5.34,0-9.33,1.41-13.47,4.89-4.13-3.49-8.1-4.89-13.47-4.89-10.71,0-19.43,8.71-19.43,19.43,0,4.47,1.57,8.32,3.88,11.64.03.06.03.08.08.14.11.28.31.51.48.76,0,0,.06.03.06.06,1.57,2.22,3.46,4.16,5.31,5.99l20.92,20.92c.59.56,1.35.87,2.11.87s1.52-.31,2.11-.87l20.89-20.92c1.86-1.83,3.74-3.8,5.31-5.99.03-.03.03-.06.06-.08.17-.2.34-.42.45-.65,2.36-3.4,4.05-7.31,4.05-11.84,0-10.71-8.71-19.43-19.43-19.43h0l.08-.03ZM726.87,495.76h-.37l-18.81,19.28-18.83-18.86c-.28-.28-.84-1.41-.84-1.41h12.12c.28,0,.59-.03.84-.11l3.99,9c.48,1.1,1.6,1.8,2.78,1.8h.06c1.29-.08,2.39-.98,2.73-2.22l3.77-13.1,1.18,2.78c.48,1.12,1.6,1.86,2.81,1.86h9.42c-.28.31-.56.62-.84.9v.08ZM732.69,488.96h-12.54l-3.71-8.21c-.51-1.15-1.63-1.91-2.92-1.83-1.29.08-2.36.96-2.7,2.19l-3.71,13.02-2.67-5.96c-.45-1.04-1.49-1.74-2.67-1.77-1.1.03-2.22.62-2.73,1.63l-.67,1.91h-15.26c-1.41-2.84-2.31-5.29-2.31-8.04,0-7.42,6.04-13.47,13.47-13.47,4.61,0,7.56,1.35,11.33,5.12,1.15,1.15,3.09,1.15,4.24,0,3.77-3.77,6.72-5.12,11.33-5.12,7.42,0,13.47,6.04,13.47,13.47,0,2.73-.93,5.17-1.91,7.48v-.42h-.03Z"/>
    </g>
    <g>
      <circle class="st8" cx="587.64" cy="544.87" r="52.12"/>
      <circle class="st1" cx="587.69" cy="544.87" r="43.69" transform="translate(-163.78 266.38) rotate(-22.5)"/>
      <g>
        <path class="st30" d="M607.12,572.05h-38.46c-4.5,0-8.15-3.65-8.15-8.15v-38.04c0-4.5,3.65-8.15,8.15-8.15h38.04c4.5,0,8.18,3.65,8.18,8.18v38.06c0,4.5-3.49,8.15-7.76,8.15h0v-.06ZM568.27,523.08c-1.15,0-1.94,2.73-1.94,2.73v37.73c0,1.49,1.24,2.73,2.73,2.73h38.26c1.49,0,2.73-1.21,2.73-2.73v-38.26c0-1.49-1.24-2.73-2.73-2.73h-39.05v.53h0Z"/>
        <path class="st18" d="M590.42,561.37h-.25c-1.21-.11-2.19-.98-2.42-2.16l-3.65-18.22-2.05,5.09c-.39,1.04-1.41,1.71-2.53,1.71h-5.43c-1.07,0-2.08-.56-2.53-1.55-1.01-2.16.53-4.3,2.61-4.3h3.51l4.75-11.72c.45-1.12,1.57-1.8,2.78-1.71,1.21.11,2.19.98,2.42,2.16l3.65,18.24,2.05-5.12c.42-1.04,2.53-.93,2.53-.93h5.45s2.73.42,2.73,1.94-2.73,2.92-2.73,2.92h-3.6l-4.75,11.89c-.42,1.04-1.43,1.71-2.53,1.71h0l-.03.03Z"/>
      </g>
    </g>
    <g class="st7">
      <text class="st2" transform="translate(542.97 643.05)"><tspan x="0" y="0">Sala de</tspan></text>
      <text class="st2" transform="translate(510.05 672.65)"><tspan x="0" y="0">Operaciones</tspan></text>
    </g>
    <g>
      <g>
        <g>
          <circle class="st1" cx="587.69" cy="372.14" r="59.32"/>
          <path class="st17" d="M611.34,375.09c0,14.79-10.35,22.15-22.63,26.45-.65.22-1.35.2-1.97-.03-12.31-4.24-22.66-11.64-22.66-26.43v-20.69c0-.79.31-1.55.87-2.08.56-.56,1.29-.87,2.08-.87,5.9,0,13.3-3.54,18.44-8.04.62-.53,1.43-.82,2.25-.82s1.63.28,2.25.82c5.17,4.53,12.54,8.04,18.44,8.04.79,0,1.55.31,2.08.87s.87,1.29.87,2.08v20.69h-.03Z"/>
          <path class="st15" d="M578.75,372.14l5.96,5.96,11.89-11.89"/>
        </g>
        <circle class="st14" cx="587.69" cy="372.14" r="52.51"/>
      </g>
      <circle class="st1" cx="587.64" cy="444.56" r="5.88"/>
      <circle class="st1" cx="587.64" cy="481.78" r="5.88"/>
      <circle class="st1" cx="641.13" cy="416.95" r="5.88"/>
      <circle class="st1" cx="532.38" cy="418.4" r="5.88"/>
      <circle class="st1" cx="513.62" cy="372.76" r="5.88"/>
      <circle class="st1" cx="658" cy="372.76" r="5.88"/>
      <circle class="st1" cx="641.13" cy="325.15" r="5.88"/>
      <circle class="st1" cx="675.84" cy="301.67" r="5.88"/>
      <circle class="st1" cx="497.43" cy="301.67" r="5.88"/>
      <circle class="st1" cx="528.38" cy="325.15" r="5.88"/>
      <path class="st16" d="M704.86,372.76h-44.9"/>
      <path class="st16" d="M514,372.76h-44.9"/>
      <path class="st16" d="M529.64,326.9l-35.06-28.05"/>
      <path class="st16" d="M675.53,298.84l-35.06,28.05"/>
      <path class="st16" d="M637.18,414.85l35.06,28.05"/>
      <path class="st16" d="M499.01,445.48l35.06-28.05"/>
      <circle class="st1" cx="704.15" cy="372.76" r="5.88"/>
      <circle class="st1" cx="468.95" cy="372.76" r="5.88"/>
      <circle class="st1" cx="669.96" cy="441.41" r="5.88"/>
      <circle class="st1" cx="503.3" cy="442.91" r="5.88"/>
      <line class="st16" x1="588.19" y1="444.56" x2="588.19" y2="481.78"/>
    </g>
    <text class="st0" transform="translate(762.23 531.04)"><tspan class="st20"><tspan x="0" y="0">Tratamiento de:</tspan></tspan><tspan class="st21"><tspan x="0" y="26.55">Radioterapia/Inhaloterapia</tspan></tspan><tspan class="st21"><tspan x="0" y="53.09">Fisioterapia/Quimioterapia</tspan></tspan></text>
    <g>
      <path class="st1" d="M837.95,342.9c0,1.69-1.16,2.87-2.82,2.87s-2.8-1.18-2.8-2.87,1.16-2.84,2.8-2.84,2.82,1.18,2.82,2.84Z"/>
      <path class="st1" d="M862.82,333.62v3.3h-4.59v12.03h-4v-12.03h-4.55v-3.3h13.15Z"/>
      <path class="st1" d="M874.22,344.08h-8.23c.37,1.33,1.36,2.08,2.69,2.08,1.01,0,1.99-.42,2.78-1.2l2.04,2.04c-1.2,1.36-2.98,2.1-5.16,2.1-3.87,0-6.26-2.39-6.26-6s2.47-6.1,6.17-6.1c4.14,0,6.24,2.78,5.97,7.09ZM870.45,342.01c0-1.36-.88-2.28-2.19-2.28s-2.1.92-2.36,2.28h4.55Z"/>
      <path class="st1" d="M883.94,336.97v3.57c-2.17-.22-3.61.74-3.81,2.39v6.04h-3.89v-11.84h3.89v1.97c.81-1.36,2.14-2.12,3.81-2.12Z"/>
      <path class="st1" d="M895.84,341.26v7.7h-3.83v-1.33c-.77.98-1.97,1.51-3.57,1.51-2.54,0-4.05-1.53-4.05-3.7s1.6-3.54,4.53-3.59h3.08v-.13c0-1.12-.77-1.77-2.25-1.77-.98,0-2.28.33-3.54.94l-1.07-2.63c1.86-.83,3.57-1.29,5.51-1.29,3.26,0,5.16,1.58,5.19,4.29ZM892.01,344.96v-1.03h-2.32c-1.09,0-1.64.39-1.64,1.23s.59,1.33,1.6,1.33c1.16,0,2.12-.63,2.36-1.53Z"/>
      <path class="st1" d="M911.46,343.1c0,3.61-2.14,6-5.43,6-1.51,0-2.74-.59-3.57-1.66v5.78h-3.89v-16.08h3.89v1.53c.83-1.07,2.01-1.66,3.48-1.66,3.3,0,5.51,2.43,5.51,6.1ZM907.55,343.01c0-1.75-1.03-2.95-2.56-2.95s-2.52,1.2-2.52,2.95,1.03,2.93,2.52,2.93,2.56-1.18,2.56-2.93Z"/>
      <path class="st1" d="M917.35,337.13v11.84h-3.87v-11.84h3.87ZM917.2,333.8c0,1.03-.74,1.77-1.77,1.77s-1.77-.74-1.77-1.77.74-1.79,1.77-1.79,1.77.74,1.77,1.79Z"/>
      <path class="st1" d="M930.85,341.26v7.7h-3.83v-1.33c-.77.98-1.97,1.51-3.57,1.51-2.54,0-4.05-1.53-4.05-3.7s1.6-3.54,4.53-3.59h3.08v-.13c0-1.12-.77-1.77-2.25-1.77-.98,0-2.28.33-3.54.94l-1.07-2.63c1.86-.83,3.57-1.29,5.51-1.29,3.26,0,5.16,1.58,5.19,4.29ZM927.02,344.96v-1.03h-2.32c-1.09,0-1.64.39-1.64,1.23s.59,1.33,1.6,1.33c1.16,0,2.12-.63,2.36-1.53Z"/>
      <path class="st1" d="M944.05,333.62v15.34h-4v-15.34h4Z"/>
      <path class="st1" d="M959.13,341.5v7.46h-3.87v-6.35c0-1.33-.79-2.17-2.01-2.17-1.31.02-2.17.92-2.32,2.25v6.26h-3.89v-11.84h3.89v1.93c.83-1.36,2.19-2.08,3.92-2.08,2.58,0,4.29,1.75,4.29,4.53Z"/>
      <path class="st1" d="M969.48,348.35c-.85.5-2.04.79-3.2.79-2.3.02-3.96-1.33-3.96-3.79v-5.08h-1.64v-2.58h1.64v-3.28h3.87v3.28h3.06v2.58h-3.06v4.46c0,.88.39,1.27,1.07,1.25.39,0,.9-.15,1.47-.39l.74,2.76Z"/>
      <path class="st1" d="M982.45,344.08h-8.23c.37,1.33,1.36,2.08,2.69,2.08,1.01,0,1.99-.42,2.78-1.2l2.04,2.04c-1.2,1.36-2.98,2.1-5.16,2.1-3.87,0-6.26-2.39-6.26-6s2.47-6.1,6.17-6.1c4.14,0,6.24,2.78,5.97,7.09ZM978.69,342.01c0-1.36-.88-2.28-2.19-2.28s-2.1.92-2.36,2.28h4.55Z"/>
      <path class="st1" d="M996.57,341.5v7.46h-3.87v-6.35c0-1.33-.79-2.17-2.01-2.17-1.31.02-2.17.92-2.32,2.25v6.26h-3.89v-11.84h3.89v1.93c.83-1.36,2.19-2.08,3.92-2.08,2.58,0,4.29,1.75,4.29,4.53Z"/>
      <path class="st1" d="M1003.35,339.66c-.66,0-1.12.24-1.12.74,0,1.55,6.21.81,6.19,4.92,0,2.43-2.12,3.81-5.01,3.81-1.99,0-3.9-.57-5.34-1.68l1.22-2.52c1.36.94,2.89,1.47,4.2,1.47.72,0,1.25-.24,1.25-.72,0-1.62-6.1-.81-6.1-4.9,0-2.47,2.08-3.83,4.86-3.83,1.71,0,3.44.48,4.92,1.38l-1.31,2.54c-1.47-.77-2.8-1.2-3.76-1.2Z"/>
      <path class="st1" d="M1014.41,337.13v11.84h-3.87v-11.84h3.87ZM1014.25,333.8c0,1.03-.74,1.77-1.77,1.77s-1.77-.74-1.77-1.77.74-1.79,1.77-1.79,1.77.74,1.77,1.79Z"/>
      <path class="st1" d="M1019.79,337.13l2.47,8.23,2.5-8.23h3.89l-4.44,11.84h-4l-4.42-11.84h4Z"/>
      <path class="st1" d="M1040.16,341.26v7.7h-3.83v-1.33c-.77.98-1.97,1.51-3.57,1.51-2.54,0-4.05-1.53-4.05-3.7s1.6-3.54,4.53-3.59h3.08v-.13c0-1.12-.77-1.77-2.25-1.77-.98,0-2.28.33-3.54.94l-1.07-2.63c1.86-.83,3.57-1.29,5.51-1.29,3.26,0,5.16,1.58,5.19,4.29ZM1036.33,344.96v-1.03h-2.32c-1.09,0-1.64.39-1.64,1.23s.59,1.33,1.6,1.33c1.16,0,2.12-.63,2.36-1.53Z"/>
      <path class="st1" d="M837.95,369.16c0,1.68-1.16,2.87-2.82,2.87s-2.8-1.18-2.8-2.87,1.16-2.84,2.8-2.84,2.82,1.18,2.82,2.84Z"/>
      <path class="st1" d="M855.01,359.88v15.34h-4v-15.34h4Z"/>
      <path class="st1" d="M870.08,367.76v7.46h-3.87v-6.35c0-1.33-.79-2.17-2.01-2.17-1.31.02-2.17.92-2.32,2.25v6.26h-3.89v-11.84h3.89v1.93c.83-1.36,2.19-2.08,3.92-2.08,2.58,0,4.29,1.75,4.29,4.53Z"/>
      <path class="st1" d="M880.43,374.61c-.85.5-2.04.79-3.2.79-2.3.02-3.96-1.33-3.96-3.79v-5.08h-1.64v-2.58h1.64v-3.28h3.87v3.28h3.06v2.58h-3.06v4.46c0,.88.39,1.27,1.07,1.25.39,0,.9-.15,1.47-.39l.74,2.76Z"/>
      <path class="st1" d="M893.41,370.34h-8.23c.37,1.33,1.36,2.08,2.69,2.08,1.01,0,1.99-.42,2.78-1.2l2.04,2.04c-1.2,1.36-2.98,2.1-5.16,2.1-3.87,0-6.26-2.39-6.26-6s2.47-6.1,6.17-6.1c4.14,0,6.24,2.78,5.97,7.09ZM889.65,368.27c0-1.36-.88-2.28-2.19-2.28s-2.1.92-2.36,2.28h4.55Z"/>
      <path class="st1" d="M903.13,363.23v3.57c-2.17-.22-3.61.74-3.81,2.39v6.04h-3.89v-11.84h3.89v1.97c.81-1.36,2.14-2.12,3.81-2.12Z"/>
      <path class="st1" d="M924.88,367.76v7.46h-3.9v-6.35c0-1.36-.74-2.17-1.95-2.17-1.38.02-2.23,1.12-2.23,2.67v5.84h-3.89v-6.35c0-1.36-.74-2.17-1.95-2.17-1.38.02-2.25,1.12-2.25,2.67v5.84h-3.87v-11.84h3.87v1.95c.81-1.38,2.14-2.1,3.85-2.1,1.93,0,3.35.98,3.94,2.65.77-1.75,2.21-2.65,4.14-2.65,2.56,0,4.25,1.75,4.25,4.53Z"/>
      <path class="st1" d="M938.71,370.34h-8.23c.37,1.33,1.36,2.08,2.69,2.08,1.01,0,1.99-.42,2.78-1.2l2.04,2.04c-1.2,1.36-2.98,2.1-5.16,2.1-3.87,0-6.26-2.39-6.26-6s2.47-6.1,6.17-6.1c4.14,0,6.24,2.78,5.97,7.09ZM934.95,368.27c0-1.36-.88-2.28-2.19-2.28s-2.1.92-2.36,2.28h4.55Z"/>
      <path class="st1" d="M952.67,358.99v16.24h-3.89v-1.53c-.81,1.09-2.01,1.69-3.5,1.69-3.33,0-5.51-2.45-5.51-6.13s2.17-6,5.43-6c1.53,0,2.76.61,3.59,1.68v-5.95h3.89ZM948.78,369.36c0-1.77-1.03-2.95-2.54-2.95s-2.56,1.2-2.56,2.95,1.03,2.95,2.56,2.95,2.54-1.2,2.54-2.95Z"/>
      <path class="st1" d="M959.63,363.39v11.84h-3.87v-11.84h3.87ZM959.48,360.06c0,1.03-.74,1.77-1.77,1.77s-1.77-.74-1.77-1.77.74-1.79,1.77-1.79,1.77.74,1.77,1.79Z"/>
      <path class="st1" d="M973.13,367.52v7.7h-3.83v-1.33c-.77.98-1.97,1.51-3.57,1.51-2.54,0-4.05-1.53-4.05-3.7s1.6-3.54,4.53-3.59h3.08v-.13c0-1.12-.77-1.77-2.25-1.77-.98,0-2.28.33-3.54.94l-1.07-2.63c1.86-.83,3.57-1.29,5.51-1.29,3.26,0,5.16,1.58,5.19,4.29ZM969.3,371.22v-1.03h-2.32c-1.09,0-1.64.39-1.64,1.23s.59,1.33,1.6,1.33c1.16,0,2.12-.63,2.36-1.53Z"/>
      <path class="st1" d="M837.95,395.42c0,1.69-1.16,2.87-2.82,2.87s-2.8-1.18-2.8-2.87,1.16-2.84,2.8-2.84,2.82,1.18,2.82,2.84Z"/>
      <path class="st1" d="M857.87,398.25c1.77,0,3-1.2,3-3.2v-8.91h4v8.91c0,4.05-2.71,6.61-7.02,6.61s-7.11-2.56-7.11-6.61v-8.91h4v8.91c0,1.97,1.31,3.2,3.13,3.2Z"/>
      <path class="st1" d="M879.69,394.02v7.46h-3.87v-6.35c0-1.33-.79-2.17-2.01-2.17-1.31.02-2.17.92-2.32,2.25v6.26h-3.89v-11.84h3.89v1.93c.83-1.36,2.19-2.08,3.92-2.08,2.58,0,4.29,1.75,4.29,4.53Z"/>
      <path class="st1" d="M886.21,389.65v11.84h-3.87v-11.84h3.87ZM886.06,386.32c0,1.03-.74,1.77-1.77,1.77s-1.77-.74-1.77-1.77.74-1.79,1.77-1.79,1.77.74,1.77,1.79Z"/>
      <path class="st1" d="M901.13,385.25v16.24h-3.89v-1.53c-.81,1.09-2.01,1.68-3.5,1.68-3.33,0-5.51-2.45-5.51-6.13s2.17-6,5.43-6c1.53,0,2.76.61,3.59,1.68v-5.95h3.89ZM897.24,395.62c0-1.77-1.03-2.95-2.54-2.95s-2.56,1.2-2.56,2.95,1.03,2.95,2.56,2.95,2.54-1.2,2.54-2.95Z"/>
      <path class="st1" d="M914.75,393.78v7.7h-3.83v-1.33c-.77.98-1.97,1.51-3.57,1.51-2.54,0-4.05-1.53-4.05-3.7s1.6-3.54,4.53-3.59h3.08v-.13c0-1.12-.77-1.77-2.25-1.77-.98,0-2.28.33-3.54.94l-1.07-2.63c1.86-.83,3.57-1.29,5.51-1.29,3.26,0,5.16,1.58,5.19,4.29ZM910.92,397.48v-1.03h-2.32c-1.09,0-1.64.39-1.64,1.23s.59,1.33,1.6,1.33c1.16,0,2.12-.63,2.36-1.53Z"/>
      <path class="st1" d="M929.32,385.25v16.24h-3.89v-1.53c-.81,1.09-2.01,1.68-3.5,1.68-3.33,0-5.51-2.45-5.51-6.13s2.17-6,5.43-6c1.53,0,2.76.61,3.59,1.68v-5.95h3.89ZM925.43,395.62c0-1.77-1.03-2.95-2.54-2.95s-2.56,1.2-2.56,2.95,1.03,2.95,2.56,2.95,2.54-1.2,2.54-2.95Z"/>
      <path class="st1" d="M950.92,385.25v16.24h-3.89v-1.53c-.81,1.09-2.01,1.68-3.5,1.68-3.33,0-5.51-2.45-5.51-6.13s2.17-6,5.43-6c1.53,0,2.76.61,3.59,1.68v-5.95h3.89ZM947.03,395.62c0-1.77-1.03-2.95-2.54-2.95s-2.56,1.2-2.56,2.95,1.03,2.95,2.56,2.95,2.54-1.2,2.54-2.95Z"/>
      <path class="st1" d="M965.19,396.6h-8.23c.37,1.33,1.36,2.08,2.69,2.08,1.01,0,1.99-.42,2.78-1.2l2.04,2.04c-1.2,1.36-2.98,2.1-5.16,2.1-3.87,0-6.26-2.38-6.26-6s2.47-6.1,6.17-6.1c4.14,0,6.24,2.78,5.97,7.09ZM961.42,394.53c0-1.36-.88-2.28-2.19-2.28s-2.1.92-2.36,2.28h4.55Z"/>
      <path class="st1" d="M981.05,389.43c-2.36,0-4.16,1.86-4.16,4.31s1.79,4.35,4.16,4.35c1.27,0,2.74-.7,3.81-1.79l2.34,2.52c-1.64,1.73-4.09,2.84-6.37,2.84-4.62,0-8.05-3.37-8.05-7.88s3.52-7.75,8.21-7.75c2.28,0,4.66,1.01,6.19,2.63l-2.32,2.78c-1.01-1.23-2.47-2.01-3.81-2.01Z"/>
      <path class="st1" d="M1000.46,389.65v11.84h-3.89v-1.93c-.81,1.38-2.1,2.08-3.79,2.1-2.56,0-4.22-1.77-4.22-4.53v-7.48h3.89v6.37c0,1.33.74,2.14,1.9,2.14,1.38-.02,2.21-1.12,2.21-2.67v-5.84h3.89Z"/>
      <path class="st1" d="M1007.32,389.65v11.84h-3.87v-11.84h3.87ZM1007.16,386.32c0,1.03-.74,1.77-1.77,1.77s-1.77-.74-1.77-1.77.74-1.79,1.77-1.79,1.77.74,1.77,1.79Z"/>
      <path class="st1" d="M1022.24,385.25v16.24h-3.89v-1.53c-.81,1.09-2.01,1.68-3.5,1.68-3.33,0-5.51-2.45-5.51-6.13s2.17-6,5.43-6c1.53,0,2.76.61,3.59,1.68v-5.95h3.89ZM1018.34,395.62c0-1.77-1.03-2.95-2.54-2.95s-2.56,1.2-2.56,2.95,1.03,2.95,2.56,2.95,2.54-1.2,2.54-2.95Z"/>
      <path class="st1" d="M1035.85,393.78v7.7h-3.83v-1.33c-.77.98-1.97,1.51-3.57,1.51-2.54,0-4.05-1.53-4.05-3.7s1.6-3.54,4.53-3.59h3.08v-.13c0-1.12-.77-1.77-2.25-1.77-.98,0-2.28.33-3.54.94l-1.07-2.63c1.86-.83,3.57-1.29,5.51-1.29,3.26,0,5.16,1.58,5.19,4.29ZM1032.02,397.48v-1.03h-2.32c-1.09,0-1.64.39-1.64,1.23s.59,1.33,1.6,1.33c1.16,0,2.12-.63,2.36-1.53Z"/>
      <path class="st1" d="M1050.42,385.25v16.24h-3.89v-1.53c-.81,1.09-2.01,1.68-3.5,1.68-3.33,0-5.51-2.45-5.51-6.13s2.17-6,5.43-6c1.53,0,2.76.61,3.59,1.68v-5.95h3.89ZM1046.53,395.62c0-1.77-1.03-2.95-2.54-2.95s-2.56,1.2-2.56,2.95,1.03,2.95,2.56,2.95,2.54-1.2,2.54-2.95Z"/>
      <path class="st1" d="M1065.48,395.55c0,3.65-2.58,6.06-6.48,6.06s-6.46-2.41-6.46-6.06,2.56-6.04,6.46-6.04,6.48,2.41,6.48,6.04ZM1056.46,395.6c0,1.77,1.03,2.95,2.54,2.95s2.56-1.18,2.56-2.95-1.03-2.93-2.56-2.93-2.54,1.18-2.54,2.93Z"/>
      <path class="st1" d="M1071.61,392.18c-.66,0-1.12.24-1.12.74,0,1.55,6.21.81,6.19,4.92,0,2.43-2.12,3.81-5.01,3.81-1.99,0-3.9-.57-5.34-1.68l1.22-2.52c1.36.94,2.89,1.47,4.2,1.47.72,0,1.25-.24,1.25-.72,0-1.62-6.1-.81-6.1-4.9,0-2.47,2.08-3.83,4.86-3.83,1.71,0,3.44.48,4.92,1.38l-1.31,2.54c-1.47-.77-2.8-1.2-3.76-1.2Z"/>
      <path class="st1" d="M853.42,415.69c-2.36,0-4.16,1.86-4.16,4.31s1.79,4.35,4.16,4.35c1.27,0,2.74-.7,3.81-1.79l2.34,2.52c-1.64,1.73-4.09,2.84-6.37,2.84-4.62,0-8.05-3.37-8.05-7.88s3.52-7.75,8.21-7.75c2.28,0,4.66,1.01,6.19,2.63l-2.32,2.78c-1.01-1.23-2.47-2.01-3.81-2.01Z"/>
      <path class="st1" d="M872.98,421.82c0,3.65-2.58,6.06-6.48,6.06s-6.46-2.41-6.46-6.06,2.56-6.04,6.46-6.04,6.48,2.41,6.48,6.04ZM863.97,421.86c0,1.77,1.03,2.95,2.54,2.95s2.56-1.18,2.56-2.95-1.03-2.93-2.56-2.93-2.54,1.18-2.54,2.93Z"/>
      <path class="st1" d="M882.68,415.75v3.57c-2.17-.22-3.61.74-3.81,2.38v6.04h-3.89v-11.84h3.89v1.97c.81-1.36,2.14-2.12,3.81-2.12Z"/>
      <path class="st1" d="M896.35,421.82c0,3.65-2.58,6.06-6.48,6.06s-6.46-2.41-6.46-6.06,2.56-6.04,6.46-6.04,6.48,2.41,6.48,6.04ZM887.34,421.86c0,1.77,1.03,2.95,2.54,2.95s2.56-1.18,2.56-2.95-1.03-2.93-2.56-2.93-2.54,1.18-2.54,2.93Z"/>
      <path class="st1" d="M910.45,420.28v7.46h-3.87v-6.35c0-1.33-.79-2.17-2.01-2.17-1.31.02-2.17.92-2.32,2.25v6.26h-3.89v-11.84h3.89v1.93c.83-1.36,2.19-2.08,3.92-2.08,2.58,0,4.29,1.75,4.29,4.53Z"/>
      <path class="st1" d="M923.62,420.04v7.7h-3.83v-1.33c-.77.99-1.97,1.51-3.57,1.51-2.54,0-4.05-1.53-4.05-3.7s1.6-3.54,4.53-3.59h3.08v-.13c0-1.12-.77-1.77-2.25-1.77-.98,0-2.28.33-3.54.94l-1.07-2.63c1.86-.83,3.57-1.29,5.51-1.29,3.26,0,5.16,1.58,5.19,4.29ZM919.79,423.74v-1.03h-2.32c-1.09,0-1.64.39-1.64,1.22s.59,1.33,1.6,1.33c1.16,0,2.12-.63,2.36-1.53Z"/>
      <path class="st1" d="M933.95,415.75v3.57c-2.17-.22-3.61.74-3.81,2.38v6.04h-3.89v-11.84h3.89v1.97c.81-1.36,2.14-2.12,3.81-2.12Z"/>
      <path class="st1" d="M939.53,415.91v11.84h-3.87v-11.84h3.87ZM939.38,412.58c0,1.03-.74,1.77-1.77,1.77s-1.77-.74-1.77-1.77.74-1.79,1.77-1.79,1.77.74,1.77,1.79Z"/>
      <path class="st1" d="M954.47,421.82c0,3.65-2.58,6.06-6.48,6.06s-6.46-2.41-6.46-6.06,2.56-6.04,6.46-6.04,6.48,2.41,6.48,6.04ZM945.46,421.86c0,1.77,1.03,2.95,2.54,2.95s2.56-1.18,2.56-2.95-1.03-2.93-2.56-2.93-2.54,1.18-2.54,2.93Z"/>
      <path class="st1" d="M960.6,418.45c-.66,0-1.12.24-1.12.74,0,1.55,6.21.81,6.19,4.92,0,2.43-2.12,3.81-5.01,3.81-1.99,0-3.9-.57-5.34-1.68l1.23-2.52c1.36.94,2.89,1.47,4.2,1.47.72,0,1.25-.24,1.25-.72,0-1.62-6.1-.81-6.1-4.9,0-2.47,2.08-3.83,4.86-3.83,1.71,0,3.44.48,4.92,1.38l-1.31,2.54c-1.47-.77-2.8-1.2-3.76-1.2Z"/>
    </g>
  </g>
</svg>