<svg width="530" height="1157" fill="none" xmlns="http://www.w3.org/2000/svg"><path opacity=".2" d="M543 190.5C113.383 90.612 133.5 46.942-1187 46.942V0H543v190.5Z" fill="#223E99"/><path opacity=".4" d="M542 165.5C112.383 65.612 132.5 46.942-1188 46.942V0H542v165.5Z" fill="#223E99"/><path d="M544 134C113.886 42.84-115.475 42.84-1188 42.84V0H544v134Z" fill="#223E99"/><path opacity=".2" d="M1 966c429.617 99.89 409.5 143.56 1730 143.56v46.94H1V966Z" fill="#fff"/><path opacity=".4" d="M2 991c429.617 99.89 409.5 118.56 1730 118.56v46.94H2V991Z" fill="#fff"/><path d="M0 1022.5c430.114 91.16 659.475 91.16 1732 91.16v42.84H0v-134Z" fill="#fff"/></svg>