<svg width="1728" height="805" fill="none" xmlns="http://www.w3.org/2000/svg"><path opacity=".35" fill="#223E99" d="M0 0h1728v777H0z"/><path opacity=".2" d="M1729 190.5C1299.38 90.612 1319.5 46.942-1 46.942V0h1730v190.5Z" fill="#223E99"/><path opacity=".4" d="M1728 165.5C1298.38 65.612 1318.5 46.942-2 46.942V0h1730v165.5Z" fill="#223E99"/><path d="M1730 134C1299.89 42.84 1070.53 42.84-2 42.84V0h1732v134Z" fill="#223E99"/><path opacity=".2" d="M-1 614c429.617 99.888 409.5 143.558 1730 143.558V804.5H-1V614Z" fill="#fff"/><path opacity=".4" d="M0 639c429.617 99.888 409.5 118.558 1730 118.558V804.5H0V639Z" fill="#fff"/><path d="M-2 670.5c430.114 91.16 659.475 91.16 1732 91.16v42.84H-2v-134Z" fill="#fff"/></svg>