<svg width="530" height="718" fill="none" xmlns="http://www.w3.org/2000/svg"><path fill="url(#a)" d="M-14 0h551v653H-14z"/><g opacity=".4"><path d="M566.566 346.149c-5.704.629-10.801-3.362-11.539-8.871-13.339-104.177-102.701-182.716-207.876-182.716-115.563 0-209.589 94.047-209.589 209.611s94.026 209.611 209.589 209.611c9.783 0 19.673-.694 29.412-2.06 5.618-.781 10.845 3.166 11.626 8.762.781 5.596-3.145 10.802-8.741 11.626a233.975 233.975 0 0 1-32.297 2.234l-3.752-.065C218.205 592.286 117 489.823 117 364.151 117 238.48 220.244 134 347.151 134c115.477 0 213.624 86.239 228.287 200.632.715 5.595-3.276 10.758-8.872 11.517Z" fill="url(#b)"/><path d="m675.363 395.927-136.126-51.882a10.536 10.536 0 0 0-7.288 0l-136.104 51.861c-3.969 1.475-6.637 5.357-6.637 9.608v146.299c0 90.338 136.863 144.259 142.741 146.537 1.193.433 2.429.65 3.666.65l6.702-1.908c21.169-8.72 139.661-61.253 139.661-145.301V405.514c0-4.251-2.646-8.133-6.615-9.608v.021Zm-13.882 16.702v139.184c0 69.125-107.517 117.971-125.845 125.801-18.327-7.83-125.844-56.611-125.844-125.78V412.629l125.844-47.935 125.845 47.935Z" fill="url(#c)"/><path d="M498.764 335.26a97.58 97.58 0 0 1-.716 11.713c-.325 2.754-1.8 5.314-4.013 7.006a9.874 9.874 0 0 1-7.548 1.93c-5.509-.651-9.522-5.791-8.849-11.431.368-3.036.564-6.138.564-9.218 0-36.135-29.477-65.525-65.677-65.525-23.078 0-44.747 12.407-56.524 32.34-1.779 3.015-5.076 4.815-8.85 4.837h-.021c-3.753 0-7.071-1.822-8.85-4.837-11.821-19.933-33.467-32.34-56.524-32.34-36.222 0-65.677 29.39-65.677 65.525 0 31.516 19.608 66.827 58.303 104.958 29.108 28.674 60.97 50.58 72.769 58.324 4.468-2.907 11.865-7.874 21.018-14.576a10.139 10.139 0 0 1 7.613-1.887 10.312 10.312 0 0 1 6.746 4.099 10.145 10.145 0 0 1 1.887 7.614 10.311 10.311 0 0 1-4.1 6.745c-15.009 10.997-25.746 17.721-27.741 18.936a10.292 10.292 0 0 1-5.423 1.539 10.3 10.3 0 0 1-5.335-1.474c-5.987-3.644-146.32-89.818-146.32-184.278 0-47.479 38.694-86.109 86.26-86.109 24.965 0 49.063 11.192 65.374 30.106 16.332-18.914 40.43-30.106 65.395-30.106 47.566 0 86.239 38.63 86.239 86.109Z" fill="url(#d)"/><path d="M608.926 479.498h-42.078V437.42a10.275 10.275 0 0 0-10.281-10.281h-41.883a10.275 10.275 0 0 0-10.281 10.281v42.078h-42.079a10.275 10.275 0 0 0-10.281 10.281v41.883a10.275 10.275 0 0 0 10.281 10.281h42.079v42.079a10.275 10.275 0 0 0 10.281 10.281h41.883a10.275 10.275 0 0 0 10.281-10.281v-42.079h42.078a10.275 10.275 0 0 0 10.281-10.281v-41.883a10.275 10.275 0 0 0-10.281-10.281Zm-94.242 41.905h-42.057v-21.321h42.057a10.275 10.275 0 0 0 10.281-10.281v-42.079h21.321v42.079a10.275 10.275 0 0 0 10.281 10.281h42.078v21.321h-42.078a10.275 10.275 0 0 0-10.281 10.281v42.078h-21.321v-42.078a10.275 10.275 0 0 0-10.281-10.281Z" fill="url(#e)"/></g><path opacity=".2" d="M538 190.5C108.383 90.612 128.5 46.942-1192 46.941V0H538v190.5Z" fill="#fff"/><path opacity=".4" d="M537 165.5C107.383 65.612 127.5 46.942-1193 46.941V0H537v165.5Z" fill="#fff"/><path d="M539 134C108.886 42.84-120.475 42.84-1193 42.84V0H539v134Z" fill="#fff"/><path opacity=".2" d="M-13 527c429.617 99.888 409.5 143.558 1730 143.558V717.5H-13V527Z" fill="#fff"/><path opacity=".4" d="M-12 552c429.617 99.888 409.5 118.558 1730 118.558V717.5H-12V552Z" fill="#fff"/><path d="M-14 583.5c430.114 91.16 659.475 91.16 1732 91.16v42.84H-14v-134Z" fill="#fff"/><defs><linearGradient id="a" x1="261.5" y1="0" x2="261.5" y2="653" gradientUnits="userSpaceOnUse"><stop stop-color="#008AED"/><stop offset="1" stop-color="#004E87"/></linearGradient><linearGradient id="b" x1="114.652" y1="151.636" x2="391.152" y2="675.299" gradientUnits="userSpaceOnUse"><stop stop-color="#fff"/><stop offset="1" stop-color="#539EC8"/></linearGradient><linearGradient id="c" x1="387.709" y1="357.018" x2="622.389" y2="724.4" gradientUnits="userSpaceOnUse"><stop stop-color="#fff"/><stop offset="1" stop-color="#539EC8"/></linearGradient><linearGradient id="d" x1="193.943" y1="259.566" x2="346.484" y2="583.122" gradientUnits="userSpaceOnUse"><stop stop-color="#fff"/><stop offset="1" stop-color="#539EC8"/></linearGradient><linearGradient id="e" x1="451.188" y1="433.543" x2="551.367" y2="624.027" gradientUnits="userSpaceOnUse"><stop stop-color="#fff"/><stop offset="1" stop-color="#539EC8"/></linearGradient></defs></svg>