<svg width="1728" height="595" fill="none" xmlns="http://www.w3.org/2000/svg"><path fill="url(#a)" d="M-2 5h1732v565H-2z"/><path d="M1428.57 217.149c-5.71.629-10.81-3.362-11.54-8.871-13.34-104.177-102.7-182.716-207.88-182.716-115.56 0-209.588 94.047-209.588 209.611s94.028 209.611 209.588 209.611c9.78 0 19.67-.694 29.41-2.06 5.62-.781 10.85 3.166 11.63 8.762.78 5.596-3.15 10.802-8.74 11.626a234.04 234.04 0 0 1-32.3 2.234l-3.75-.065C1080.21 463.286 979 360.823 979 235.151 979 109.48 1082.24 5 1209.15 5c115.48 0 213.63 86.239 228.29 200.632.71 5.595-3.28 10.758-8.87 11.517Z" fill="url(#b)"/><path d="m1537.36 266.927-136.12-51.882a10.53 10.53 0 0 0-7.29 0l-136.1 51.861c-3.97 1.474-6.64 5.357-6.64 9.608v146.298c0 90.339 136.86 144.26 142.74 146.537 1.19.434 2.43.651 3.66.651l6.71-1.909c21.17-8.719 139.66-61.252 139.66-145.3V276.514c0-4.251-2.65-8.134-6.62-9.608v.021Zm-13.88 16.701v139.184c0 69.126-107.52 117.972-125.84 125.802-18.33-7.83-125.85-56.611-125.85-125.78V283.628l125.85-47.934 125.84 47.934Z" fill="url(#c)"/><path d="M1360.76 206.26c0 3.84-.23 7.787-.71 11.713-.33 2.755-1.8 5.314-4.01 7.006-2.2 1.67-4.88 2.342-7.55 1.93-5.51-.65-9.52-5.791-8.85-11.43.37-3.037.56-6.139.56-9.219 0-36.135-29.47-65.525-65.68-65.525-23.07 0-44.74 12.407-56.52 32.34-1.78 3.015-5.07 4.815-8.85 4.837h-.02c-3.75 0-7.07-1.822-8.85-4.837-11.82-19.933-33.47-32.34-56.52-32.34-36.23 0-65.68 29.39-65.68 65.525 0 31.516 19.61 66.827 58.3 104.958 29.11 28.674 60.97 50.581 72.77 58.324 4.47-2.906 11.87-7.873 21.02-14.576a10.137 10.137 0 0 1 7.61-1.887c2.73.434 5.12 1.887 6.75 4.1a10.13 10.13 0 0 1 1.88 7.613 10.288 10.288 0 0 1-4.09 6.745c-15.01 10.997-25.75 17.721-27.75 18.936a10.268 10.268 0 0 1-5.42 1.54c-1.86 0-3.73-.499-5.33-1.475-5.99-3.644-146.32-89.818-146.32-184.278 0-47.479 38.69-86.108 86.26-86.108 24.96 0 49.06 11.192 65.37 30.105 16.33-18.913 40.43-30.105 65.39-30.105 47.57 0 86.24 38.629 86.24 86.108Z" fill="url(#d)"/><path d="M1470.93 350.498h-42.08V308.42c0-5.683-4.6-10.281-10.28-10.281h-41.89c-5.68 0-10.28 4.598-10.28 10.281v42.078h-42.08c-5.68 0-10.28 4.598-10.28 10.281v41.883c0 5.683 4.6 10.281 10.28 10.281h42.08v42.079c0 5.682 4.6 10.281 10.28 10.281h41.89c5.68 0 10.28-4.599 10.28-10.281v-42.079h42.08c5.68 0 10.28-4.598 10.28-10.281v-41.883c0-5.683-4.6-10.281-10.28-10.281Zm-94.25 41.905h-42.05v-21.321h42.05c5.69 0 10.29-4.598 10.29-10.281v-42.079h21.32v42.079a10.27 10.27 0 0 0 10.28 10.281h42.08v21.321h-42.08a10.27 10.27 0 0 0-10.28 10.281v42.078h-21.32v-42.078c0-5.683-4.6-10.281-10.29-10.281Z" fill="url(#e)"/><path opacity=".2" d="M1731 190.5C1301.38 90.612 1321.5 46.942 1 46.942V0h1730v190.5Z" fill="#fff"/><path opacity=".4" d="M1730 165.5C1300.38 65.612 1320.5 46.942 0 46.942V0h1730v165.5Z" fill="#fff"/><path d="M1732 134C1301.89 42.84 1072.53 42.84 0 42.84V0h1732v134Z" fill="#fff"/><path opacity=".2" d="M-9 404c429.617 99.888 409.5 143.558 1730 143.558V594.5H-9V404Z" fill="#fff"/><path opacity=".4" d="M-8 429c429.617 99.888 409.5 118.558 1730 118.558V594.5H-8V429Z" fill="#fff"/><path d="M-10 460.5c430.114 91.16 659.475 91.16 1732 91.16v42.84H-10v-134Z" fill="#fff"/><defs><linearGradient id="a" x1="864" y1="5" x2="864" y2="570" gradientUnits="userSpaceOnUse"><stop stop-color="#008AED"/><stop offset="1" stop-color="#004E87"/></linearGradient><linearGradient id="b" x1="976.652" y1="22.636" x2="1253.15" y2="546.299" gradientUnits="userSpaceOnUse"><stop stop-color="#fff"/><stop offset="1" stop-color="#539EC8"/></linearGradient><linearGradient id="c" x1="1249.71" y1="228.017" x2="1484.39" y2="595.4" gradientUnits="userSpaceOnUse"><stop stop-color="#fff"/><stop offset="1" stop-color="#539EC8"/></linearGradient><linearGradient id="d" x1="1055.94" y1="130.566" x2="1208.48" y2="454.122" gradientUnits="userSpaceOnUse"><stop stop-color="#fff"/><stop offset="1" stop-color="#539EC8"/></linearGradient><linearGradient id="e" x1="1313.19" y1="304.543" x2="1413.37" y2="495.027" gradientUnits="userSpaceOnUse"><stop stop-color="#fff"/><stop offset="1" stop-color="#539EC8"/></linearGradient></defs></svg>