<svg width="530" height="625" fill="none" xmlns="http://www.w3.org/2000/svg"><path fill="url(#a)" d="M0 9h594v579H0z"/><path opacity=".2" d="M595 190.5C165.383 90.612 185.5 46.942-1135 46.942V0H595v190.5Z" fill="#fff"/><path opacity=".4" d="M594 165.5C164.383 65.612 184.5 46.942-1136 46.942V0H594v165.5Z" fill="#fff"/><path d="M596 134C165.886 42.84-63.475 42.84-1136 42.84V0H596v134Z" fill="#fff"/><path opacity=".2" d="M-58.002 434C370.623 533.888 350.552 577.558 1668 577.558V624.5H-58.002V434Z" fill="#fff"/><path opacity=".4" d="M-58.002 459C370.623 558.888 350.552 577.558 1668 577.558V624.5H-58.002V459Z" fill="#fff"/><path d="M-59 490.5c429.121 91.16 657.952 91.16 1728 91.16v42.84H-59v-134Z" fill="#fff"/><defs><linearGradient id="a" x1="-3.041" y1="31.181" x2="338.877" y2="698.163" gradientUnits="userSpaceOnUse"><stop stop-color="#87C8F7"/><stop offset=".665" stop-color="#008AED"/></linearGradient></defs></svg>