<svg width="1728" height="508" fill="none" xmlns="http://www.w3.org/2000/svg"><path fill="url(#a)" d="M0 9h1728v498H0z"/><path opacity=".2" d="M1729 190.5C1299.38 90.612 1319.5 46.942-1 46.942V0h1730v190.5Z" fill="#fff"/><path opacity=".4" d="M1728 165.5C1298.38 65.612 1318.5 46.942-2 46.942V0h1730v165.5Z" fill="#fff"/><path d="M1730 134C1299.89 42.84 1070.53 42.84-2 42.84V0h1732v134Z" fill="#fff"/><path opacity=".2" d="M.998 317C429.623 416.888 409.552 460.558 1727 460.558V507.5H.998V317Z" fill="#fff"/><path opacity=".4" d="M.998 342C429.623 441.888 409.552 460.558 1727 460.558V507.5H.998V342Z" fill="#fff"/><path d="M0 373.5c429.121 91.16 657.952 91.16 1728 91.16v42.84H0v-134Z" fill="#fff"/><defs><linearGradient id="a" x1="-8.847" y1="28.078" x2="98.486" y2="736.242" gradientUnits="userSpaceOnUse"><stop stop-color="#87C8F7"/><stop offset=".665" stop-color="#008AED"/></linearGradient></defs></svg>