<svg width="1728" height="879" fill="none" xmlns="http://www.w3.org/2000/svg"><path opacity=".75" fill="url(#a)" d="M-8 21h1738v849H-8z"/><path opacity=".2" d="M1729 190.5C1299.38 90.612 1319.5 46.942-1 46.942V0h1730v190.5Z" fill="#fff"/><path opacity=".4" d="M1728 165.5C1298.38 65.612 1318.5 46.942-2 46.942V0h1730v165.5Z" fill="#fff"/><path d="M1730 134C1299.89 42.84 1070.53 42.84-2 42.84V0h1732v134Z" fill="#fff"/><path opacity=".2" d="M-2 688c429.617 99.888 409.5 143.558 1730 143.558V878.5H-2V688Z" fill="#fff"/><path opacity=".4" d="M-1 713c429.617 99.888 409.5 118.558 1730 118.558V878.5H-1V713Z" fill="#fff"/><path d="M-3 744.5c430.114 91.16 659.475 91.16 1732 91.16v42.84H-3v-134Z" fill="#fff"/><defs><linearGradient id="a" x1="861" y1="21" x2="861" y2="870" gradientUnits="userSpaceOnUse"><stop stop-color="#008AED"/><stop offset="1" stop-color="#004E87"/></linearGradient></defs></svg>