<svg width="530" height="953" fill="none" xmlns="http://www.w3.org/2000/svg"><path opacity=".75" fill="url(#a)" d="M-4 47h534v870H-4z"/><path opacity=".2" d="M529 190.5C99.383 90.612 119.5 46.942-1201 46.942V0H529v190.5Z" fill="#fff"/><path opacity=".4" d="M528 165.5C98.383 65.612 118.5 46.942-1202 46.942V0H528v165.5Z" fill="#fff"/><path d="M530 134C99.886 42.84-129.475 42.84-1202 42.84V0H530v134Z" fill="#fff"/><path opacity=".2" d="M-23 762c429.617 99.888 409.5 143.558 1730 143.558V952.5H-23V762Z" fill="#fff"/><path opacity=".4" d="M-22 787c429.617 99.888 409.5 118.558 1730 118.558V952.5H-22V787Z" fill="#fff"/><path d="M-24 818.5c430.114 91.16 659.475 91.16 1732 91.16v42.84H-24v-134Z" fill="#fff"/><defs><linearGradient id="a" x1="263" y1="47" x2="263" y2="917" gradientUnits="userSpaceOnUse"><stop stop-color="#008AED"/><stop offset="1" stop-color="#004E87"/></linearGradient></defs></svg>