<svg width="108" height="108" fill="none" xmlns="http://www.w3.org/2000/svg"><path d="M76.275 93.825h-44.55c-5.584 0-10.125-4.541-10.125-10.125V24.3c0-5.584 4.541-10.125 10.125-10.125h44.55c5.584 0 10.125 4.541 10.125 10.125v59.4c0 5.584-4.541 10.125-10.125 10.125Zm-44.55-74.25A4.73 4.73 0 0 0 27 24.3v59.4a4.727 4.727 0 0 0 4.725 4.725h44.55A4.727 4.727 0 0 0 81 83.7V24.3a4.73 4.73 0 0 0-4.725-4.725h-44.55Z" fill="url(#a)" style="mix-blend-mode:color-dodge"/><path d="M68.85 34.425h-29.7a2.701 2.701 0 0 1 0-5.4h29.7a2.701 2.701 0 0 1 0 5.4Z" fill="url(#b)" style="mix-blend-mode:color-dodge"/><path d="M68.85 78.975c-1.49 0-2.7-1.21-2.7-2.7v-14.85a2.701 2.701 0 0 1 5.4 0v14.85c0 1.49-1.21 2.7-2.7 2.7Z" fill="url(#c)" style="mix-blend-mode:color-dodge"/><path d="M68.888 49.275c-1.49 0-2.716-1.21-2.716-2.7 0-1.49 1.188-2.7 2.683-2.7h.038a2.701 2.701 0 0 1 0 5.4h-.005Z" fill="url(#d)" style="mix-blend-mode:color-dodge"/><path d="M54.038 49.275c-1.49 0-2.716-1.21-2.716-2.7 0-1.49 1.188-2.7 2.683-2.7h.038a2.701 2.701 0 0 1 0 5.4h-.005Z" fill="url(#e)" style="mix-blend-mode:color-dodge"/><path d="M39.188 49.275c-1.49 0-2.716-1.21-2.716-2.7 0-1.49 1.188-2.7 2.683-2.7h.038a2.701 2.701 0 0 1 0 5.4h-.005Z" fill="url(#f)" style="mix-blend-mode:color-dodge"/><path d="M54.038 64.125c-1.49 0-2.716-1.21-2.716-2.7 0-1.49 1.188-2.7 2.683-2.7h.038a2.701 2.701 0 0 1 0 5.4h-.005Z" fill="url(#g)" style="mix-blend-mode:color-dodge"/><path d="M39.188 64.125c-1.49 0-2.716-1.21-2.716-2.7 0-1.49 1.188-2.7 2.683-2.7h.038a2.701 2.701 0 0 1 0 5.4h-.005Z" fill="url(#h)" style="mix-blend-mode:color-dodge"/><path d="M54.038 78.975c-1.49 0-2.716-1.21-2.716-2.7 0-1.49 1.188-2.7 2.683-2.7h.038a2.701 2.701 0 0 1 0 5.4h-.005Z" fill="url(#i)" style="mix-blend-mode:color-dodge"/><path d="M39.188 78.975c-1.49 0-2.716-1.21-2.716-2.7 0-1.49 1.188-2.7 2.683-2.7h.038a2.701 2.701 0 0 1 0 5.4h-.005Z" fill="url(#j)" style="mix-blend-mode:color-dodge"/><defs><linearGradient id="a" x1="54" y1="14.175" x2="54" y2="93.825" gradientUnits="userSpaceOnUse"><stop stop-color="#008AED"/><stop offset="1" stop-color="#004E87"/></linearGradient><linearGradient id="b" x1="54" y1="29.025" x2="54" y2="34.425" gradientUnits="userSpaceOnUse"><stop stop-color="#008AED"/><stop offset="1" stop-color="#004E87"/></linearGradient><linearGradient id="c" x1="68.85" y1="58.725" x2="68.85" y2="78.975" gradientUnits="userSpaceOnUse"><stop stop-color="#008AED"/><stop offset="1" stop-color="#004E87"/></linearGradient><linearGradient id="d" x1="68.882" y1="43.875" x2="68.882" y2="49.275" gradientUnits="userSpaceOnUse"><stop stop-color="#008AED"/><stop offset="1" stop-color="#004E87"/></linearGradient><linearGradient id="e" x1="54.032" y1="43.875" x2="54.032" y2="49.275" gradientUnits="userSpaceOnUse"><stop stop-color="#008AED"/><stop offset="1" stop-color="#004E87"/></linearGradient><linearGradient id="f" x1="39.182" y1="43.875" x2="39.182" y2="49.275" gradientUnits="userSpaceOnUse"><stop stop-color="#008AED"/><stop offset="1" stop-color="#004E87"/></linearGradient><linearGradient id="g" x1="54.032" y1="58.725" x2="54.032" y2="64.125" gradientUnits="userSpaceOnUse"><stop stop-color="#008AED"/><stop offset="1" stop-color="#004E87"/></linearGradient><linearGradient id="h" x1="39.182" y1="58.725" x2="39.182" y2="64.125" gradientUnits="userSpaceOnUse"><stop stop-color="#008AED"/><stop offset="1" stop-color="#004E87"/></linearGradient><linearGradient id="i" x1="54.032" y1="73.575" x2="54.032" y2="78.975" gradientUnits="userSpaceOnUse"><stop stop-color="#008AED"/><stop offset="1" stop-color="#004E87"/></linearGradient><linearGradient id="j" x1="39.182" y1="73.575" x2="39.182" y2="78.975" gradientUnits="userSpaceOnUse"><stop stop-color="#008AED"/><stop offset="1" stop-color="#004E87"/></linearGradient></defs></svg>