<svg width="108" height="108" fill="none" xmlns="http://www.w3.org/2000/svg"><path d="M90.763 19.45a2.697 2.697 0 0 0-2.932-2.445 2.705 2.705 0 0 0-2.446 2.937l.119 1.302-4.536.912a4.845 4.845 0 0 1-3.473-.615l-1.776-1.059a24.6 24.6 0 0 0-25.769.303H22.54l.075-.843a2.705 2.705 0 0 0-2.446-2.937 2.697 2.697 0 0 0-2.932 2.446L13.45 61.1c-.075.794.211 1.588.778 2.15l24.608 24.612a10.72 10.72 0 0 0 7.592 3.138 10.7 10.7 0 0 0 10.374-8.003 10.628 10.628 0 0 0 6.663 2.322c2.749 0 5.497-1.042 7.587-3.137a10.631 10.631 0 0 0 3.1-6.632c.826.206 1.69.308 2.565.308 2.867 0 5.562-1.112 7.587-3.143a10.639 10.639 0 0 0 3.143-7.587c0-.367-.017-.729-.054-1.085h4.465c.762 0 1.485-.319 1.998-.88a2.702 2.702 0 0 0 .692-2.063l-3.786-41.65ZM80.487 68.9a5.335 5.335 0 0 1-7.538 0l-1.896-1.89-7.57-7.577a2.702 2.702 0 0 0-3.818 0 2.697 2.697 0 0 0 0 3.818l7.527 7.528.043.048a5.275 5.275 0 0 1 1.561 3.77c0 1.425-.55 2.764-1.56 3.769a5.335 5.335 0 0 1-7.539 0l-5.61-5.605-.07-.076a.235.235 0 0 0-.039-.032l-1.857-1.858a2.702 2.702 0 0 0-3.818 0 2.702 2.702 0 0 0 0 3.818l1.895 1.89s.049.048.07.075a5.34 5.34 0 0 1-.07 7.469c-2.079 2.079-5.464 2.079-7.538 0L18.943 60.329l3.105-34.144h21.649l-8.646 8.64a10.66 10.66 0 0 0-3.142 7.587c0 2.867 1.117 5.562 3.142 7.592a10.683 10.683 0 0 0 7.593 3.143 10.67 10.67 0 0 0 7.587-3.143l3.332-3.332c3.37-3.37 8.861-3.37 12.236 0L80.487 61.36a5.275 5.275 0 0 1 1.56 3.77c0 1.425-.55 2.764-1.56 3.769Zm4.779-10.255a10.325 10.325 0 0 0-.961-1.102L69.617 42.85c-5.481-5.47-14.397-5.47-19.872 0l-3.332 3.332a5.299 5.299 0 0 1-3.77 1.566 5.311 5.311 0 0 1-3.774-1.566 5.298 5.298 0 0 1-1.56-3.77c0-1.425.556-2.759 1.56-3.769l10.638-10.638a19.203 19.203 0 0 1 23.442-2.883l1.765 1.053a10.264 10.264 0 0 0 7.307 1.28l3.974-.8 2.91 31.99h-3.639Z" fill="url(#a)" style="mix-blend-mode:color-burn"/><defs><linearGradient id="a" x1="54" y1="16.987" x2="54" y2="91.001" gradientUnits="userSpaceOnUse"><stop stop-color="#008AED"/><stop offset="1" stop-color="#004E87"/></linearGradient></defs></svg>