<svg width="565" height="565" viewBox="0 0 565 565" fill="none" xmlns="http://www.w3.org/2000/svg">
<path d="M449.566 212.149C443.862 212.778 438.765 208.787 438.027 203.278C424.688 99.1011 335.326 20.562 230.151 20.562C114.588 20.562 20.562 114.609 20.562 230.173C20.562 345.737 114.588 439.784 230.151 439.784C239.934 439.784 249.824 439.09 259.563 437.724C265.181 436.943 270.408 440.89 271.189 446.486C271.97 452.082 268.044 457.288 262.448 458.112C251.733 459.609 240.888 460.346 230.151 460.346L226.399 460.281C101.205 458.286 0 355.823 0 230.151C0 104.48 103.244 0 230.151 0C345.628 0 443.775 86.239 458.438 200.632C459.153 206.227 455.162 211.39 449.566 212.149Z" fill="url(#paint0_linear_78_59)"/>
<path d="M558.363 261.927L422.237 210.045C419.895 209.177 417.314 209.177 414.949 210.045L278.845 261.906C274.876 263.38 272.208 267.263 272.208 271.514V417.812C272.208 508.151 409.071 562.072 414.949 564.349C416.142 564.783 417.379 565 418.615 565L425.317 563.091C446.486 554.372 564.978 501.839 564.978 417.791V271.514C564.978 267.263 562.332 263.38 558.363 261.906V261.927ZM544.481 278.628V417.812C544.481 486.938 436.965 535.784 418.637 543.614C400.309 535.784 292.792 487.003 292.792 417.834V278.628L418.637 230.694L544.481 278.628Z" fill="url(#paint1_linear_78_59)"/>
<path d="M381.764 201.26C381.764 205.1 381.525 209.047 381.048 212.973C380.723 215.728 379.248 218.287 377.035 219.979C374.845 221.649 372.155 222.321 369.487 221.909C363.978 221.259 359.965 216.118 360.638 210.479C361.006 207.442 361.202 204.34 361.202 201.26C361.202 165.125 331.725 135.735 295.525 135.735C272.447 135.735 250.778 148.142 239.001 168.075C237.222 171.09 233.925 172.89 230.151 172.912H230.13C226.377 172.912 223.059 171.09 221.28 168.075C209.459 148.142 187.813 135.735 164.756 135.735C128.534 135.735 99.0793 165.125 99.0793 201.26C99.0793 232.776 118.687 268.087 157.382 306.218C186.49 334.892 218.352 356.799 230.151 364.542C234.619 361.636 242.016 356.669 251.169 349.966C253.359 348.34 256.071 347.667 258.782 348.079C261.515 348.513 263.901 349.966 265.528 352.179C267.154 354.369 267.827 357.081 267.415 359.792C266.981 362.525 265.527 364.911 263.315 366.537C248.306 377.534 237.569 384.258 235.574 385.473C233.882 386.514 232.017 387.013 230.151 387.013C228.286 387.013 226.421 386.514 224.816 385.538C218.829 381.894 78.4956 295.72 78.4956 201.26C78.4956 153.781 117.19 115.152 164.756 115.152C189.721 115.152 213.819 126.344 230.13 145.257C246.462 126.344 270.56 115.152 295.525 115.152C343.091 115.152 381.764 153.781 381.764 201.26Z" fill="url(#paint2_linear_78_59)"/>
<path d="M491.927 345.498H449.848V303.42C449.848 297.737 445.25 293.139 439.567 293.139H397.684C392.001 293.139 387.403 297.737 387.403 303.42V345.498H345.325C339.642 345.498 335.044 350.096 335.044 355.779V397.662C335.044 403.345 339.642 407.943 345.325 407.943H387.403V450.022C387.403 455.704 392.001 460.303 397.684 460.303H439.567C445.25 460.303 449.848 455.704 449.848 450.022V407.943H491.927C497.609 407.943 502.208 403.345 502.208 397.662V355.779C502.208 350.096 497.609 345.498 491.927 345.498ZM397.684 387.403H355.627V366.082H397.684C403.367 366.082 407.965 361.484 407.965 355.801V313.722H429.286V355.801C429.286 361.484 433.885 366.082 439.567 366.082H481.646V387.403H439.567C433.885 387.403 429.286 392.001 429.286 397.684V439.762H407.965V397.684C407.965 392.001 403.367 387.403 397.684 387.403Z" fill="url(#paint3_linear_78_59)"/>
<defs>
<linearGradient id="paint0_linear_78_59" x1="-2.34762" y1="17.6355" x2="274.152" y2="541.299" gradientUnits="userSpaceOnUse">
<stop stop-color="white"/>
<stop offset="1" stop-color="#539EC8"/>
</linearGradient>
<linearGradient id="paint1_linear_78_59" x1="270.709" y1="223.017" x2="505.389" y2="590.4" gradientUnits="userSpaceOnUse">
<stop stop-color="white"/>
<stop offset="1" stop-color="#539EC8"/>
</linearGradient>
<linearGradient id="paint2_linear_78_59" x1="76.9429" y1="125.566" x2="229.484" y2="449.122" gradientUnits="userSpaceOnUse">
<stop stop-color="white"/>
<stop offset="1" stop-color="#539EC8"/>
</linearGradient>
<linearGradient id="paint3_linear_78_59" x1="334.188" y1="299.543" x2="434.367" y2="490.027" gradientUnits="userSpaceOnUse">
<stop stop-color="white"/>
<stop offset="1" stop-color="#539EC8"/>
</linearGradient>
</defs>
</svg>
