<svg width="51" height="51" fill="none" xmlns="http://www.w3.org/2000/svg"><path d="M39.846 17.95a4.868 4.868 0 0 0-4.863 4.86 4.87 4.87 0 0 0 3.588 4.692v4.274c0 5.23-4.256 9.483-9.483 9.483-4.825 0-8.818-3.618-9.407-8.285 6-.673 10.682-5.778 10.682-11.957v-7.173c0-2.68-2.18-4.86-4.86-4.86h-.52v-.518a1.274 1.274 0 1 0-2.55 0v3.585a1.275 1.275 0 0 0 2.55 0v-.517h.52a2.315 2.315 0 0 1 2.31 2.31v7.173c0 5.23-4.254 9.483-9.484 9.483s-9.483-4.253-9.483-9.483v-7.173a2.315 2.315 0 0 1 2.31-2.31h.518v.517a1.275 1.275 0 0 0 2.55 0V8.466a1.274 1.274 0 1 0-2.55 0v.518h-.518c-2.68 0-4.86 2.18-4.86 4.86v7.173c0 6.225 4.753 11.363 10.82 11.972.609 6.067 5.747 10.82 11.972 10.82 6.635 0 12.033-5.398 12.033-12.033v-4.274a4.87 4.87 0 0 0 3.585-4.692c0-2.68-2.18-4.86-4.86-4.86Zm0 7.172a2.316 2.316 0 0 1-2.313-2.312 2.314 2.314 0 0 1 2.313-2.31 2.313 2.313 0 0 1 2.31 2.31 2.315 2.315 0 0 1-2.31 2.313Z" fill="url(#a)"/><defs><linearGradient id="a" x1="25.501" y1="7.191" x2="25.501" y2="43.809" gradientUnits="userSpaceOnUse"><stop stop-color="#008AED"/><stop offset="1" stop-color="#004E87"/></linearGradient></defs></svg>