<svg width="108" height="108" fill="none" xmlns="http://www.w3.org/2000/svg"><path d="M91.892 51.856V37.438c0-3.769-3.067-6.836-6.842-6.836h-1.436v-9.72c0-3.775-3.073-6.842-6.842-6.842H22.95c-6.053 0-10.978 4.925-10.978 10.978v57.964c0 6.053 4.925 10.978 10.978 10.978h62.1a6.847 6.847 0 0 0 6.842-6.842V72.7a6.846 6.846 0 0 0 4.142-6.28v-8.278a6.856 6.856 0 0 0-4.142-6.286Zm-1.264 6.286v8.278c0 .794-.648 1.442-1.442 1.442h-12.42a5.586 5.586 0 0 1-5.578-5.584c0-3.078 2.5-5.578 5.578-5.578h12.42c.794 0 1.442.648 1.442 1.442ZM22.95 19.44h53.822c.794 0 1.442.648 1.442 1.442v9.72H22.95c-3.073 0-5.578-2.506-5.578-5.584a5.585 5.585 0 0 1 5.578-5.578Zm63.542 67.678c0 .794-.648 1.442-1.442 1.442h-62.1a5.589 5.589 0 0 1-5.578-5.578V34.474a10.883 10.883 0 0 0 5.578 1.528h62.1a1.44 1.44 0 0 1 1.442 1.436V51.3h-9.72c-6.054 0-10.978 4.925-10.978 10.978 0 6.054 4.924 10.984 10.978 10.984h9.72v13.856Z" fill="url(#a)" style="mix-blend-mode:color-dodge"/><defs><linearGradient id="a" x1="54.003" y1="14.04" x2="54.003" y2="93.96" gradientUnits="userSpaceOnUse"><stop stop-color="#008AED"/><stop offset="1" stop-color="#004E87"/></linearGradient></defs></svg>