<svg width="28" height="28" viewBox="0 0 28 28" fill="none" xmlns="http://www.w3.org/2000/svg">
<mask id="mask0_33_370" style="mask-type:luminance" maskUnits="userSpaceOnUse" x="0" y="0" width="28" height="28">
<path d="M0.817871 0.317627H27.8179V27.3176H0.817871V0.317627Z" fill="white"/>
</mask>
<g mask="url(#mask0_33_370)">
<path d="M14.3179 2.20304C7.91162 2.20304 2.70329 7.41138 2.70329 13.8176C2.70329 20.2187 7.91162 25.427 14.3179 25.427C20.7189 25.427 25.9272 20.2187 25.9272 13.8176C25.9272 7.41138 20.7189 2.20304 14.3179 2.20304ZM14.3179 26.1718C7.50016 26.1718 1.9585 20.6301 1.9585 13.8176C1.9585 6.99992 7.50016 1.45825 14.3179 1.45825C21.1304 1.45825 26.6772 6.99992 26.6772 13.8176C26.6772 20.6301 21.1304 26.1718 14.3179 26.1718ZM14.3179 1.06242C12.5939 1.06242 10.9272 1.40096 9.35433 2.06242C7.8335 2.70825 6.46891 3.62492 5.29704 4.79679C4.12516 5.96867 3.2085 7.33325 2.56787 8.84888C1.9012 10.4218 1.56266 12.0937 1.56266 13.8176C1.56266 15.5364 1.9012 17.2083 2.56787 18.7812C3.2085 20.2968 4.12516 21.6614 5.29704 22.8333C6.46891 24.0051 7.8335 24.9218 9.35433 25.5676C10.9272 26.2291 12.5939 26.5676 14.3179 26.5676C16.0366 26.5676 17.7085 26.2291 19.2814 25.5676C20.797 24.9218 22.1616 24.0051 23.3335 22.8333C24.5054 21.6614 25.422 20.2968 26.0679 18.7812C26.7293 17.2083 27.0679 15.5364 27.0679 13.8176C27.0679 12.0937 26.7293 10.4218 26.0679 8.84888C25.422 7.33325 24.5054 5.96867 23.3335 4.79679C22.1616 3.62492 20.797 2.70825 19.2814 2.06242C17.7085 1.40096 16.0366 1.06242 14.3179 1.06242ZM14.3179 27.3176C12.495 27.3176 10.7241 26.9583 9.06266 26.2551C7.45329 25.5728 6.01058 24.5989 4.771 23.3593C3.53141 22.1197 2.55745 20.677 1.87516 19.0728C1.17204 17.4062 0.817871 15.6353 0.817871 13.8176C0.817871 11.9947 1.17204 10.2239 1.87516 8.56242C2.55745 6.95304 3.53141 5.51033 4.771 4.27075C6.01058 3.03117 7.45329 2.05721 9.06266 1.37492C10.7241 0.671793 12.495 0.317627 14.3179 0.317627C16.1408 0.317627 17.9064 0.671793 19.5731 1.37492C21.1772 2.05721 22.6252 3.03117 23.8647 4.27075C25.0991 5.51033 26.0731 6.95304 26.7554 8.56242C27.4585 10.2239 27.8179 11.9947 27.8179 13.8176C27.8179 15.6353 27.4585 17.4062 26.7554 19.0728C26.0731 20.677 25.0991 22.1197 23.8647 23.3593C22.6252 24.5989 21.1772 25.5728 19.5731 26.2551C17.9064 26.9583 16.1408 27.3176 14.3179 27.3176Z" fill="white"/>
</g>
</svg>
