<svg width="39" height="39" viewBox="0 0 39 39" fill="none" xmlns="http://www.w3.org/2000/svg">
<path fill-rule="evenodd" clip-rule="evenodd" d="M19.3438 38.7136C29.8073 38.7136 38.3385 30.1824 38.3385 19.7136C38.3385 9.25008 29.8073 0.713623 19.3438 0.713623C8.875 0.713623 0.343752 9.25008 0.343752 19.7136C0.338544 30.1824 8.875 38.7136 19.3438 38.7136Z" fill="#376FA0"/>
<path fill-rule="evenodd" clip-rule="evenodd" d="M19.3438 6.15112C24.8177 6.15112 29.2604 10.5938 29.2604 16.073C29.2604 17.1615 29.0833 18.2084 28.7604 19.1876V19.1928C28.5417 19.849 28.2604 20.4792 27.9167 21.0626L19.3438 33.2813L10.7656 21.0626C10.4271 20.4792 10.1406 19.849 9.92188 19.1928V19.1876C9.59896 18.2084 9.42188 17.1615 9.42188 16.073C9.42188 10.5938 13.8646 6.15112 19.3438 6.15112ZM19.3438 11.8178C21.9115 11.8178 23.9948 13.9063 23.9948 16.474C23.9948 19.047 21.9115 21.1355 19.3438 21.1355C16.7708 21.1355 14.6875 19.047 14.6875 16.474C14.6823 13.9063 16.7656 11.8178 19.3438 11.8178Z" fill="#FEFEFE"/>
</svg>
