<svg width="114" height="58" viewBox="0 0 114 58" fill="none" xmlns="http://www.w3.org/2000/svg">
<mask id="mask0_28_3" style="mask-type:luminance" maskUnits="userSpaceOnUse" x="49" y="0" width="27" height="32">
<path d="M49.1665 0.583374H75.6457V31.6667H49.1665V0.583374Z" fill="white"/>
</mask>
<g mask="url(#mask0_28_3)">
<mask id="mask1_28_3" style="mask-type:luminance" maskUnits="userSpaceOnUse" x="49" y="0" width="27" height="32">
<path d="M75.3958 7.06255C75.2292 6.78651 74.8802 6.67713 74.5938 6.82297C67.8958 10.0834 64.1354 11.4115 61.6354 11.4115C58.5729 11.4115 57.25 9.33338 54.849 5.55734C53.9896 4.21359 53.0208 2.68234 51.7969 0.984425C51.6146 0.734425 51.2761 0.6563 51 0.802132C50.724 0.942757 50.599 1.27088 50.7083 1.56255C51.7656 4.49484 52.7761 6.83859 53.6667 8.91151C57.1875 17.0626 58.2448 19.5261 49.4427 30.5886C49.25 30.8282 49.2604 31.1823 49.4792 31.4063C49.6979 31.6355 50.0521 31.6563 50.3021 31.4688C53.3073 29.2136 55.375 27.073 57.0313 25.3542C59 23.3126 60.3021 21.9636 61.7136 21.9636C63.6511 21.9636 66.3594 24.4271 72.0677 31.3698C72.1875 31.5209 72.3646 31.5938 72.5469 31.5938H72.5521C72.8958 31.5938 73.1719 31.3178 73.1719 30.974C73.1719 30.8282 73.1198 30.6876 73.0313 30.5834C72.5729 29.8386 72.1354 29.1251 71.7188 28.4532C64.6667 17.0313 63.9271 15.8386 75.2083 7.89588C75.474 7.70838 75.5521 7.35422 75.3906 7.07297" fill="white"/>
</mask>
<g mask="url(#mask1_28_3)">
<path d="M-1.01025 -0.8125H115.136V58.6563H-1.01025V-0.8125Z" fill="#F9F8F9"/>
</g>
</g>
<mask id="mask2_28_3" style="mask-type:luminance" maskUnits="userSpaceOnUse" x="59" y="2" width="7" height="7">
<path d="M59 2.20837H65.1927V8.47921H59V2.20837Z" fill="white"/>
</mask>
<g mask="url(#mask2_28_3)">
<mask id="mask3_28_3" style="mask-type:luminance" maskUnits="userSpaceOnUse" x="59" y="2" width="7" height="7">
<path d="M62.1408 8.25529C63.7866 8.25529 65.1304 6.91675 65.1304 5.26571C65.1304 3.61467 63.7866 2.27612 62.1408 2.27612C60.4897 2.27612 59.146 3.61467 59.146 5.26571C59.146 6.91154 60.4845 8.25529 62.1408 8.25529Z" fill="white"/>
</mask>
<g mask="url(#mask3_28_3)">
<path d="M-1.01025 -0.812378H115.136V58.6564H-1.01025V-0.812378Z" fill="#F9F8F9"/>
</g>
</g>
<mask id="mask4_28_3" style="mask-type:luminance" maskUnits="userSpaceOnUse" x="0" y="34" width="21" height="23">
<path d="M0.385254 34.0312H20.5936V56.7969H0.385254V34.0312Z" fill="white"/>
</mask>
<g mask="url(#mask4_28_3)">
<mask id="mask5_28_3" style="mask-type:luminance" maskUnits="userSpaceOnUse" x="0" y="34" width="21" height="23">
<path d="M18.828 56.6406H0.525879V55.9948C3.04671 55.8593 3.48942 55.3177 3.48942 52.7291V38.0677C3.48942 35.4479 3.18213 34.9687 0.525879 34.7656V34.1198H10.1561V34.7656C7.36442 34.9375 6.95296 35.3802 6.95296 38V53.7812C6.95296 55.0781 7.53109 55.3177 10.0155 55.3177H12.3957C15.1561 55.3177 16.9894 54.7031 18.1457 53.2448C18.5884 52.6614 19.0311 51.9114 19.578 50.7239H20.4582L18.828 56.6406Z" fill="white"/>
</mask>
<g mask="url(#mask5_28_3)">
<path d="M-1.01074 -0.8125H115.135V58.6563H-1.01074V-0.8125Z" fill="#F9F8F9"/>
</g>
</g>
<mask id="mask6_28_3" style="mask-type:luminance" maskUnits="userSpaceOnUse" x="21" y="33" width="9" height="24">
<path d="M21.2915 33.3334H29.6509V56.7969H21.2915V33.3334Z" fill="white"/>
</mask>
<g mask="url(#mask6_28_3)">
<mask id="mask7_28_3" style="mask-type:luminance" maskUnits="userSpaceOnUse" x="21" y="33" width="9" height="24">
<path d="M25.2603 36.875C24.3071 36.875 23.5571 36.1302 23.5571 35.1406C23.5571 34.1875 24.3384 33.4062 25.2915 33.4062C26.2759 33.4062 27.0259 34.1875 27.0259 35.1406C27.0259 36.125 26.2759 36.875 25.255 36.875M21.4478 56.6406V56.1354C23.7967 55.9948 24.1353 55.6927 24.1353 53.1042V45.3802C24.1353 43.7813 23.8644 43.2396 23.0103 43.2396C22.703 43.2396 22.1978 43.2396 21.578 43.4115V42.8646L26.854 40.9948L26.9894 41.1302V53.0677C26.9894 55.5885 27.2655 55.9635 29.5103 56.1354V56.6406H21.4478Z" fill="white"/>
</mask>
<g mask="url(#mask7_28_3)">
<path d="M-1.01074 -0.8125H115.135V58.6563H-1.01074V-0.8125Z" fill="#F9F8F9"/>
</g>
</g>
<mask id="mask8_28_3" style="mask-type:luminance" maskUnits="userSpaceOnUse" x="31" y="41" width="16" height="17">
<path d="M31 41.2344H46.6094V57.2604H31V41.2344Z" fill="white"/>
</mask>
<g mask="url(#mask8_28_3)">
<mask id="mask9_28_3" style="mask-type:luminance" maskUnits="userSpaceOnUse" x="31" y="41" width="16" height="17">
<path d="M46.5884 41.8385C45.5675 41.9427 45.2967 42.2187 44.38 44.4948L40.0259 55.4167C39.5155 56.6771 39.2811 57.1146 39.0728 57.1146C38.8696 57.1146 38.703 56.8438 38.4634 56.2344C38.3592 56.0625 38.3228 55.8229 38.1873 55.5156L34.104 45.75C32.6457 42.2448 32.3071 41.9063 31.0103 41.8385V41.3281H37.6821V41.8385C36.5207 41.9375 36.1144 42.1771 36.1144 42.7552C36.1144 43.099 36.2186 43.5365 36.4217 44.0521L39.8905 52.7604L43.255 43.9479C43.3957 43.6042 43.4634 43.2656 43.4634 42.9271C43.4634 42.2813 42.953 41.9375 41.8644 41.8385V41.3281H46.5936L46.5884 41.8385Z" fill="white"/>
</mask>
<g mask="url(#mask9_28_3)">
<path d="M-1.01074 -0.8125H115.135V58.6563H-1.01074V-0.8125Z" fill="#F9F8F9"/>
</g>
</g>
<mask id="mask10_28_3" style="mask-type:luminance" maskUnits="userSpaceOnUse" x="47" y="40" width="15" height="17">
<path d="M47.3071 40.7709H61.0103V57H47.3071V40.7709Z" fill="white"/>
</mask>
<g mask="url(#mask10_28_3)">
<mask id="mask11_28_3" style="mask-type:luminance" maskUnits="userSpaceOnUse" x="47" y="40" width="14" height="17">
<path d="M56.8646 46.1302C56.4948 43.375 55.776 42.2188 53.5313 42.2188C51.625 42.2188 50.3021 43.5782 49.9219 46.1302H56.8646ZM60.9792 51.2969C59.6563 55.0105 57.276 56.9792 53.8698 56.9792C49.8542 56.9792 47.4062 53.9532 47.4062 49.2552C47.4062 44.4584 50.1667 40.9896 54.4479 40.9896C56.5573 40.9896 58.0885 41.8125 59.1771 43.3386C59.8594 44.2917 60.1979 45.3802 60.3333 47.2188H49.8542C50.0313 49.8021 50.1979 51.1302 51.4219 52.7605C52.375 54.0209 53.6302 54.6355 55.1979 54.6355C57.4792 54.6355 58.7708 53.5782 60.4375 51.0625L60.9792 51.2969Z" fill="white"/>
</mask>
<g mask="url(#mask11_28_3)">
<path d="M-1.01025 -0.8125H115.136V58.6563H-1.01025V-0.8125Z" fill="#F9F8F9"/>
</g>
</g>
<mask id="mask12_28_3" style="mask-type:luminance" maskUnits="userSpaceOnUse" x="63" y="41" width="11" height="16">
<path d="M63.333 41H73.557V57H63.333V41Z" fill="white"/>
</mask>
<g mask="url(#mask12_28_3)">
<mask id="mask13_28_3" style="mask-type:luminance" maskUnits="userSpaceOnUse" x="63" y="41" width="11" height="16">
<path d="M70.5049 48.5469C72.682 49.8698 73.4997 50.7865 73.4997 52.7292C73.4997 55.0105 71.3226 56.9792 68.7393 56.9792C68.0205 56.9792 67.0361 56.948 66.2549 56.6719C65.4372 56.4011 65.0622 56.3698 64.6924 56.3698C64.2809 56.3698 64.0778 56.4375 63.8747 56.7761H63.432V51.4375H63.9736C64.6872 54.7396 65.9476 56.2344 68.2913 56.2344C70.0309 56.2344 71.1195 55.1094 71.1195 53.7136C71.1195 52.6563 70.4372 51.7709 69.3174 51.1615L67.4788 50.1407C64.6559 48.573 63.3955 46.9427 63.3955 45.2084C63.3955 42.5209 65.3018 41.0209 68.0882 41.0209C68.9059 41.0209 69.6559 41.0573 70.3695 41.3959C70.7445 41.5677 71.083 41.6719 71.3226 41.6719C71.458 41.6719 71.5986 41.6355 71.8695 41.3334H72.2445L72.4111 45.9584H71.9007C71.1195 42.8959 70.0986 41.7709 68.0622 41.7709C66.5934 41.7709 65.5049 42.4844 65.5049 44.0834C65.5049 44.8334 66.0153 45.8177 66.9684 46.4011L70.5049 48.5469Z" fill="white"/>
</mask>
<g mask="url(#mask13_28_3)">
<path d="M-1.01074 -0.8125H115.135V58.6563H-1.01074V-0.8125Z" fill="#F9F8F9"/>
</g>
</g>
<mask id="mask14_28_3" style="mask-type:luminance" maskUnits="userSpaceOnUse" x="75" y="36" width="10" height="21">
<path d="M75 36.8177H84.2396V57H75V36.8177Z" fill="white"/>
</mask>
<g mask="url(#mask14_28_3)">
<mask id="mask15_28_3" style="mask-type:luminance" maskUnits="userSpaceOnUse" x="75" y="36" width="10" height="21">
<path d="M84.1147 54.3959C82.995 56.1667 81.7033 56.9792 80.0002 56.9792C78.0262 56.9792 77.0054 55.5209 77.0054 52.6615V42.4167H75.2033C75.1043 42.349 75.0679 42.2813 75.0679 42.1823C75.0679 41.9792 75.271 41.7709 75.646 41.5365C76.5314 41.0261 77.6512 39.7657 78.9429 37.8959C79.146 37.5938 79.422 37.2865 79.6252 36.9427C79.7918 36.9427 79.8595 37.0469 79.8595 37.3855V41.3334H83.297V42.4167H79.8595V52.1511C79.8595 54.3282 80.3752 55.2136 81.6304 55.2136C82.3804 55.2136 82.922 54.9063 83.672 54.0209L84.1147 54.3959Z" fill="white"/>
</mask>
<g mask="url(#mask15_28_3)">
<path d="M-1.01025 -0.8125H115.136V58.6563H-1.01025V-0.8125Z" fill="#F9F8F9"/>
</g>
</g>
<mask id="mask16_28_3" style="mask-type:luminance" maskUnits="userSpaceOnUse" x="85" y="40" width="15" height="17">
<path d="M85.6665 40.7709H99.5728V57H85.6665V40.7709Z" fill="white"/>
</mask>
<g mask="url(#mask16_28_3)">
<mask id="mask17_28_3" style="mask-type:luminance" maskUnits="userSpaceOnUse" x="85" y="40" width="15" height="17">
<path d="M94.1873 47.5209C92.078 48.2709 90.6769 48.9897 89.828 49.7709C89.0155 50.5157 88.6717 51.3334 88.6717 52.3855C88.6717 54.1928 89.6925 55.0105 91.0207 55.0105C91.6978 55.0105 92.4165 54.8386 92.9946 54.4636C93.9842 53.7813 94.1873 53.3074 94.1873 52.323V47.5209ZM99.4582 55.349C98.4373 56.6407 97.5519 56.9792 96.3957 56.9792C95.1405 56.9792 94.3905 56.297 94.2186 54.4949H94.1873C92.3853 56.5365 90.7186 56.9792 89.255 56.9792C87.1457 56.9792 85.6821 55.6876 85.6821 53.4428C85.6821 51.672 86.7342 50.349 88.0623 49.4636C89.0832 48.7813 90.3488 48.1355 94.1873 46.7084V44.8699C94.1873 42.7657 93.0675 41.8126 91.5363 41.8126C90.1717 41.8126 89.1509 42.5574 89.1509 43.474C89.1509 44.0886 89.3592 44.1928 89.3592 44.9063C89.3592 45.5522 88.6769 46.3022 87.7915 46.3022C87.078 46.3022 86.328 45.6563 86.328 44.7397C86.328 43.8542 86.8748 42.7657 88.0623 42.0157C89.0155 41.4063 90.4425 40.9949 91.979 40.9949C93.88 40.9949 95.1717 41.5417 95.9894 42.5261C96.8123 43.5157 96.9425 44.2292 96.9425 46.3022V52.797C96.9425 54.3647 97.3853 55.047 97.9998 55.047C98.5467 55.047 98.8853 54.8751 99.4634 54.4011L99.4582 55.349Z" fill="white"/>
</mask>
<g mask="url(#mask17_28_3)">
<path d="M-1.01074 -0.812378H115.135V58.6564H-1.01074V-0.812378Z" fill="#F9F8F9"/>
</g>
</g>
<mask id="mask18_28_3" style="mask-type:luminance" maskUnits="userSpaceOnUse" x="99" y="40" width="12" height="17">
<path d="M99.5728 40.7709H110.953V56.7969H99.5728V40.7709Z" fill="white"/>
</mask>
<g mask="url(#mask18_28_3)">
<mask id="mask19_28_3" style="mask-type:luminance" maskUnits="userSpaceOnUse" x="99" y="40" width="12" height="17">
<path d="M104.969 44.1927C106.672 41.7448 107.62 40.9896 109.052 40.9896C110.203 40.9896 110.922 41.6719 110.922 42.7969C110.922 43.75 110.411 44.323 109.594 44.323C109.151 44.323 108.776 44.1563 108.234 43.6459C107.859 43.3073 107.552 43.1355 107.349 43.1355C106.396 43.1355 104.969 44.8386 104.969 45.9271V53.5834C104.969 55.5209 105.547 56.0313 107.859 56.1355V56.6407H99.6978V56.1355C101.875 55.724 102.109 55.4896 102.109 53.7813V45.2761C102.109 43.7813 101.802 43.2344 100.953 43.2344C100.547 43.2344 100.239 43.2709 99.7603 43.375V42.8282C101.771 42.1823 102.995 41.7032 104.792 40.9896L104.969 41.0573V44.1927Z" fill="white"/>
</mask>
<g mask="url(#mask19_28_3)">
<path d="M-1.01074 -0.8125H115.135V58.6563H-1.01074V-0.8125Z" fill="#F9F8F9"/>
</g>
</g>
<mask id="mask20_28_3" style="mask-type:luminance" maskUnits="userSpaceOnUse" x="110" y="53" width="4" height="4">
<path d="M110.026 53.0781H113.667V56.7969H110.026V53.0781Z" fill="white"/>
</mask>
<g mask="url(#mask20_28_3)">
<mask id="mask21_28_3" style="mask-type:luminance" maskUnits="userSpaceOnUse" x="110" y="53" width="4" height="4">
<path d="M111.833 54.8229C112.135 54.8229 112.432 54.8125 112.432 54.4792C112.432 54.2031 112.198 54.1354 111.958 54.1354H111.51V54.8229H111.833ZM111.265 55.9167V53.9271H112.026C112.474 53.9271 112.672 54.1198 112.672 54.4792C112.672 54.8281 112.443 54.9896 112.172 55.0313L112.765 55.9167H112.479L111.922 55.0313H111.51V55.9167H111.265ZM110.437 54.9219C110.437 55.7448 111.057 56.3958 111.89 56.3958C112.724 56.3958 113.338 55.7448 113.338 54.9219C113.338 54.099 112.724 53.4479 111.89 53.4479C111.062 53.4479 110.437 54.099 110.437 54.9219ZM113.609 54.9219C113.609 55.8906 112.859 56.6406 111.89 56.6406C110.917 56.6406 110.167 55.8906 110.167 54.9219C110.167 53.9583 110.917 53.2031 111.89 53.2031C112.859 53.2031 113.609 53.9583 113.609 54.9219Z" fill="white"/>
</mask>
<g mask="url(#mask21_28_3)">
<path d="M-1.01074 -0.8125H115.135V58.6563H-1.01074V-0.8125Z" fill="#F9F8F9"/>
</g>
</g>
</svg>
