<svg width="28" height="28" viewBox="0 0 28 28" fill="none" xmlns="http://www.w3.org/2000/svg">
<mask id="mask0_41_2" style="mask-type:luminance" maskUnits="userSpaceOnUse" x="0" y="0" width="28" height="28">
<path d="M0.703125 0.104248H27.7031V27.1042H0.703125V0.104248Z" fill="white"/>
</mask>
<g mask="url(#mask0_41_2)">
<path d="M14.2031 0.104248C6.76042 0.104248 0.703125 6.16154 0.703125 13.6042C0.703125 21.0522 6.76042 27.1042 14.2031 27.1042C21.6458 27.1042 27.7031 21.0522 27.7031 13.6042C27.7031 6.16154 21.6458 0.104248 14.2031 0.104248ZM14.2031 25.1199C7.85417 25.1199 2.69271 19.9532 2.69271 13.6042C2.69271 7.2605 7.85417 2.09383 14.2031 2.09383C20.5521 2.09383 25.7188 7.2605 25.7188 13.6042C25.7188 19.9532 20.5521 25.1199 14.2031 25.1199Z" fill="#FEFEFE"/>
</g>
<path d="M21.5729 10.2397H17.6771C17.6198 10.2397 17.5729 10.1928 17.5729 10.1355V6.23966C17.5729 6.18237 17.526 6.1355 17.4688 6.1355H10.9375C10.8802 6.1355 10.8333 6.18237 10.8333 6.23966V10.1355C10.8333 10.1928 10.7917 10.2397 10.7344 10.2397H6.83333C6.78125 10.2397 6.73438 10.2865 6.73438 10.3386V16.8751C6.73438 16.9272 6.78125 16.974 6.83333 16.974H10.7344C10.7917 16.974 10.8333 17.0209 10.8333 17.0782V20.974C10.8333 21.0313 10.8802 21.0782 10.9375 21.0782H17.4688C17.526 21.0782 17.5729 21.0313 17.5729 20.974V17.0782C17.5729 17.0209 17.6198 16.974 17.6771 16.974H21.5729C21.6302 16.974 21.6771 16.9272 21.6771 16.8751V10.3386C21.6771 10.2865 21.6302 10.2397 21.5729 10.2397ZM20.2552 15.4532C20.2552 15.5105 20.2083 15.5574 20.151 15.5574H16.2552C16.1979 15.5574 16.151 15.599 16.151 15.6563V19.5574C16.151 19.6147 16.1094 19.6563 16.0521 19.6563H12.3594C12.3021 19.6563 12.2552 19.6147 12.2552 19.5574V15.6563C12.2552 15.599 12.2083 15.5574 12.151 15.5574H8.25521C8.19792 15.5574 8.15104 15.5105 8.15104 15.4532V11.7605C8.15104 11.7032 8.19792 11.6563 8.25521 11.6563H12.151C12.2083 11.6563 12.2552 11.6147 12.2552 11.5574V7.65633C12.2552 7.59904 12.3021 7.55737 12.3594 7.55737H16.0521C16.1094 7.55737 16.151 7.59904 16.151 7.65633V11.5574C16.151 11.6147 16.1979 11.6563 16.2552 11.6563H20.151C20.2083 11.6563 20.2552 11.7032 20.2552 11.7605V15.4532Z" fill="#FEFEFE"/>
</svg>
