<svg width="28" height="28" viewBox="0 0 28 28" fill="none" xmlns="http://www.w3.org/2000/svg">
<mask id="mask0_33_272" style="mask-type:luminance" maskUnits="userSpaceOnUse" x="0" y="0" width="28" height="28">
<path d="M0.338379 0.661377H27.3384V27.6614H0.338379V0.661377Z" fill="white"/>
</mask>
<g mask="url(#mask0_33_272)">
<path d="M13.8384 0.661377C6.39567 0.661377 0.338379 6.71346 0.338379 14.1562C0.338379 21.6041 6.39567 27.6614 13.8384 27.6614C21.2811 27.6614 27.3384 21.6041 27.3384 14.1562C27.3384 6.71346 21.2811 0.661377 13.8384 0.661377ZM13.8384 25.8385C7.40088 25.8385 2.1613 20.5989 2.1613 14.1562C2.1613 7.71867 7.40088 2.47909 13.8384 2.47909C20.2811 2.47909 25.5207 7.71867 25.5207 14.1562C25.5207 20.5989 20.2811 25.8385 13.8384 25.8385Z" fill="white"/>
</g>
</svg>
