<svg width="39" height="39" viewBox="0 0 39 39" fill="none" xmlns="http://www.w3.org/2000/svg">
<path d="M19.3384 0.630127C8.8488 0.630127 0.338379 9.13533 0.338379 19.6301C0.338379 30.1197 8.8488 38.6301 19.3384 38.6301C29.8332 38.6301 38.3384 30.1197 38.3384 19.6301C38.3384 9.13533 29.8332 0.630127 19.3384 0.630127ZM15.6873 10.5885C16.6613 9.60929 17.9582 9.07284 19.3384 9.07284C20.7186 9.07284 22.0155 9.60929 22.9946 10.5885C23.9686 11.5624 24.505 12.8593 24.505 14.2395C24.505 15.6197 23.9686 16.9166 22.9946 17.8905C22.0155 18.8697 20.7186 19.4062 19.3384 19.4062C17.9582 19.4062 16.6613 18.8697 15.6873 17.8905C14.7082 16.9166 14.1717 15.6197 14.1717 14.2395C14.1717 12.8593 14.7134 11.5624 15.6873 10.5885ZM28.3592 28.9895C27.8853 29.7343 27.078 30.1822 26.1925 30.1822H12.4894C11.604 30.1822 10.7915 29.7343 10.3228 28.9895C9.8488 28.2395 9.79671 27.3124 10.1769 26.5155L10.7394 25.3437C11.5155 23.7187 12.7342 22.3489 14.255 21.3905C15.7811 20.427 17.5363 19.9218 19.3384 19.9218C21.1405 19.9218 22.9009 20.427 24.4217 21.3905C25.9478 22.3489 27.1665 23.7187 27.9425 25.3437L28.505 26.5155C28.8853 27.3124 28.8332 28.2395 28.3592 28.9895Z" fill="#376FA0"/>
</svg>
